<svg width="256" height="361" viewBox="0 0 256 361" fill="none" xmlns="http://www.w3.org/2000/svg">
<path d="M128.054 314.665L50.3221 293.086L33 98.7988H223.34L206 293.056L128.054 314.665Z" fill="#B8B8B8"/>
<path d="M191.156 280.685L205.975 114.684H128.172V298.147L191.156 280.685Z" fill="#C1C1C1"/>
<path d="M72.7109 186.744L74.8466 210.572H128.17V186.744H72.7109Z" fill="#EBEBEB"/>
<path d="M68.4141 138.514L70.5802 162.343H128.165V138.514H68.4141Z" fill="#EBEBEB"/>
<path d="M128.173 248.629L128.069 248.657L101.531 241.491L99.8342 222.486H75.9141L79.2524 259.901L128.063 273.451L128.173 273.42V248.629Z" fill="#EBEBEB"/>
<path d="M77.7969 46H106.657V58.069H89.8658V70.1379H106.657V82.2069H77.7969V46Z" fill="#EBEBEB"/>
<path d="M112.43 46H141.29V56.4947H124.499V58.5937H141.29V82.7316H112.43V71.7121H129.221V69.6132H112.43V46Z" fill="#EBEBEB"/>
<path d="M147.062 46H175.923V56.4947H159.131V58.5937H175.923V82.7316H147.062V71.7121H163.854V69.6132H147.062V46Z" fill="#EBEBEB"/>
<path d="M183.475 186.743L187.777 138.514H128.086V162.343H161.663L159.495 186.743H128.086V210.572H157.428L154.662 241.476L128.086 248.649V273.439L176.936 259.901L177.294 255.875L182.894 193.142L183.475 186.743Z" fill="white"/>
</svg>
