<svg width="256" height="361" viewBox="0 0 256 361" fill="none" xmlns="http://www.w3.org/2000/svg">
<path d="M223.336 99.7305L205.996 293.738L128.051 315.32L50.3217 293.769L33 99.7305H223.336Z" fill="#B8B8B8"/>
<path d="M128.164 298.825L191.147 281.386L205.965 115.598H128.164V298.825Z" fill="#C1C1C1"/>
<path d="M94.4629 163.193H128.171V139.395H68.4219L68.9923 145.779L74.8487 211.36H128.171V187.562H96.6405L94.4629 163.193Z" fill="#EBEBEB"/>
<path d="M99.8259 223.26H75.9062L79.2446 260.626L128.054 274.159L128.164 274.128V249.369L128.06 249.396L101.522 242.24L99.8259 223.26Z" fill="#EBEBEB"/>
<path d="M50.7109 47H62.82V58.9486H73.897V47H86.0066V83.1834H73.8975V71.0671H62.8205V83.1834H50.7115L50.7109 47Z" fill="#EBEBEB"/>
<path d="M101.926 58.999H91.2656V47H124.701V58.999H114.036V83.1834H101.926L101.926 58.999Z" fill="#EBEBEB"/>
<path d="M130.008 47H142.634L150.401 59.7138L158.16 47H170.792V83.1834H158.732V65.2489L150.401 78.1142H150.193L141.856 65.2489V83.1834H130.008V47Z" fill="#EBEBEB"/>
<path d="M176.82 47H188.933V71.2233H205.962V83.1834H176.82V47Z" fill="#EBEBEB"/>
<path d="M128.086 211.36H157.428L154.662 242.224L128.086 249.388V274.147L176.935 260.626L177.293 256.605L182.892 193.953L183.474 187.562H128.086V211.36Z" fill="#EBEBEB"/>
<path d="M128.086 163.135V163.193H185.642L186.12 157.844L187.206 145.779L187.776 139.395H128.086V163.135Z" fill="#EBEBEB"/>
</svg>
