<svg width="217" height="217" viewBox="0 0 217 217" fill="none" xmlns="http://www.w3.org/2000/svg">
<g clip-path="url(#clip0_2426_88)">
<path d="M0 0H217V217H0V0Z" fill="#C1C1C1"/>
<path d="M57.055 181.34L73.6614 171.29C76.8651 176.97 79.7794 181.777 86.7699 181.777C93.4707 181.777 97.6953 179.155 97.6953 168.96V99.623H118.088V169.248C118.088 190.369 105.707 199.983 87.6441 199.983C71.3309 199.983 61.8614 191.534 57.0547 181.338" fill="white"/>
<path d="M129.164 179.157L145.768 169.543C150.139 176.681 155.82 181.925 165.87 181.925C174.32 181.925 179.708 177.7 179.708 171.874C179.708 164.882 174.173 162.405 164.851 158.328L159.754 156.141C145.041 149.879 135.281 142.013 135.281 125.407C135.281 110.113 146.934 98.459 165.143 98.459C178.107 98.459 187.429 102.975 194.129 114.774L178.252 124.97C174.755 118.707 170.969 116.231 165.143 116.231C159.171 116.231 155.383 120.018 155.383 124.97C155.383 131.088 159.171 133.565 167.91 137.352L173.007 139.537C190.342 146.966 200.101 154.54 200.101 171.582C200.101 189.937 185.681 199.987 166.308 199.987C147.372 199.987 135.135 190.956 129.164 179.157Z" fill="white"/>
</g>
<defs>
<clipPath id="clip0_2426_88">
<rect width="217" height="217" fill="white"/>
</clipPath>
</defs>
</svg>
