<svg width="237" height="237" viewBox="0 0 237 237" fill="none" xmlns="http://www.w3.org/2000/svg">
<g clip-path="url(#clip0_2410_187)">
<path fill-rule="evenodd" clip-rule="evenodd" d="M109.393 54.2948C109.472 51.0402 109.676 47.8466 110.021 44.6802C110.537 39.9302 111.69 35.2665 112.457 30.5652C112.781 28.5704 113.545 23.3542 113.784 22.629C115.907 16.3164 121.33 16.3377 122.894 16.4569C123.655 16.494 131.419 17.1164 131.426 25.8623C131.442 36.5572 130.077 47.058 127.397 57.0838C127.384 66.0463 128.558 75.2016 130.799 83.7189C139.721 117.596 167.575 126.113 198.439 131.797C203.191 132.644 206.406 137.124 205.741 141.882C205.07 146.676 200.747 150.101 195.948 149.612C178.404 147.941 145.174 155.835 131.826 168.167C129.033 170.749 126.342 177.76 123.263 184.549C118.977 193.969 114.262 203.197 110.304 206.692C109.706 207.238 102.675 212.637 100.768 213.26C96.1932 214.725 93.1359 212.773 91.4887 211.205C89.8414 209.637 88.1726 206.852 88.0839 202.756C87.9907 198.476 90.3738 190.193 90.5855 188.36C91.3515 181.711 92.531 168.603 91.9971 157.036C91.7081 150.807 91.2341 145.02 89.2196 141.801C81.7614 129.885 66.4226 128.458 53.4258 127.668C51.9361 127.563 50.4394 127.494 48.9532 127.389C43.4985 127.913 37.8005 127.985 31.8801 127.536C22.9376 126.87 23.0569 118.553 23.0818 118.006C23.1453 116.806 23.7056 110.669 30.7624 109.537C31.5293 109.428 37.0606 109.287 39.1931 109.222C42.1638 109.136 45.1389 109.198 48.1178 109.298C79.7647 105.8 101.025 82.8758 109.393 54.2948ZM113.404 88.4701C120.159 113.955 135.079 128.528 154.362 137.553L154.359 137.553C140.419 141.724 127.302 147.781 119.588 154.921C116.662 157.624 113.309 163.552 110.015 170.299C110.26 163.475 110.222 156.156 109.536 149.777C108.76 142.499 107.027 136.249 104.52 132.236C99.676 124.5 92.7119 119.367 84.8139 115.964C96.3812 109.129 105.98 99.6715 113.404 88.4701Z" fill="#C9E5FF"/>
</g>
<defs>
<clipPath id="clip0_2410_187">
<rect width="202" height="202" fill="white" transform="translate(38.4062) rotate(10.961)"/>
</clipPath>
</defs>
</svg>
