<svg width="175" height="175" viewBox="0 0 175 175" fill="none" xmlns="http://www.w3.org/2000/svg">
<g clip-path="url(#clip0_2410_191)">
<path fill-rule="evenodd" clip-rule="evenodd" d="M38.187 99.0496C42.9177 94.8188 47.6733 89.8208 50.6169 84.1928C54.1128 77.5082 53.9138 70.8172 52.8776 64.1115C51.5449 55.4968 48.8801 46.8281 47.9399 38.0384C47.5882 34.7753 48.7541 33.012 49.2478 32.2391C50.4958 30.2864 52.1327 29.2327 53.8503 28.6767C55.8843 28.0138 58.9031 27.6542 62.0389 30.2378C62.4868 30.608 63.1122 31.1953 63.7386 32.0938C64.1968 32.753 65.2271 34.9784 65.7805 35.8436C67.1497 37.9716 68.4489 40.1283 69.731 42.3067C73.9989 49.5569 77.3159 55.8404 83.7522 61.4749C92.4879 69.125 99.7107 73.0396 107.315 72.9766C114.667 72.9159 122.035 69.3569 130.891 63.4395C131.72 62.8417 132.552 62.2796 133.388 61.7564C137.344 59.274 142.557 60.409 145.125 64.3116C147.692 68.2109 146.671 73.4479 142.83 76.1024C142.028 76.656 141.234 77.1948 140.444 77.7139C128.707 86.2728 118.299 103.975 113.636 117.659C112.199 121.878 111.788 132.202 110.011 139.407C108.698 144.722 106.447 148.791 104.021 150.894C102.397 152.306 100.766 152.856 99.3195 153.068C97.2187 153.376 95.2125 152.988 93.3262 151.839C92.2972 151.209 91.1912 150.254 90.2703 148.833C89.8279 148.149 89.0438 146.273 88.6991 145.419C86.7187 142.92 84.5809 140.564 82.6792 138.004C78.1423 131.895 72.9406 128.978 66.5273 124.937C60.5274 121.154 55.0543 119.472 47.9456 119.248C47.0851 119.377 40.1393 120.407 37.5471 120.429C33.7586 120.457 31.3169 118.911 30.2749 117.967C28.5048 116.366 27.6964 114.666 27.2954 113.138C26.705 110.881 26.9182 108.657 28.0199 106.482C28.701 105.131 29.9141 103.594 31.8487 102.296C33.3419 101.29 37.591 99.3261 38.187 99.0496ZM70.6959 72.8132C71.2546 73.346 71.8338 73.8742 72.4346 74.4009C85.229 85.6052 96.3195 90.25 107.458 90.1551L107.83 90.148C103.361 97.5226 99.7285 105.209 97.3743 112.118C96.4049 114.963 95.7666 120.311 94.9797 125.849C89.4589 119.103 83.3531 115.234 75.6889 110.401C69.8357 106.714 64.33 104.389 58.2263 103.153C61.1715 99.7213 63.8113 96.0318 65.8398 92.1539C69.2167 85.6961 70.5653 79.2603 70.6959 72.8132Z" fill="#C9E5FF"/>
</g>
<defs>
<clipPath id="clip0_2410_191">
<rect width="134" height="134" fill="white" transform="translate(0 50.6191) rotate(-22.1947)"/>
</clipPath>
</defs>
</svg>
