<svg width="500" height="512" viewBox="0 0 500 512" fill="none" xmlns="http://www.w3.org/2000/svg">
<g clip-path="url(#clip0_2248_1991)">
<path d="M309.164 207.478C254.665 139.761 172.729 -0.64549 68.8818 62.6881C-34.1881 125.551 62.9024 283.695 138.188 344.192C214.298 405.333 448.39 488.255 468.421 369.369C482.25 287.592 369.344 282.28 309.164 207.478Z" fill="#E7EDFB"/>
<path opacity="0.9" d="M309.164 207.478C254.665 139.761 172.729 -0.64549 68.8818 62.6881C-34.1881 125.551 62.9024 283.695 138.188 344.192C214.298 405.333 448.39 488.255 468.421 369.369C482.25 287.592 369.344 282.28 309.164 207.478Z" fill="#E7EDFB"/>
<path d="M423.349 225.679H70.779C62.7322 225.679 56.209 232.359 56.209 240.599V469.238C56.209 477.478 62.7322 484.157 70.779 484.157H423.349C431.396 484.157 437.919 477.478 437.919 469.238V240.599C437.919 232.359 431.396 225.679 423.349 225.679Z" fill="#455A64"/>
<path d="M41.2891 467.466H454.849V472.238C454.849 476.969 453.014 481.506 449.747 484.852C446.48 488.197 442.049 490.076 437.429 490.076H58.7091C54.089 490.076 49.6581 488.197 46.3913 484.852C43.1244 481.506 41.2891 476.969 41.2891 472.238V467.466Z" fill="#455A64"/>
<path d="M426.599 235.95H66.4492V454.236H426.599V235.95Z" fill="#263238"/>
<path d="M209.43 465.049L214.57 473.405H286.78L291.54 465.049H209.43Z" fill="#263238"/>
<path d="M416.659 243.343H77.1391C75.3332 243.343 73.8691 244.842 73.8691 246.692V450.191C73.8691 452.041 75.3332 453.54 77.1391 453.54H416.659C418.465 453.54 419.929 452.041 419.929 450.191V246.692C419.929 244.842 418.465 243.343 416.659 243.343Z" fill="#EBEBEB"/>
<path d="M419.56 453.847H73.5L73.87 259.051H419.56V453.847Z" fill="#FAFAFA"/>
<path d="M102.248 251.463C102.247 252.022 102.083 252.567 101.779 253.031C101.474 253.494 101.042 253.855 100.538 254.067C100.033 254.28 99.4787 254.334 98.9439 254.224C98.4092 254.114 97.9184 253.844 97.5334 253.448C97.1484 253.052 96.8865 252.549 96.7808 252.001C96.6751 251.453 96.7304 250.885 96.9396 250.369C97.1487 249.853 97.5025 249.413 97.9562 249.103C98.4098 248.792 98.943 248.627 99.4885 248.627C99.8518 248.627 100.212 248.7 100.547 248.843C100.883 248.986 101.187 249.195 101.444 249.458C101.7 249.722 101.903 250.035 102.041 250.379C102.179 250.723 102.25 251.091 102.248 251.463Z" fill="#263238"/>
<path d="M85.499 251.463C85.499 252.025 85.3363 252.574 85.0315 253.04C84.7266 253.507 84.2934 253.871 83.7867 254.085C83.28 254.299 82.7225 254.355 82.1849 254.245C81.6473 254.134 81.1538 253.863 80.7668 253.465C80.3798 253.068 80.1167 252.561 80.011 252.011C79.9052 251.46 79.9615 250.889 80.1727 250.371C80.3839 249.853 80.7405 249.41 81.1973 249.1C81.6542 248.79 82.1907 248.625 82.739 248.627C83.1023 248.627 83.462 248.7 83.7975 248.843C84.133 248.986 84.4377 249.195 84.6941 249.458C84.9506 249.722 85.1537 250.035 85.2918 250.379C85.4299 250.723 85.5003 251.091 85.499 251.463Z" fill="#263238"/>
<path d="M93.5395 251.463C93.5375 252.022 93.374 252.567 93.0695 253.031C92.765 253.494 92.3333 253.855 91.8288 254.067C91.3243 254.28 90.7697 254.334 90.235 254.224C89.7002 254.114 89.2094 253.844 88.8244 253.448C88.4394 253.052 88.1775 252.549 88.0718 252.001C87.9662 251.453 88.0214 250.885 88.2306 250.369C88.4398 249.853 88.7935 249.413 89.2472 249.103C89.7008 248.792 90.2341 248.627 90.7795 248.627C91.1428 248.627 91.5025 248.7 91.838 248.843C92.1735 248.986 92.4783 249.195 92.7347 249.458C92.9911 249.722 93.1942 250.035 93.3323 250.379C93.4704 250.723 93.5408 251.091 93.5395 251.463Z" fill="#263238"/>
<path d="M434.639 465.049C434.639 465.183 349.919 465.295 245.429 465.295C140.939 465.295 56.209 465.183 56.209 465.049C56.209 464.916 140.909 464.793 245.429 464.793C349.949 464.793 434.639 464.896 434.639 465.049Z" fill="#263238"/>
<path d="M383.109 342.917C378.287 347.174 374.708 352.713 372.766 358.922C370.825 365.131 370.598 371.769 372.109 378.102C367.6 377.191 362.941 377.428 358.541 378.792C354.142 380.156 350.137 382.605 346.879 385.925C343.62 389.244 341.208 393.332 339.853 397.83C338.498 402.328 338.243 407.097 339.109 411.72C329.199 404.736 314.049 407.347 306.919 417.28C306.769 410.726 306.519 403.814 303.159 398.234C299.799 392.653 292.159 389.212 286.769 392.755C288.812 390.372 290.053 387.379 290.309 384.219C290.565 381.059 289.823 377.897 288.192 375.202C286.561 372.506 284.127 370.418 281.25 369.246C278.372 368.074 275.203 367.879 272.209 368.691C272.059 360.827 267.209 305.142 263.209 258.161H229.049C225.049 304.323 220.479 357.345 220.329 365.015C217.328 364.186 214.145 364.37 211.254 365.542C208.363 366.713 205.919 368.809 204.284 371.517C202.649 374.225 201.912 377.401 202.181 380.572C202.451 383.744 203.713 386.742 205.779 389.12C200.389 385.577 192.779 389.028 189.389 394.598C185.999 400.169 185.769 407.091 185.619 413.645C178.489 403.722 163.349 401.101 153.429 408.084C154.296 403.462 154.04 398.693 152.685 394.195C151.331 389.697 148.918 385.609 145.659 382.289C142.401 378.97 138.396 376.52 133.997 375.156C129.598 373.792 124.939 373.556 120.429 374.467C122.031 368.133 121.845 361.465 119.892 355.235C117.94 349.006 114.3 343.473 109.397 339.278C104.494 335.083 98.5293 332.4 92.1958 331.539C85.8623 330.679 79.4205 331.677 73.6191 334.418V453.745H418.919V338.033C413.092 335.382 406.661 334.435 400.341 335.297C394.02 336.159 388.056 338.797 383.109 342.917Z" fill="#407BFF"/>
<g opacity="0.8">
<path d="M383.109 342.917C378.287 347.174 374.708 352.713 372.766 358.922C370.825 365.131 370.598 371.769 372.109 378.102C367.6 377.191 362.941 377.428 358.541 378.792C354.142 380.156 350.137 382.605 346.879 385.925C343.62 389.244 341.208 393.332 339.853 397.83C338.498 402.328 338.243 407.097 339.109 411.72C329.199 404.736 314.049 407.347 306.919 417.28C306.769 410.726 306.519 403.814 303.159 398.234C299.799 392.653 292.159 389.212 286.769 392.755C288.812 390.372 290.053 387.379 290.309 384.219C290.565 381.059 289.823 377.897 288.192 375.202C286.561 372.506 284.127 370.418 281.25 369.246C278.372 368.074 275.203 367.879 272.209 368.691C272.059 360.827 267.209 305.142 263.209 258.161H229.049C225.049 304.323 220.479 357.345 220.329 365.015C217.328 364.186 214.145 364.37 211.254 365.542C208.363 366.713 205.919 368.809 204.284 371.517C202.649 374.225 201.912 377.401 202.181 380.572C202.451 383.744 203.713 386.742 205.779 389.12C200.389 385.577 192.779 389.028 189.389 394.598C185.999 400.169 185.769 407.091 185.619 413.645C178.489 403.722 163.349 401.101 153.429 408.084C154.296 403.462 154.04 398.693 152.685 394.195C151.331 389.697 148.918 385.609 145.659 382.289C142.401 378.97 138.396 376.52 133.997 375.156C129.598 373.792 124.939 373.556 120.429 374.467C122.031 368.133 121.845 361.465 119.892 355.235C117.94 349.006 114.3 343.473 109.397 339.278C104.494 335.083 98.5293 332.4 92.1958 331.539C85.8623 330.679 79.4205 331.677 73.6191 334.418V453.745H418.919V338.033C413.092 335.382 406.661 334.435 400.341 335.297C394.02 336.159 388.056 338.797 383.109 342.917Z" fill="white"/>
</g>
<path d="M380.998 429.916C374.801 425.654 367.816 422.738 360.475 421.351C353.134 419.963 345.593 420.133 338.319 421.849C331.044 423.565 324.191 426.791 318.183 431.328C312.174 435.865 307.139 441.616 303.388 448.225C300.351 444.022 296.382 440.618 291.808 438.292C292.132 437.409 292.403 436.507 292.618 435.589C293.503 431.666 293.396 427.577 292.305 423.708C291.215 419.839 289.179 416.32 286.389 413.482C283.599 410.645 280.148 408.584 276.363 407.494C272.578 406.404 268.583 406.322 264.758 407.255L254.538 258.161H241.138V395.264C232.838 396.564 227.048 406.63 229.978 414.72C227.087 415.181 224.348 416.353 221.996 418.137C219.645 419.92 217.751 422.262 216.478 424.96C215.678 426.721 215.558 430.449 216.248 434.668C211.189 434.762 206.218 436.037 201.712 438.395C197.207 440.753 193.286 444.133 190.248 448.276C186.497 441.667 181.462 435.916 175.454 431.379C169.446 426.843 162.592 423.616 155.318 421.9C148.043 420.184 140.502 420.014 133.161 421.402C125.82 422.79 118.835 425.705 112.638 429.967C109.128 412.559 90.1183 400.189 73.2383 404.367V454.062L229.028 453.857C230.098 454.17 231.206 454.328 232.318 454.328L270.398 453.868L420.468 454.062V404.275C403.548 400.138 384.538 412.508 380.998 429.916Z" fill="#407BFF"/>
<g opacity="0.6">
<path d="M380.998 429.916C374.801 425.654 367.816 422.738 360.475 421.351C353.134 419.963 345.593 420.133 338.319 421.849C331.044 423.565 324.191 426.791 318.183 431.328C312.174 435.865 307.139 441.616 303.388 448.225C300.351 444.022 296.382 440.618 291.808 438.292C292.132 437.409 292.403 436.507 292.618 435.589C293.503 431.666 293.396 427.577 292.305 423.708C291.215 419.839 289.179 416.32 286.389 413.482C283.599 410.645 280.148 408.584 276.363 407.494C272.578 406.404 268.583 406.322 264.758 407.255L254.538 258.161H241.138V395.264C232.838 396.564 227.048 406.63 229.978 414.72C227.087 415.181 224.348 416.353 221.996 418.137C219.645 419.92 217.751 422.262 216.478 424.96C215.678 426.721 215.558 430.449 216.248 434.668C211.189 434.762 206.218 436.037 201.712 438.395C197.207 440.753 193.286 444.133 190.248 448.276C186.497 441.667 181.462 435.916 175.454 431.379C169.446 426.843 162.592 423.616 155.318 421.9C148.043 420.184 140.502 420.014 133.161 421.402C125.82 422.79 118.835 425.705 112.638 429.967C109.128 412.559 90.1183 400.189 73.2383 404.367V454.062L229.028 453.857C230.098 454.17 231.206 454.328 232.318 454.328L270.398 453.868L420.468 454.062V404.275C403.548 400.138 384.538 412.508 380.998 429.916Z" fill="white"/>
</g>
<path d="M484.73 489.83C484.73 489.984 379.18 490.107 249.01 490.107C118.84 490.107 13.2695 489.984 13.2695 489.83C13.2695 489.677 118.8 489.564 249.01 489.564C379.22 489.564 484.73 489.687 484.73 489.83Z" fill="#263238"/>
<path d="M233.25 211.486C225.57 215.224 222.09 225.996 226.09 233.687C227.67 236.759 230.25 239.39 230.59 242.81C231.11 248.053 226.27 252.149 224.77 257.146C224.009 260.141 224.408 263.322 225.884 266.022C227.36 268.723 229.799 270.734 232.69 271.636C235.32 272.343 238.47 272.22 240.23 274.339C242.48 277.043 240.85 281.507 242.78 284.487C244.51 287.16 248.56 287.293 251.17 285.511C253.78 283.73 255.22 280.647 256.25 277.616C257.28 274.585 258.05 271.401 259.83 268.759C261.83 265.861 264.78 263.874 267.16 261.324C272.88 255.18 274.63 245.964 273.34 237.557C272.05 229.15 268.08 221.46 263.59 214.323" fill="#407BFF"/>
<g opacity="0.3">
<path d="M233.25 211.486C225.57 215.224 222.09 225.996 226.09 233.687C227.67 236.759 230.25 239.39 230.59 242.81C231.11 248.053 226.27 252.149 224.77 257.146C224.009 260.141 224.408 263.322 225.884 266.022C227.36 268.723 229.799 270.734 232.69 271.636C235.32 272.343 238.47 272.22 240.23 274.339C242.48 277.043 240.85 281.507 242.78 284.487C244.51 287.16 248.56 287.293 251.17 285.511C253.78 283.73 255.22 280.647 256.25 277.616C257.28 274.585 258.05 271.401 259.83 268.759C261.83 265.861 264.78 263.874 267.16 261.324C272.88 255.18 274.63 245.964 273.34 237.557C272.05 229.15 268.08 221.46 263.59 214.323" fill="white"/>
</g>
<path d="M240 215.91C233.49 218.849 230.64 228.096 234.32 234.342C236.57 238.151 240.93 241.592 239.87 245.903C239.15 248.832 236.09 250.624 235.21 253.501C234.04 257.331 237.58 261.396 241.48 261.878C245.38 262.359 249.14 260.229 252.09 257.577C262.3 248.361 264.79 230.338 258.42 218.04" fill="#407BFF"/>
<path d="M273.559 157.296C273.559 157.296 306.999 179.947 303.349 219.136L272.609 205.005L273.559 157.296Z" fill="#407BFF"/>
<path d="M218 204.216L225.6 217.108H265.01L272.61 204.954L218 204.216Z" fill="#263238"/>
<path d="M243.258 74.1374C235.759 74.652 228.742 78.1059 223.665 83.7812C218.589 89.4566 215.843 96.9169 215.998 104.612L217.998 204.964H272.608L274.428 104.56C274.505 100.415 273.74 96.299 272.182 92.4726C270.623 88.6463 268.305 85.1934 265.374 82.3329C262.443 79.4724 258.964 77.2668 255.157 75.856C251.35 74.4452 247.298 73.86 243.258 74.1374Z" fill="#407BFF"/>
<g opacity="0.8">
<path d="M243.258 74.1374C235.759 74.652 228.742 78.1059 223.665 83.7812C218.589 89.4566 215.843 96.9169 215.998 104.612L217.998 204.964H272.608L274.428 104.56C274.505 100.415 273.74 96.299 272.182 92.4726C270.623 88.6463 268.305 85.1934 265.374 82.3329C262.443 79.4724 258.964 77.2668 255.157 75.856C251.35 74.4452 247.298 73.86 243.258 74.1374Z" fill="white"/>
</g>
<path d="M216.999 157.296C216.999 157.296 183.599 179.947 187.259 219.136L217.999 204.984L216.999 157.296Z" fill="#407BFF"/>
<path d="M216.3 101.284C227.85 90.931 264.1 91.1563 273.83 99.5838C271.33 62.3307 243.55 48.3838 243.55 48.3838C215.13 68.5361 216.3 101.284 216.3 101.284Z" fill="#407BFF"/>
<path d="M243.549 48.394L243.879 48.7012C244.089 48.906 244.409 49.203 244.809 49.6024L246.329 51.0769L247.329 52.019L248.329 53.1659C249.049 53.9748 249.869 54.8657 250.739 55.8692L253.399 59.2689C253.849 59.8936 254.299 60.5694 254.769 61.2452C255.239 61.9211 255.769 62.6174 256.189 63.3854C257.079 64.9009 258.069 66.4574 258.919 68.2494C260.87 72.0581 262.383 76.0854 263.429 80.2507C264.019 82.5665 264.456 84.9201 264.739 87.2958C264.909 88.5246 264.999 89.7739 265.169 91.0129C265.278 92.3 265.321 93.592 265.299 94.8837C265.299 105.277 265.169 116.705 265.039 128.676C264.759 152.678 264.429 174.397 264.179 190.116C264.049 197.97 263.939 204.329 263.859 208.732C263.859 210.923 263.779 212.633 263.759 213.852C263.759 214.425 263.759 214.876 263.759 215.163C263.759 215.449 263.759 215.613 263.759 215.613C263.759 215.613 263.759 215.46 263.759 215.163C263.759 214.866 263.759 214.425 263.759 213.852C263.759 212.685 263.759 210.975 263.809 208.732C263.859 204.329 263.939 197.97 264.029 190.116C264.229 174.377 264.499 152.658 264.809 128.676C264.939 116.674 265.089 105.247 265.089 94.8837C265.116 93.6056 265.073 92.3269 264.959 91.0539C264.799 89.7944 264.709 88.5553 264.549 87.3368C264.269 84.9681 263.835 82.6213 263.249 80.3121C262.216 76.1645 260.723 72.1516 258.799 68.3518C257.899 66.5598 256.909 65.0033 255.999 63.4878C255.559 62.7198 254.999 62.044 254.589 61.3476C254.179 60.6513 253.689 59.996 253.239 59.3713L250.599 55.9614C249.739 54.9374 248.929 54.067 248.209 53.2478L247.209 52.0907L246.259 51.1384L244.759 49.6433L243.849 48.7217L243.549 48.394Z" fill="#263238"/>
<path d="M256.322 126.66C258.038 118.696 253.572 110.916 246.345 109.283C239.119 107.649 231.869 112.78 230.152 120.743C228.435 128.707 232.901 136.487 240.128 138.12C247.354 139.754 254.605 134.623 256.322 126.66Z" fill="#FAFAFA"/>
<path d="M246.339 109.281C246.263 109.293 246.185 109.293 246.109 109.281L245.459 109.189L244.979 109.107H244.389H243.709C243.459 109.107 243.199 109.107 242.929 109.107C242.321 109.146 241.716 109.228 241.119 109.353C240.409 109.507 239.713 109.723 239.039 109.998C237.392 110.671 235.886 111.658 234.599 112.906C233.039 114.413 231.821 116.252 231.029 118.292C230.808 118.849 230.624 119.42 230.479 120.002C230.409 120.299 230.319 120.596 230.249 120.893L230.099 121.815L230.019 122.286V122.757C230.019 123.074 229.969 123.402 229.949 123.72C229.929 124.037 229.949 124.365 229.949 124.692V125.184L229.999 125.686C230.262 128.468 231.304 131.113 232.999 133.304C234.784 135.686 237.331 137.346 240.194 137.994C243.056 138.642 246.05 138.236 248.649 136.847C251.075 135.574 253.095 133.616 254.469 131.205L254.719 130.785L254.929 130.335L255.349 129.464L255.679 128.563L255.839 128.113L255.969 127.652L256.209 126.751C256.279 126.454 256.309 126.146 256.369 125.849C256.469 125.257 256.536 124.658 256.569 124.057C256.702 121.865 256.36 119.669 255.569 117.627C254.653 115.237 253.114 113.15 251.119 111.595C250.627 111.221 250.113 110.879 249.579 110.571C249.329 110.449 249.109 110.305 248.889 110.203L248.259 109.937L247.709 109.711L247.249 109.568L246.609 109.373C246.536 109.354 246.466 109.327 246.399 109.291H246.619L247.259 109.455L247.739 109.588L248.289 109.803L248.929 110.059L249.629 110.418C250.177 110.724 250.704 111.066 251.209 111.442C251.794 111.895 252.345 112.391 252.859 112.927C254.103 114.248 255.087 115.802 255.759 117.504C256.585 119.569 256.951 121.798 256.829 124.027C256.805 124.638 256.741 125.247 256.639 125.849C256.579 126.157 256.549 126.464 256.479 126.771C256.409 127.078 256.319 127.385 256.229 127.693L256.109 128.153L255.949 128.604L255.609 129.526L255.189 130.417L254.979 130.877L254.719 131.307C253.331 133.772 251.274 135.771 248.799 137.062C246.144 138.489 243.082 138.909 240.154 138.247C237.226 137.586 234.621 135.886 232.799 133.448C231.088 131.204 230.046 128.501 229.799 125.665V125.163V124.662C229.799 124.334 229.799 123.996 229.799 123.638C229.799 123.279 229.799 122.982 229.879 122.614V122.132L229.949 121.651C230.009 121.344 230.059 121.026 230.109 120.719C230.159 120.412 230.269 120.115 230.349 119.808C230.497 119.217 230.687 118.639 230.919 118.077C231.724 116.003 232.971 114.138 234.569 112.619C235.88 111.366 237.415 110.382 239.089 109.721C239.773 109.449 240.479 109.237 241.199 109.087C241.803 108.968 242.414 108.893 243.029 108.861C243.309 108.861 243.569 108.861 243.819 108.861H244.509H245.099L245.579 108.953L246.229 109.076L246.339 109.281Z" fill="#263238"/>
<path d="M229.42 121.487C229.42 121.661 226.34 121.579 222.63 122.265C218.92 122.951 216.06 124.098 216 123.934C216.55 123.524 217.166 123.216 217.82 123.023C220.882 121.846 224.129 121.256 227.4 121.282C228.08 121.238 228.762 121.307 229.42 121.487Z" fill="#263238"/>
<path d="M273.569 121.467C272.744 121.472 271.92 121.394 271.109 121.231C269.609 121.047 267.529 120.801 265.229 120.627C262.929 120.453 260.839 120.412 259.319 120.381C258.498 120.426 257.674 120.389 256.859 120.269C257.659 120.056 258.484 119.96 259.309 119.982C261.309 119.889 263.313 119.917 265.309 120.064C267.289 120.205 269.259 120.461 271.209 120.832C272.019 120.943 272.811 121.156 273.569 121.467Z" fill="#263238"/>
<path d="M273.869 178.893C273.676 178.92 273.481 178.92 273.289 178.893L271.639 178.76L265.569 178.288C260.449 177.92 253.359 177.561 245.569 177.572C237.779 177.582 230.649 177.951 225.519 178.329L219.459 178.821L217.809 178.944C217.616 178.973 217.421 178.973 217.229 178.944C217.412 178.877 217.604 178.836 217.799 178.821L219.439 178.585C220.859 178.391 222.929 178.155 225.439 177.92C230.559 177.428 237.669 176.998 245.519 176.988C253.369 176.978 260.519 177.398 265.589 177.879C268.159 178.114 270.219 178.34 271.649 178.534L273.289 178.76C273.487 178.777 273.682 178.822 273.869 178.893Z" fill="#263238"/>
<path d="M230.869 135.874C230.869 135.956 230.529 135.987 230.299 136.386C230.233 136.489 230.188 136.605 230.169 136.727C230.15 136.849 230.157 136.974 230.189 137.093C230.24 137.219 230.326 137.327 230.436 137.403C230.547 137.48 230.676 137.521 230.809 137.523C230.943 137.544 231.08 137.524 231.203 137.465C231.325 137.407 231.428 137.313 231.499 137.195C231.549 137.083 231.575 136.961 231.575 136.837C231.575 136.713 231.549 136.591 231.499 136.479C231.329 136.048 230.999 135.967 231.019 135.885C231.039 135.803 231.479 135.731 231.849 136.284C231.954 136.449 232.019 136.637 232.04 136.833C232.061 137.028 232.037 137.226 231.969 137.41C231.869 137.64 231.699 137.83 231.485 137.954C231.27 138.077 231.023 138.127 230.779 138.096C230.569 138.085 230.366 138.013 230.194 137.889C230.022 137.765 229.887 137.594 229.806 137.395C229.724 137.196 229.699 136.978 229.734 136.765C229.768 136.552 229.86 136.353 229.999 136.192C230.439 135.649 230.909 135.803 230.869 135.874Z" fill="#263238"/>
<path d="M242.769 142.438C242.769 142.53 242.429 142.561 242.199 142.96C242.134 143.062 242.091 143.177 242.072 143.297C242.053 143.416 242.059 143.539 242.089 143.657C242.137 143.785 242.222 143.896 242.332 143.975C242.443 144.053 242.574 144.096 242.709 144.097C242.843 144.115 242.98 144.093 243.103 144.033C243.225 143.973 243.328 143.878 243.399 143.759C243.446 143.647 243.47 143.527 243.47 143.406C243.47 143.284 243.446 143.164 243.399 143.052C243.219 142.622 242.889 142.54 242.909 142.459C242.929 142.377 243.369 142.305 243.739 142.858C243.843 143.021 243.908 143.207 243.929 143.401C243.95 143.595 243.926 143.791 243.859 143.974C243.758 144.205 243.589 144.396 243.375 144.521C243.161 144.647 242.914 144.699 242.669 144.67C242.449 144.668 242.234 144.598 242.052 144.472C241.87 144.345 241.729 144.166 241.646 143.957C241.562 143.749 241.541 143.519 241.584 143.298C241.628 143.077 241.733 142.874 241.889 142.715C242.339 142.223 242.809 142.336 242.769 142.438Z" fill="#263238"/>
<path d="M255.899 136.837C255.899 136.929 255.569 136.96 255.329 137.359C255.264 137.461 255.221 137.576 255.202 137.695C255.183 137.815 255.189 137.938 255.219 138.056C255.271 138.183 255.359 138.293 255.47 138.371C255.582 138.449 255.714 138.493 255.849 138.496C255.983 138.516 256.119 138.495 256.24 138.434C256.361 138.374 256.462 138.278 256.529 138.158C256.576 138.046 256.6 137.926 256.6 137.805C256.6 137.683 256.576 137.563 256.529 137.451C256.359 137.021 256.019 136.939 256.039 136.847C256.059 136.755 256.499 136.704 256.869 137.257C256.978 137.418 257.046 137.604 257.069 137.798C257.091 137.993 257.067 138.19 256.999 138.373C256.895 138.602 256.723 138.793 256.508 138.917C256.293 139.042 256.045 139.095 255.799 139.069C255.554 139.059 255.318 138.969 255.126 138.813C254.933 138.656 254.795 138.441 254.729 138.199C254.69 138.007 254.695 137.809 254.746 137.62C254.796 137.431 254.89 137.258 255.019 137.113C255.469 136.622 255.939 136.776 255.899 136.837Z" fill="#263238"/>
<path d="M260.17 126.791C260.17 126.873 259.83 126.904 259.59 127.303C259.527 127.408 259.485 127.524 259.468 127.646C259.451 127.768 259.458 127.892 259.49 128.01C259.538 128.139 259.623 128.25 259.734 128.328C259.844 128.407 259.975 128.449 260.11 128.45C260.243 128.468 260.378 128.445 260.499 128.385C260.62 128.325 260.721 128.23 260.79 128.112C260.837 128.001 260.861 127.881 260.861 127.759C260.861 127.638 260.837 127.517 260.79 127.406C260.62 126.976 260.29 126.884 260.3 126.802C260.31 126.72 260.76 126.658 261.14 127.211C261.245 127.374 261.311 127.56 261.332 127.755C261.353 127.949 261.328 128.145 261.26 128.327C261.158 128.556 260.988 128.746 260.774 128.869C260.56 128.992 260.314 129.043 260.07 129.014C259.823 129.004 259.586 128.914 259.392 128.758C259.198 128.601 259.057 128.386 258.99 128.143C258.951 127.952 258.957 127.753 259.008 127.565C259.058 127.376 259.151 127.202 259.28 127.058C259.73 126.576 260.2 126.73 260.17 126.791Z" fill="#263238"/>
<path d="M226.529 125.819C226.529 125.901 226.189 125.931 225.959 126.331C225.895 126.435 225.852 126.551 225.833 126.672C225.814 126.794 225.819 126.918 225.849 127.037C225.898 127.165 225.984 127.275 226.094 127.354C226.204 127.432 226.335 127.475 226.469 127.478C226.603 127.493 226.739 127.47 226.861 127.41C226.983 127.351 227.087 127.257 227.159 127.14C227.208 127.029 227.234 126.908 227.234 126.786C227.234 126.665 227.208 126.544 227.159 126.433C226.989 126.003 226.659 125.911 226.679 125.829C226.699 125.747 227.139 125.686 227.509 126.239C227.614 126.402 227.68 126.588 227.701 126.782C227.722 126.976 227.697 127.172 227.629 127.355C227.528 127.584 227.358 127.775 227.144 127.898C226.93 128.022 226.683 128.072 226.439 128.041C226.192 128.031 225.955 127.942 225.761 127.785C225.567 127.629 225.426 127.414 225.359 127.17C225.32 126.978 225.327 126.779 225.379 126.59C225.431 126.401 225.527 126.228 225.659 126.085C226.099 125.604 226.569 125.757 226.529 125.819Z" fill="#263238"/>
<path d="M255.88 112.036C255.88 111.954 256.22 111.923 256.45 111.524C256.517 111.421 256.561 111.305 256.58 111.183C256.599 111.061 256.592 110.936 256.56 110.817C256.508 110.691 256.423 110.582 256.313 110.504C256.203 110.426 256.074 110.382 255.94 110.377C255.807 110.359 255.672 110.382 255.551 110.442C255.43 110.502 255.329 110.597 255.26 110.715C255.208 110.825 255.181 110.946 255.181 111.068C255.181 111.19 255.208 111.311 255.26 111.421C255.43 111.851 255.76 111.944 255.74 112.025C255.72 112.107 255.28 112.169 254.91 111.616C254.805 111.453 254.739 111.267 254.718 111.073C254.697 110.878 254.722 110.682 254.79 110.5C254.891 110.27 255.061 110.08 255.275 109.956C255.489 109.833 255.736 109.783 255.98 109.814C256.2 109.816 256.414 109.885 256.596 110.012C256.778 110.139 256.92 110.318 257.003 110.527C257.086 110.735 257.108 110.965 257.064 111.186C257.021 111.407 256.915 111.61 256.76 111.769C256.31 112.261 255.84 112.097 255.88 112.036Z" fill="#263238"/>
<path d="M242.75 106.076C242.75 105.994 243.09 105.964 243.32 105.564C243.384 105.46 243.427 105.344 243.446 105.223C243.465 105.101 243.459 104.977 243.43 104.858C243.377 104.73 243.289 104.621 243.177 104.543C243.066 104.465 242.935 104.422 242.8 104.417C242.667 104.4 242.531 104.422 242.411 104.482C242.29 104.542 242.189 104.637 242.12 104.755C242.073 104.867 242.048 104.987 242.048 105.109C242.048 105.23 242.073 105.35 242.12 105.462C242.29 105.902 242.63 105.984 242.61 106.066C242.59 106.148 242.15 106.22 241.78 105.656C241.647 105.475 241.571 105.257 241.56 105.03C241.549 104.803 241.605 104.579 241.72 104.385C241.835 104.191 242.004 104.037 242.206 103.942C242.407 103.848 242.631 103.817 242.85 103.854C243.095 103.865 243.331 103.954 243.523 104.111C243.715 104.267 243.854 104.482 243.92 104.725C243.959 104.916 243.952 105.114 243.902 105.303C243.852 105.492 243.758 105.665 243.63 105.81C243.18 106.301 242.71 106.148 242.75 106.076Z" fill="#263238"/>
<path d="M229.769 112.036C229.769 111.954 230.109 111.923 230.339 111.524C230.404 111.42 230.447 111.304 230.466 111.182C230.485 111.061 230.479 110.936 230.449 110.817C230.396 110.69 230.309 110.581 230.197 110.503C230.085 110.425 229.954 110.381 229.819 110.377C229.686 110.359 229.551 110.382 229.43 110.442C229.309 110.502 229.208 110.597 229.139 110.715C229.092 110.826 229.068 110.946 229.068 111.068C229.068 111.189 229.092 111.31 229.139 111.421C229.309 111.851 229.649 111.944 229.629 112.025C229.609 112.107 229.169 112.169 228.799 111.616C228.667 111.434 228.59 111.216 228.579 110.99C228.569 110.763 228.625 110.538 228.74 110.345C228.855 110.151 229.024 109.997 229.225 109.902C229.426 109.807 229.651 109.777 229.869 109.814C230.115 109.824 230.35 109.914 230.543 110.07C230.735 110.227 230.874 110.442 230.939 110.684C230.978 110.876 230.972 111.074 230.922 111.262C230.871 111.451 230.778 111.625 230.649 111.769C230.199 112.261 229.729 112.097 229.769 112.036Z" fill="#263238"/>
<path d="M241.088 161.413L242.258 221.327C242.277 222.159 242.617 222.95 243.203 223.526C243.79 224.102 244.576 224.416 245.388 224.399C246.178 224.381 246.931 224.052 247.49 223.479C248.049 222.907 248.371 222.136 248.388 221.327C248.508 210.534 248.898 174.223 248.958 161.352C248.961 160.771 248.84 160.197 248.605 159.668C248.369 159.139 248.025 158.669 247.596 158.29C247.166 157.91 246.662 157.631 246.117 157.47C245.572 157.309 244.999 157.271 244.438 157.358C243.495 157.504 242.636 157.996 242.02 158.742C241.404 159.487 241.073 160.437 241.088 161.413Z" fill="#407BFF"/>
<g opacity="0.3">
<path d="M241.088 161.413L242.258 221.327C242.277 222.159 242.617 222.95 243.203 223.526C243.79 224.102 244.576 224.416 245.388 224.399C246.178 224.381 246.931 224.052 247.49 223.479C248.049 222.907 248.371 222.136 248.388 221.327C248.508 210.534 248.898 174.223 248.958 161.352C248.961 160.771 248.84 160.197 248.605 159.668C248.369 159.139 248.025 158.669 247.596 158.29C247.166 157.91 246.662 157.631 246.117 157.47C245.572 157.309 244.999 157.271 244.438 157.358C243.495 157.504 242.636 157.996 242.02 158.742C241.404 159.487 241.073 160.437 241.088 161.413Z" fill="black"/>
</g>
<path d="M242.9 51.8144C243.07 52.0192 241.13 53.9443 238.3 57.3235C236.88 59.0029 235.3 61.0918 233.63 63.4675C231.854 66.0743 230.218 68.7783 228.73 71.5673C227.279 74.373 225.981 77.2582 224.84 80.2099C223.84 82.944 222.99 85.4528 222.4 87.5929C221.21 91.8733 220.71 94.5971 220.4 94.5561C220.09 94.5152 220.29 91.7299 221.21 87.296C221.761 84.7049 222.476 82.1532 223.35 79.6569C224.432 76.5991 225.722 73.6222 227.21 70.7481C228.738 67.9046 230.448 65.1679 232.33 62.5561C233.883 60.4324 235.57 58.4143 237.38 56.5145C240.53 53.248 242.77 51.6608 242.9 51.8144Z" fill="white"/>
<path d="M215.77 163.256C215.93 163.512 213.16 165.304 209.3 169.011L207.81 170.465C207.29 170.977 206.81 171.561 206.27 172.124C205.18 173.25 204.16 174.582 203.05 175.944C200.733 178.972 198.675 182.199 196.9 185.59C195.17 189.009 193.725 192.571 192.58 196.239C192.11 197.939 191.58 199.557 191.32 201.103C191.16 201.882 190.97 202.619 190.85 203.346C190.73 204.073 190.62 204.759 190.52 205.394C189.74 210.729 189.81 214.098 189.52 214.108C189.4 214.108 189.29 213.279 189.19 211.743C189.19 211.354 189.14 210.923 189.12 210.463C189.1 210.002 189.12 209.49 189.12 208.947C189.128 207.712 189.198 206.478 189.33 205.25C189.4 204.564 189.48 203.848 189.56 203.1C189.64 202.353 189.81 201.585 189.94 200.796C190.19 199.188 190.64 197.519 191.09 195.758C193.213 188.119 196.875 181.021 201.84 174.92C202.917 173.592 204.059 172.321 205.26 171.11C205.82 170.547 206.35 169.974 206.9 169.482L208.5 168.079C209.417 167.273 210.375 166.518 211.37 165.816C211.8 165.499 212.2 165.192 212.58 164.936L213.65 164.28C215 163.533 215.7 163.154 215.77 163.256Z" fill="white"/>
<path d="M172.729 358.615C171.384 357.834 170.305 356.649 169.638 355.221C168.971 353.792 168.748 352.188 168.998 350.626C169.249 349.063 169.962 347.617 171.04 346.482C172.119 345.347 173.511 344.578 175.029 344.279C177.769 343.726 181.199 344.525 182.919 342.231C184.489 340.183 183.309 337.48 183.999 334.203C184.689 330.926 187.439 329.38 190.469 329.421C191.988 329.511 193.46 329.994 194.747 330.825C196.034 331.656 197.095 332.808 197.829 334.172C199.452 337.206 200.184 340.655 199.939 344.105C199.129 351.181 195.439 354.806 190.849 357.806C186.259 360.806 177.569 361.492 172.729 358.553" fill="#407BFF"/>
<g opacity="0.8">
<path d="M172.729 358.615C171.384 357.834 170.305 356.649 169.638 355.221C168.971 353.792 168.748 352.188 168.998 350.626C169.249 349.063 169.962 347.617 171.04 346.482C172.119 345.347 173.511 344.578 175.029 344.279C177.769 343.726 181.199 344.525 182.919 342.231C184.489 340.183 183.309 337.48 183.999 334.203C184.689 330.926 187.439 329.38 190.469 329.421C191.988 329.511 193.46 329.994 194.747 330.825C196.034 331.656 197.095 332.808 197.829 334.172C199.452 337.206 200.184 340.655 199.939 344.105C199.129 351.181 195.439 354.806 190.849 357.806C186.259 360.806 177.569 361.492 172.729 358.553" fill="white"/>
</g>
<path d="M284.92 301.896C286.034 299.713 287.774 297.931 289.905 296.788C292.036 295.646 294.457 295.198 296.844 295.504C299.231 295.811 301.47 296.857 303.26 298.502C305.05 300.148 306.306 302.314 306.86 304.712C307.86 309.064 306.86 314.573 310.39 317.204C313.6 319.59 317.66 317.532 322.7 318.433C327.74 319.334 330.26 323.635 330.37 328.489C330.48 333.343 327.58 337.951 323.57 340.531C319.046 343.303 313.838 344.682 308.57 344.504C297.74 343.634 291.99 337.951 287.14 330.803C282.29 323.656 280.73 309.801 284.92 301.896Z" fill="#407BFF"/>
<g opacity="0.8">
<path d="M284.92 301.896C286.034 299.713 287.774 297.931 289.905 296.788C292.036 295.646 294.457 295.198 296.844 295.504C299.231 295.811 301.47 296.857 303.26 298.502C305.05 300.148 306.306 302.314 306.86 304.712C307.86 309.064 306.86 314.573 310.39 317.204C313.6 319.59 317.66 317.532 322.7 318.433C327.74 319.334 330.26 323.635 330.37 328.489C330.48 333.343 327.58 337.951 323.57 340.531C319.046 343.303 313.838 344.682 308.57 344.504C297.74 343.634 291.99 337.951 287.14 330.803C282.29 323.656 280.73 309.801 284.92 301.896Z" fill="white"/>
</g>
<path d="M204.109 287.375C202.904 288.01 201.893 288.973 201.187 290.158C200.481 291.343 200.108 292.705 200.109 294.093C200.16 295.635 200.694 297.119 201.634 298.325C202.574 299.53 203.869 300.394 205.326 300.786C206.783 301.178 208.324 301.079 209.722 300.502C211.119 299.925 212.298 298.902 213.082 297.585C213.866 296.268 214.215 294.727 214.075 293.191C213.936 291.655 213.317 290.205 212.309 289.059C211.301 287.912 209.959 287.129 208.482 286.825C207.004 286.522 205.471 286.715 204.109 287.375Z" fill="#407BFF"/>
<g opacity="0.8">
<path d="M204.109 287.375C202.904 288.01 201.893 288.973 201.187 290.158C200.481 291.343 200.108 292.705 200.109 294.093C200.16 295.635 200.694 297.119 201.634 298.325C202.574 299.53 203.869 300.394 205.326 300.786C206.783 301.178 208.324 301.079 209.722 300.502C211.119 299.925 212.298 298.902 213.082 297.585C213.866 296.268 214.215 294.727 214.075 293.191C213.936 291.655 213.317 290.205 212.309 289.059C211.301 287.912 209.959 287.129 208.482 286.825C207.004 286.522 205.471 286.715 204.109 287.375Z" fill="white"/>
</g>
<path d="M310.43 373.248C309.829 373.567 309.325 374.049 308.972 374.641C308.62 375.233 308.432 375.913 308.43 376.606C308.454 377.38 308.721 378.125 309.191 378.731C309.662 379.337 310.311 379.771 311.042 379.968C311.773 380.166 312.547 380.117 313.248 379.828C313.95 379.538 314.541 379.025 314.935 378.364C315.328 377.703 315.503 376.93 315.433 376.159C315.363 375.388 315.051 374.661 314.545 374.086C314.039 373.511 313.365 373.119 312.623 372.968C311.882 372.817 311.112 372.915 310.43 373.248Z" fill="#407BFF"/>
<g opacity="0.8">
<path d="M310.43 373.248C309.829 373.567 309.325 374.049 308.972 374.641C308.62 375.233 308.432 375.913 308.43 376.606C308.454 377.38 308.721 378.125 309.191 378.731C309.662 379.337 310.311 379.771 311.042 379.968C311.773 380.166 312.547 380.117 313.248 379.828C313.95 379.538 314.541 379.025 314.935 378.364C315.328 377.703 315.503 376.93 315.433 376.159C315.363 375.388 315.051 374.661 314.545 374.086C314.039 373.511 313.365 373.119 312.623 372.968C311.882 372.817 311.112 372.915 310.43 373.248Z" fill="white"/>
</g>
<path d="M282.58 345.221H220.42C209.518 345.221 200.68 354.271 200.68 365.435V368.271C200.68 379.435 209.518 388.485 220.42 388.485H282.58C293.482 388.485 302.32 379.435 302.32 368.271V365.435C302.32 354.271 293.482 345.221 282.58 345.221Z" fill="#407BFF"/>
<path d="M231.07 369.715L231.76 368.148C232.609 368.752 233.616 369.081 234.65 369.09C235.85 369.09 236.34 368.681 236.34 368.128C236.34 366.448 231.24 367.595 231.24 364.267C231.24 362.742 232.45 361.472 234.94 361.472C235.991 361.456 237.027 361.728 237.94 362.26L237.32 363.837C236.582 363.396 235.745 363.157 234.89 363.141C233.68 363.141 233.22 363.602 233.22 364.165C233.22 365.814 238.32 364.677 238.32 367.974C238.32 369.469 237.1 370.76 234.6 370.76C233.348 370.782 232.118 370.418 231.07 369.715Z" fill="white"/>
<path d="M241.439 363.315H238.629V361.625H246.269V363.315H243.469V370.606H241.469L241.439 363.315Z" fill="white"/>
<path d="M252.69 368.64H248.62L247.85 370.565H245.77L249.67 361.584H251.67L255.59 370.565H253.46L252.69 368.64ZM252.05 367.063L250.66 363.622L249.27 367.063H252.05Z" fill="white"/>
<path d="M262.099 370.606L260.399 368.097H258.539V370.606H256.539V361.625H260.339C262.679 361.625 264.139 362.865 264.139 364.882C264.162 365.487 264.002 366.085 263.679 366.593C263.357 367.101 262.889 367.494 262.339 367.718L264.339 370.606H262.099ZM260.189 363.315H258.539V366.449H260.189C261.429 366.449 262.059 365.855 262.059 364.882C262.059 363.909 261.429 363.315 260.189 363.315Z" fill="white"/>
<path d="M267.4 363.315H264.6V361.625H272.24V363.315H269.43V370.606H267.43L267.4 363.315Z" fill="white"/>
<path d="M405.18 469.76L417 474.01L416.87 485.643C411.21 487.281 410.42 490.21 410.42 490.21L422.25 489.933L432.54 468.501L424.4 463.053L409.18 456.233" fill="#407BFF"/>
<g opacity="0.6">
<path d="M432.54 468.501L422.25 489.933L410.42 490.21L411.71 488.356L421.32 487.588L430.81 467.344L432.54 468.501Z" fill="white"/>
</g>
<path d="M416.83 480.318C416.92 480.441 417.59 480.021 418.51 480.031C419.43 480.041 420.1 480.41 420.19 480.287C420.28 480.164 419.62 479.478 418.51 479.498C417.4 479.519 416.72 480.256 416.83 480.318Z" fill="#263238"/>
<path d="M417.001 477.43C417.121 477.512 417.631 476.785 418.571 476.57C419.511 476.355 420.271 476.785 420.341 476.662C420.411 476.539 420.241 476.406 419.911 476.222C419.458 476.001 418.945 475.943 418.456 476.056C417.966 476.169 417.528 476.448 417.211 476.846C416.941 477.184 416.901 477.389 417.001 477.43Z" fill="#263238"/>
<path d="M416.801 473.723C416.931 473.785 417.321 473.078 418.141 472.771C418.961 472.464 419.701 472.72 419.761 472.576C419.821 472.433 419.631 472.351 419.301 472.239C418.861 472.085 418.384 472.094 417.949 472.262C417.515 472.43 417.152 472.748 416.921 473.16C416.751 473.467 416.741 473.703 416.801 473.723Z" fill="#263238"/>
<path d="M415.93 473.713C416.08 473.713 415.99 472.914 416.34 472.095C416.69 471.276 417.27 470.805 417.2 470.672C417.13 470.539 416.28 470.876 415.86 471.89C415.44 472.904 415.8 473.785 415.93 473.713Z" fill="#263238"/>
<path d="M414.53 472.351C414.705 471.826 414.8 471.277 414.81 470.723C414.86 470.139 414.91 469.555 414.97 468.951C415.021 468.578 415.021 468.199 414.97 467.825C414.909 467.577 414.759 467.361 414.55 467.221C414.43 467.14 414.289 467.097 414.145 467.097C414.001 467.097 413.861 467.14 413.74 467.221C413.42 467.506 413.188 467.879 413.07 468.296C412.949 468.649 412.879 469.018 412.86 469.392C412.825 470.019 412.931 470.646 413.17 471.225C413.59 472.249 414.17 472.566 414.17 472.525C413.91 472.062 413.676 471.583 413.47 471.091C413.303 470.556 413.242 469.992 413.29 469.433C413.325 469.107 413.399 468.787 413.51 468.48C413.599 468.17 413.764 467.887 413.99 467.661C414.026 467.634 414.07 467.619 414.115 467.619C414.16 467.619 414.204 467.634 414.24 467.661C414.338 467.725 414.409 467.823 414.44 467.938C414.476 468.257 414.476 468.58 414.44 468.9C414.44 469.504 414.44 470.098 414.39 470.682C414.349 471.242 414.396 471.806 414.53 472.351Z" fill="#263238"/>
<path d="M414.34 472.883C414.39 472.883 414.04 472.32 413.13 472.013C412.515 471.823 411.857 471.839 411.252 472.06C410.648 472.282 410.128 472.696 409.77 473.242C409.744 473.319 409.735 473.402 409.743 473.483C409.752 473.565 409.778 473.643 409.82 473.713C409.894 473.83 410.003 473.919 410.13 473.969C410.31 474.035 410.499 474.073 410.69 474.081C411.023 474.115 411.358 474.115 411.69 474.081C412.228 474.032 412.755 473.894 413.25 473.672C414.1 473.293 414.49 472.853 414.45 472.812C414.41 472.771 413.95 473.057 413.13 473.324C412.651 473.481 412.153 473.571 411.65 473.59C411.361 473.615 411.07 473.615 410.78 473.59C410.644 473.58 410.51 473.552 410.38 473.508C410.28 473.447 410.31 473.457 410.31 473.426C410.365 473.314 410.444 473.216 410.54 473.139C410.647 473.032 410.765 472.936 410.89 472.853C411.122 472.686 411.379 472.558 411.65 472.474C412.114 472.33 412.605 472.305 413.08 472.402C413.511 472.531 413.932 472.692 414.34 472.883Z" fill="#263238"/>
<g opacity="0.6">
<path d="M423.1 468.357C423.104 468.545 423.144 468.731 423.218 468.904C423.292 469.076 423.398 469.232 423.531 469.362C423.664 469.492 423.821 469.594 423.992 469.663C424.163 469.731 424.346 469.764 424.53 469.76C424.714 469.756 424.895 469.715 425.063 469.639C425.232 469.563 425.384 469.454 425.511 469.318C425.638 469.182 425.738 469.022 425.805 468.847C425.872 468.671 425.904 468.484 425.9 468.296C425.896 468.108 425.856 467.922 425.782 467.75C425.708 467.577 425.601 467.421 425.469 467.291C425.336 467.161 425.179 467.059 425.008 466.99C424.837 466.922 424.654 466.889 424.47 466.893C424.286 466.897 424.105 466.938 423.936 467.014C423.768 467.09 423.616 467.199 423.489 467.335C423.362 467.47 423.262 467.631 423.195 467.806C423.128 467.982 423.096 468.169 423.1 468.357Z" fill="white"/>
</g>
<path d="M344.54 464.896L344.7 480.748C344.7 480.748 329.01 486.247 328.76 489.176L358.76 489.964L359.5 465.245L344.54 464.896Z" fill="#407BFF"/>
<g opacity="0.6">
<path d="M354.002 479.662C354.287 479.761 354.527 479.964 354.677 480.232C354.826 480.5 354.874 480.814 354.812 481.116C354.725 481.412 354.533 481.663 354.273 481.818C354.013 481.974 353.705 482.023 353.412 481.956C353.108 481.85 352.854 481.635 352.695 481.35C352.537 481.065 352.486 480.731 352.552 480.41C352.672 480.108 352.902 479.866 353.192 479.735C353.483 479.603 353.813 479.592 354.112 479.703" fill="white"/>
</g>
<g opacity="0.6">
<path d="M358.8 489.964V487.465L330.01 487.65C330.01 487.65 328.65 488.203 328.78 489.175L358.8 489.964Z" fill="white"/>
</g>
<path d="M344.211 480.584C344.211 480.727 344.951 480.82 345.661 481.321C346.371 481.823 346.731 482.468 346.871 482.407C347.011 482.345 346.811 481.475 345.941 480.891C345.071 480.308 344.191 480.441 344.211 480.584Z" fill="#263238"/>
<path d="M341 481.833C341 481.976 341.59 482.253 342.07 482.857C342.55 483.461 342.68 484.178 342.83 484.178C342.98 484.178 343.09 483.328 342.48 482.529C341.87 481.731 341 481.69 341 481.833Z" fill="#263238"/>
<path d="M339.142 485.643C339.282 485.643 339.502 484.936 339.142 484.107C338.782 483.277 338.142 482.929 338.042 483.083C337.942 483.236 338.392 483.656 338.682 484.342C338.972 485.028 339.002 485.632 339.142 485.643Z" fill="#263238"/>
<path d="M344.571 476.959C344.631 477.103 345.301 476.959 346.131 476.959C346.961 476.959 347.601 477.328 347.681 477.195C347.761 477.062 347.151 476.519 346.171 476.437C345.191 476.355 344.501 476.847 344.571 476.959Z" fill="#263238"/>
<g opacity="0.3">
<path d="M344.57 468.03L344.6 470.856L359.36 471.112L359.44 468.562L344.57 468.03Z" fill="black"/>
</g>
<path d="M344.59 473.764C345.084 473.905 345.606 473.905 346.1 473.764C346.643 473.681 347.173 473.53 347.68 473.314C347.983 473.184 348.277 473.034 348.56 472.863C348.732 472.776 348.888 472.658 349.02 472.515C349.119 472.411 349.182 472.276 349.199 472.131C349.215 471.987 349.184 471.841 349.11 471.716C349.038 471.611 348.945 471.524 348.835 471.462C348.726 471.4 348.605 471.365 348.48 471.358C348.288 471.354 348.097 471.375 347.91 471.419C347.588 471.491 347.273 471.594 346.97 471.727C346.457 471.946 345.982 472.247 345.56 472.617C344.84 473.263 344.56 473.815 344.64 473.846C344.72 473.877 345.06 473.437 345.78 472.914C346.199 472.607 346.656 472.359 347.14 472.177C347.423 472.068 347.714 471.982 348.01 471.921C348.33 471.849 348.6 471.849 348.68 472.003C348.76 472.157 348.68 472.075 348.68 472.167C348.582 472.272 348.467 472.359 348.34 472.423C348.07 472.597 347.8 472.74 347.54 472.873C347.065 473.092 346.573 473.27 346.07 473.406C345.568 473.484 345.073 473.604 344.59 473.764Z" fill="#263238"/>
<path d="M344.78 473.989C345.07 473.552 345.221 473.033 345.21 472.505C345.255 471.936 345.201 471.364 345.05 470.815C344.965 470.488 344.844 470.172 344.69 469.873C344.615 469.667 344.488 469.484 344.324 469.342C344.159 469.2 343.962 469.105 343.75 469.064C343.615 469.063 343.483 469.103 343.37 469.177C343.256 469.252 343.166 469.358 343.11 469.484C343.031 469.66 342.973 469.846 342.94 470.037C342.892 470.376 342.892 470.721 342.94 471.061C343.003 471.64 343.21 472.194 343.54 472.668C344.11 473.477 344.71 473.692 344.73 473.621C344.75 473.549 344.27 473.242 343.84 472.464C343.595 472.016 343.445 471.521 343.4 471.01C343.377 470.712 343.394 470.412 343.45 470.119C343.51 469.791 343.63 469.535 343.75 469.566C343.87 469.596 344.15 469.822 344.27 470.088C344.408 470.358 344.525 470.639 344.62 470.928C344.772 471.429 344.857 471.949 344.87 472.474C344.87 473.406 344.7 473.959 344.78 473.989Z" fill="#263238"/>
<path d="M414.361 456.817L379.771 443.648L416.131 438.416L417.961 420.281L349.971 426.353L340.371 440.515L342.891 458.271L409.141 475.515L414.361 456.817Z" fill="#263238"/>
<path d="M341.001 469.504L337.691 404.685C337.781 401.581 338.644 398.552 340.198 395.885C341.753 393.219 343.946 391.003 346.571 389.448C348.753 388.153 351.178 387.347 353.686 387.084C356.195 386.821 358.729 387.107 361.121 387.922L405.231 402.985L429.441 409.365C429.441 409.365 433.571 419.779 431.141 427.868C428.771 435.794 420.291 441.068 412.831 438.805C403.561 435.989 361.021 417.301 361.021 417.301V470.016L341.001 469.504Z" fill="#263238"/>
<path d="M412.211 438.969L411.951 438.887L411.191 438.59L408.301 437.402L397.691 432.968L362.741 418.202L360.961 417.444L361.251 417.25C361.251 431.923 361.201 445.102 361.181 454.656C361.181 459.397 361.181 463.237 361.121 465.92C361.121 467.221 361.121 468.245 361.121 468.992C361.121 469.32 361.121 469.586 361.121 469.781C361.136 469.872 361.136 469.966 361.121 470.057C361.112 469.965 361.112 469.873 361.121 469.781V468.992C361.121 468.265 361.121 467.241 361.121 465.92C361.121 463.237 361.121 459.397 361.061 454.656C361.061 445.102 361.061 431.923 361.001 417.25V416.942L361.281 417.055L363.061 417.813L397.961 432.691L408.361 437.248L411.221 438.508L411.961 438.846L412.211 438.969Z" fill="#455A64"/>
<path d="M371.471 439.05C374.67 439.624 377.589 441.279 379.761 443.75C379.671 443.843 378.101 442.348 375.761 441.047C373.421 439.747 371.431 439.173 371.471 439.05Z" fill="#455A64"/>
<path d="M357.2 408.484C358.15 409.843 358.936 411.314 359.54 412.867C360.263 414.363 360.813 415.94 361.18 417.567C361.07 417.567 360.26 415.519 359.18 413.041C358.1 410.563 357.1 408.576 357.2 408.484Z" fill="#455A64"/>
<path d="M357.301 379.925L349.501 378.43L341.311 386.99L342.821 392.448L352.371 388.844L357.301 379.925Z" fill="#FFBE9D"/>
<path d="M285.231 360.387L294.101 358.339L308.381 360.622L307.831 369.951C307.831 369.951 303.401 370.606 301.831 370.074C300.885 369.756 299.868 369.735 298.911 370.012C298.911 370.012 299.781 371.845 298.281 372.142C296.781 372.439 294.331 373.084 293.871 370.914C293.494 370.937 293.121 370.825 292.816 370.597C292.511 370.369 292.293 370.039 292.201 369.664C292.201 369.664 291.041 370.094 290.521 368.016C290.001 365.937 290.301 362.814 294.311 361.82C294.521 361.769 294.621 361.278 294.221 361.298L287.881 362.517C287.881 362.517 283.621 362.711 285.231 360.387Z" fill="#FFBE9D"/>
<path d="M292.781 366.889C293.271 366.734 293.779 366.641 294.291 366.613C294.847 366.527 295.408 366.475 295.971 366.459C296.161 366.462 296.349 366.507 296.521 366.59C296.694 366.673 296.847 366.792 296.971 366.94C297.095 367.122 297.166 367.335 297.176 367.556C297.187 367.777 297.137 367.997 297.031 368.19C296.822 368.497 296.554 368.756 296.242 368.952C295.931 369.147 295.583 369.275 295.221 369.326C294.682 369.483 294.134 369.606 293.581 369.695C293.073 369.797 292.55 369.797 292.041 369.695C292.531 369.559 293.029 369.453 293.531 369.377C293.991 369.275 294.531 369.132 295.121 368.937C295.421 368.861 295.715 368.761 296.001 368.64C296.288 368.499 296.528 368.275 296.691 367.995C296.765 367.87 296.804 367.727 296.804 367.58C296.804 367.434 296.765 367.291 296.691 367.166C296.504 366.952 296.241 366.823 295.961 366.807C295.391 366.807 294.801 366.869 294.331 366.879C293.817 366.949 293.296 366.952 292.781 366.889Z" fill="#EB996E"/>
<path d="M294.301 364.882C294.301 364.995 293.861 365.23 293.521 365.773C293.181 366.316 293.131 366.848 293.021 366.859C292.911 366.869 292.771 366.203 293.201 365.548C293.631 364.892 294.301 364.78 294.301 364.882Z" fill="#EB996E"/>
<path d="M296.74 368.21C296.74 368.21 296.83 368.21 296.97 368.21C297.11 368.21 297.27 368.507 297.39 368.701C297.484 368.852 297.546 369.02 297.572 369.197C297.598 369.374 297.587 369.554 297.54 369.725C297.469 369.93 297.347 370.112 297.185 370.252C297.023 370.392 296.828 370.486 296.62 370.524C295.983 370.727 295.331 370.878 294.67 370.975C294.16 371.026 293.84 370.975 293.84 370.924C293.84 370.872 294.15 370.821 294.63 370.698C295.11 370.575 295.77 370.36 296.51 370.156C296.661 370.131 296.804 370.069 296.926 369.974C297.048 369.879 297.146 369.755 297.21 369.613C297.307 369.367 297.307 369.091 297.21 368.845C297.09 368.589 297.05 368.425 296.95 368.343C296.85 368.261 296.72 368.23 296.74 368.21Z" fill="#EB996E"/>
<path d="M297.33 369.797C297.33 369.797 297.43 369.613 297.71 369.572C298.063 369.548 298.413 369.642 298.71 369.838C298.862 369.947 298.987 370.091 299.076 370.258C299.164 370.425 299.214 370.611 299.22 370.801C299.22 371.067 299.22 371.231 299.13 371.231C299.04 371.231 299.03 371.077 298.95 370.852C298.88 370.583 298.726 370.346 298.51 370.176C298.27 370.016 298.002 369.904 297.72 369.848C297.5 369.808 297.36 369.849 297.33 369.797Z" fill="#EB996E"/>
<path d="M301.75 362.547L297.75 364.176L294 366.899C294 366.899 294 367.841 296.13 367.493C297.47 367.263 298.75 366.755 299.89 365.998C299.89 365.998 302.68 367.8 305.15 367.381" fill="#FFBE9D"/>
<path d="M305.111 367.381C305.111 367.381 304.981 367.432 304.721 367.483C304.343 367.526 303.96 367.526 303.581 367.483C302.23 367.312 300.928 366.852 299.762 366.131H299.941C298.544 367.098 296.916 367.657 295.232 367.749C294.947 367.759 294.662 367.717 294.392 367.626C294.23 367.577 294.086 367.482 293.976 367.351C293.866 367.22 293.795 367.06 293.771 366.889V366.797L293.852 366.736L297.651 364.032C298.881 363.551 299.892 363.162 300.602 362.906C300.962 362.748 301.337 362.628 301.721 362.547C301.385 362.758 301.03 362.937 300.661 363.08C299.971 363.387 298.982 363.817 297.762 364.329L294.001 367.084L294.081 366.92C294.081 367.043 294.252 367.217 294.452 367.288C294.68 367.366 294.921 367.401 295.161 367.391C296.771 367.298 298.33 366.775 299.681 365.875L299.781 365.814H299.871C300.991 366.529 302.233 367.02 303.531 367.258C304.055 367.337 304.583 367.378 305.111 367.381Z" fill="#EB996E"/>
<path d="M295.931 362.343C295.931 362.455 295.461 362.445 295.001 362.158C294.541 361.872 294.311 361.452 294.391 361.39C294.471 361.329 294.791 361.575 295.191 361.82C295.591 362.066 296.001 362.24 295.931 362.343Z" fill="#EB996E"/>
<path d="M307.611 372.419L341.471 377.457C344.835 378.545 348.481 378.232 351.621 376.587L381.781 360.745L372.781 340.357C371.617 340.766 370.481 341.255 369.381 341.822L344.571 360.131L308.571 358.841L307.611 372.419Z" fill="#407BFF"/>
<path d="M428.791 409.211L426.631 405.33L403.551 399.412L406.271 404.224L428.791 409.211Z" fill="#FFBE9D"/>
<path d="M372.751 340.357C372.751 341.176 369.361 366.838 369.361 372.101C369.361 377.365 379.161 383.027 379.161 383.027L389.891 406.364H428.121L415.051 381.235L409.141 361.103C406.901 353.485 407.141 349.542 401.591 343.962L390.901 336.589L372.751 340.357Z" fill="#407BFF"/>
<path d="M383.851 360.612L390.271 388.199L357.891 378.88L352.371 388.875L394.501 408.515C397.02 409.688 399.861 409.921 402.529 409.172C405.198 408.424 407.527 406.742 409.111 404.419C410.09 402.985 410.755 401.352 411.061 399.63C411.366 397.909 411.305 396.14 410.881 394.445L401.451 356.711C401.146 355.48 400.595 354.328 399.834 353.325C399.073 352.323 398.118 351.493 397.029 350.886C395.94 350.279 394.74 349.91 393.505 349.8C392.27 349.69 391.026 349.843 389.851 350.249C387.803 350.952 386.07 352.385 384.969 354.288C383.867 356.19 383.47 358.435 383.851 360.612Z" fill="#407BFF"/>
<path d="M379.761 384.307C379.482 383.783 379.147 383.292 378.761 382.843C378.521 382.72 378.181 382.536 377.761 382.28C376.523 381.566 375.337 380.761 374.211 379.873C372.486 378.586 371.059 376.925 370.031 375.009C369.031 372.716 369.031 369.889 369.441 367.125C369.851 364.36 370.441 361.738 370.721 359.332C371.001 356.926 371.331 354.765 371.461 352.942C371.591 351.119 371.621 349.635 371.621 348.611C371.621 347.587 371.621 347.013 371.621 347.013C371.662 347.146 371.686 347.284 371.691 347.423C371.691 347.689 371.751 348.088 371.781 348.6C371.855 350.053 371.855 351.51 371.781 352.963C371.691 354.796 371.471 356.987 371.131 359.393C370.791 361.8 370.271 364.421 369.881 367.186C369.491 369.951 369.441 372.664 370.401 374.845C371.387 376.716 372.751 378.349 374.401 379.638C375.505 380.539 376.657 381.377 377.851 382.147C378.605 382.748 379.252 383.479 379.761 384.307Z" fill="#263238"/>
<path d="M392.642 338.412C392.475 338.662 392.276 338.89 392.051 339.087C391.661 339.497 391.051 340.111 390.341 340.777C388.871 342.18 386.781 344.064 384.341 346.03C381.901 347.996 379.702 349.676 378.042 350.843C377.212 351.427 376.532 351.867 376.042 352.184C375.803 352.362 375.545 352.51 375.271 352.625C375.479 352.411 375.707 352.219 375.952 352.051L377.861 350.597C379.471 349.379 381.691 347.669 384.081 345.702C386.471 343.736 388.581 341.903 390.081 340.582L391.882 338.985C392.112 338.764 392.367 338.571 392.642 338.412Z" fill="#263238"/>
<path d="M383.85 360.612C383.92 360.784 383.974 360.962 384.01 361.145C384.11 361.527 384.24 362.039 384.4 362.681C384.74 364.063 385.21 366.009 385.8 368.436C386.97 373.371 388.6 380.253 390.46 388.148L390.54 388.486L390.22 388.393L382 386.048L357.89 379.034L358.06 378.962L353.97 386.233L352.83 388.199L352.53 388.701C352.46 388.823 352.42 388.875 352.41 388.875C352.429 388.807 352.456 388.742 352.49 388.68L352.76 388.158L353.82 386.11L357.82 378.768L357.88 378.665H357.99L382.13 385.567L390.39 387.963L390.14 388.199C388.33 380.294 386.75 373.402 385.61 368.456C385.07 366.019 384.61 364.053 384.33 362.671C384.19 362.015 384.08 361.503 384 361.114C383.938 360.951 383.888 360.783 383.85 360.612Z" fill="#263238"/>
<path d="M401.59 358.892C401.664 359.044 401.717 359.206 401.75 359.373C401.85 359.731 401.97 360.182 402.13 360.745L403.43 365.865C404.5 370.207 405.97 376.105 407.58 382.669C408.37 385.956 409.15 389.079 409.81 391.946C410.466 394.482 410.673 397.118 410.42 399.729C410.216 401.495 409.598 403.185 408.62 404.654C408.268 405.195 407.829 405.669 407.32 406.057C407.738 405.585 408.126 405.086 408.48 404.562C409.397 403.092 409.966 401.423 410.14 399.688C410.342 397.112 410.105 394.521 409.44 392.028C408.74 389.182 407.98 386.058 407.18 382.812L403.18 365.978L402 360.858L401.7 359.465C401.647 359.277 401.61 359.086 401.59 358.892Z" fill="#263238"/>
<g opacity="0.3">
<path d="M407.471 406.344C412.211 406.784 414.961 404.019 415.471 400.2C415.583 398.096 415.22 395.993 414.411 394.056C411.501 385.331 408.561 376.535 403.951 368.609C405.691 376.535 407.951 384.143 409.661 392.069C410.213 394.272 410.459 396.544 410.391 398.817C410.283 401.59 409.253 404.242 407.471 406.334" fill="black"/>
</g>
<path d="M368.602 366.592C367.873 365.959 367.228 365.233 366.682 364.431C365.286 362.564 364.095 360.545 363.132 358.41C362.166 356.272 361.438 354.029 360.962 351.724C360.722 350.777 360.602 349.803 360.602 348.826C360.891 349.747 361.131 350.684 361.322 351.631C361.895 353.879 362.658 356.072 363.602 358.185C364.552 360.291 365.683 362.306 366.982 364.206C368.002 365.711 368.662 366.592 368.602 366.592Z" fill="#FAFAFA"/>
<path d="M359.321 372.255C358.74 371.57 358.231 370.826 357.801 370.033C356.921 368.62 355.801 366.633 354.581 364.391C353.361 362.148 352.381 360.08 351.701 358.564C351.283 357.766 350.948 356.925 350.701 356.055C351.206 356.793 351.641 357.578 352.001 358.4L355.001 364.135C356.151 366.285 357.201 368.231 358.071 369.838C358.556 370.605 358.975 371.413 359.321 372.255Z" fill="#FAFAFA"/>
<path d="M346.551 377.355C345.864 374.66 345.343 371.924 344.991 369.163C344.471 366.427 344.121 363.66 343.941 360.878C344.629 363.573 345.15 366.309 345.501 369.07C346.027 371.806 346.378 374.573 346.551 377.355Z" fill="#FAFAFA"/>
<path d="M335.19 376.566C335.009 375.802 334.921 375.018 334.93 374.231C334.84 372.777 334.79 370.77 334.84 368.548C334.89 366.326 335.04 364.329 335.19 362.886C335.219 362.098 335.344 361.317 335.56 360.561C335.643 361.34 335.643 362.127 335.56 362.906C335.5 364.36 335.42 366.357 335.36 368.559C335.3 370.76 335.3 372.767 335.3 374.221C335.351 375.005 335.314 375.791 335.19 376.566Z" fill="#FAFAFA"/>
<path d="M323.821 359.629C323.998 360.338 324.092 361.067 324.101 361.8C324.201 363.151 324.261 365.025 324.231 367.094C324.201 369.162 324.061 371.036 323.911 372.378C323.886 373.115 323.765 373.845 323.55 374.549C323.4 374.549 323.641 371.2 323.701 367.084C323.761 362.967 323.661 359.639 323.821 359.629Z" fill="#FAFAFA"/>
<path d="M314.481 360.858C314.553 362.945 314.456 365.034 314.191 367.104C314.099 369.19 313.828 371.263 313.381 373.3C313.4 369.128 313.768 364.965 314.481 360.858Z" fill="#FAFAFA"/>
<path d="M370.771 351.386C370.621 351.386 370.021 349.727 369.001 347.781C367.981 345.836 367.001 344.361 367.081 344.269C368.995 346.197 370.284 348.682 370.771 351.386Z" fill="#FAFAFA"/>
<path d="M388.37 379.249C388.118 379.33 387.854 379.361 387.59 379.341C386.873 379.371 386.155 379.354 385.44 379.29C383.075 379.104 380.749 378.573 378.53 377.713C376.306 376.867 374.209 375.706 372.3 374.262C371.723 373.825 371.172 373.354 370.65 372.849C370.28 372.49 370.09 372.286 370.12 372.255C370.15 372.224 371.03 372.931 372.51 373.955C376.401 376.636 380.855 378.337 385.51 378.921C387.25 379.146 388.37 379.157 388.37 379.249Z" fill="#FAFAFA"/>
<path d="M384.721 366.173C384.02 366.204 383.318 366.125 382.641 365.937C380.981 365.616 379.347 365.171 377.751 364.606C376.151 364.048 374.596 363.363 373.101 362.558C372.455 362.271 371.852 361.892 371.311 361.431C371.391 361.288 374.211 362.793 377.921 364.094C381.631 365.394 384.751 366.019 384.721 366.173Z" fill="#FAFAFA"/>
<path d="M382.601 356.772C380.794 356.888 378.984 356.591 377.302 355.902C375.621 355.213 374.111 354.15 372.881 352.789C375.742 354.932 379.085 356.302 382.601 356.772Z" fill="#FAFAFA"/>
<path d="M397.57 350.075C397.52 350.157 396.74 349.614 395.32 349.204C393.47 348.678 391.506 348.754 389.7 349.42C387.905 350.122 386.372 351.387 385.32 353.034C384.5 354.294 384.26 355.226 384.17 355.195C384.257 354.35 384.541 353.538 385 352.829C386.017 351.029 387.614 349.647 389.517 348.92C391.42 348.194 393.51 348.167 395.43 348.846C396.228 349.076 396.962 349.497 397.57 350.075Z" fill="#FAFAFA"/>
<path d="M399.341 362.65C398.832 363.083 398.258 363.429 397.641 363.674C394.752 364.957 391.629 365.593 388.481 365.537C387.83 365.577 387.177 365.501 386.551 365.312C386.551 365.148 389.551 365.312 393.051 364.585C396.551 363.858 399.271 362.496 399.341 362.65Z" fill="#FAFAFA"/>
<path d="M404.461 378.43C402.154 378.928 399.814 379.253 397.461 379.403C395.114 379.724 392.748 379.871 390.381 379.843C392.687 379.34 395.027 379.015 397.381 378.87C399.727 378.548 402.094 378.401 404.461 378.43Z" fill="#FAFAFA"/>
<path d="M409.002 400.292C408.728 400.283 408.458 400.228 408.202 400.128C407.492 399.927 406.794 399.685 406.112 399.401C403.849 398.47 401.687 397.3 399.662 395.91C397.646 394.523 395.704 393.03 393.842 391.435C393.034 390.825 392.285 390.139 391.602 389.387C392.449 389.911 393.252 390.507 394.002 391.168C395.492 392.305 397.542 393.892 399.892 395.49C401.897 396.854 404.003 398.056 406.192 399.084C407.902 399.832 409.002 400.21 409.002 400.292Z" fill="#FAFAFA"/>
<path d="M384.731 403.62C384.564 402.858 384.51 402.074 384.571 401.296C384.65 397.525 385.53 393.817 387.151 390.431C387.443 389.711 387.841 389.041 388.331 388.444C387.327 390.852 386.478 393.326 385.791 395.848C385.276 398.413 384.922 401.009 384.731 403.62Z" fill="#FAFAFA"/>
<path d="M372.541 396.934C372.153 392.637 373.436 388.358 376.111 385.024C375.172 386.888 374.357 388.814 373.671 390.79C373.155 392.808 372.777 394.861 372.541 396.934Z" fill="#FAFAFA"/>
<path d="M365.74 380.59C364.333 382.303 363.088 384.147 362.02 386.099C361.107 388.134 360.387 390.253 359.87 392.428C359.801 391.741 359.851 391.048 360.02 390.38C360.319 388.789 360.834 387.248 361.55 385.802C362.266 384.357 363.178 383.023 364.26 381.84C364.681 381.341 365.181 380.919 365.74 380.59Z" fill="#FAFAFA"/>
<path d="M410.661 366.285C409.912 367.242 408.933 367.984 407.819 368.436C406.706 368.889 405.497 369.037 404.311 368.865C404.311 368.701 405.871 368.661 407.621 367.933C409.371 367.206 410.551 366.172 410.661 366.285Z" fill="#FAFAFA"/>
<path d="M406.08 351.918C405.736 352.947 405.081 353.836 404.21 354.458C403.444 355.215 402.458 355.697 401.4 355.83C401.4 355.687 402.6 355.123 403.88 354.038C405.16 352.953 406 351.826 406.08 351.918Z" fill="#FAFAFA"/>
<path d="M389.75 342.354C390.637 342.892 391.337 343.701 391.75 344.668C392.316 345.556 392.605 346.599 392.58 347.658C392.43 347.658 392.07 346.378 391.29 344.924C390.51 343.47 389.65 342.456 389.75 342.354Z" fill="#FAFAFA"/>
<path d="M414 379.812C413.129 380.611 412.06 381.15 410.91 381.369C409.805 381.75 408.618 381.811 407.48 381.543C407.48 381.389 409 381.328 410.78 380.846C412.56 380.365 413.94 379.679 414 379.812Z" fill="#FAFAFA"/>
<path d="M421 392.418C417.394 393.086 413.735 393.402 410.07 393.36C411.857 392.938 413.678 392.692 415.51 392.622C417.329 392.369 419.168 392.301 421 392.418Z" fill="#FAFAFA"/>
<path d="M425.861 402.555C420.495 402.774 415.121 402.637 409.771 402.146C415.138 401.927 420.512 402.064 425.861 402.555Z" fill="#FAFAFA"/>
<path d="M390.47 300.934C391.14 304.405 396.01 305.787 396.47 309.289C396.67 310.784 395.97 312.28 396.03 313.795C396.09 315.843 397.48 317.553 398.18 319.458C399.64 323.39 398 328.049 394.91 330.824C391.82 333.599 387.6 334.726 383.5 334.807" fill="#263238"/>
<path d="M362.89 304.518C363.32 306.371 362.37 308.235 361.37 309.842C360.37 311.45 359.24 313.129 359.26 315.024C359.26 318.403 362.92 320.953 362.78 324.322C362.7 326.124 361.52 327.752 361.54 329.565C361.625 330.436 361.891 331.279 362.321 332.037C362.75 332.795 363.333 333.449 364.03 333.958C365.33 335.084 366.59 334.685 367.79 335.934C369.174 337.328 370.825 338.413 372.64 339.119C376.47 340.521 380.27 336.968 381.9 336.18" fill="#263238"/>
<path d="M391.47 302.828C391.25 301.118 389.47 300.053 387.87 299.684C386.27 299.315 384.48 299.356 382.95 298.66C381.68 297.873 380.487 296.961 379.39 295.936C377.913 294.818 376.171 294.123 374.344 293.922C372.517 293.721 370.671 294.022 368.995 294.793C367.319 295.565 365.874 296.779 364.808 298.312C363.742 299.844 363.094 301.64 362.93 303.514C362.71 306.033 363.56 308.828 365.67 310.139C368.12 311.655 371.27 310.723 373.95 309.689C376.63 308.654 379.68 307.579 382.25 308.869C383.72 309.809 384.978 311.059 385.94 312.535C387.02 313.907 388.33 315.28 390.03 315.607C391.73 315.935 393.77 314.583 393.57 312.822" fill="#263238"/>
<path d="M392.05 339.088L388.05 305.92C387.954 305.206 387.6 304.554 387.057 304.094C386.515 303.633 385.824 303.397 385.12 303.432L369.8 301.968C365 302.214 362.8 308.665 363.2 313.57C363.69 319.007 364.49 325.643 365.73 329.565C368.21 337.449 374.42 337.511 374.42 337.511C374.42 337.511 375.54 349.184 376 352.052" fill="#FFBE9D"/>
<path d="M365.261 319.621C365.277 319.757 365.32 319.889 365.386 320.008C365.452 320.126 365.541 320.23 365.648 320.314C365.754 320.397 365.875 320.457 366.005 320.491C366.134 320.525 366.269 320.532 366.401 320.512C366.663 320.486 366.905 320.356 367.073 320.149C367.242 319.942 367.324 319.675 367.301 319.406C367.285 319.271 367.243 319.139 367.177 319.02C367.11 318.901 367.021 318.797 366.915 318.714C366.809 318.631 366.687 318.571 366.558 318.537C366.429 318.503 366.294 318.495 366.161 318.516C365.899 318.542 365.658 318.672 365.49 318.879C365.321 319.086 365.239 319.353 365.261 319.621Z" fill="#263238"/>
<path d="M365 317.573C365.15 317.696 365.83 316.99 366.92 316.816C368.01 316.642 368.92 317.082 368.99 316.918C369.06 316.754 368.87 316.631 368.49 316.427C367.966 316.164 367.376 316.075 366.8 316.171C366.232 316.259 365.706 316.532 365.3 316.949C365 317.266 364.9 317.522 365 317.573Z" fill="#263238"/>
<path d="M376.251 317.973C376.267 318.107 376.309 318.238 376.375 318.356C376.44 318.474 376.528 318.578 376.634 318.661C376.739 318.743 376.859 318.804 376.987 318.839C377.116 318.874 377.249 318.882 377.381 318.863C377.641 318.837 377.881 318.708 378.049 318.503C378.217 318.299 378.3 318.035 378.281 317.768C378.265 317.633 378.223 317.503 378.157 317.384C378.091 317.266 378.003 317.163 377.898 317.08C377.793 316.997 377.673 316.936 377.544 316.901C377.416 316.867 377.282 316.858 377.151 316.877C376.891 316.903 376.651 317.032 376.483 317.237C376.315 317.442 376.231 317.706 376.251 317.973Z" fill="#263238"/>
<path d="M375.721 316.078C375.871 316.191 376.551 315.484 377.641 315.321C378.731 315.157 379.641 315.577 379.711 315.423C379.781 315.269 379.591 315.126 379.201 314.921C378.68 314.662 378.092 314.576 377.521 314.675C376.955 314.765 376.431 315.034 376.021 315.443C375.731 315.761 375.651 316.027 375.721 316.078Z" fill="#263238"/>
<path d="M373.001 324.987C372.397 324.913 371.786 324.913 371.181 324.987C370.901 324.987 370.631 324.987 370.551 324.793C370.479 324.504 370.501 324.198 370.611 323.922C370.761 323.195 370.931 322.427 371.101 321.618C371.588 319.659 371.922 317.662 372.101 315.648C371.461 317.564 370.973 319.53 370.641 321.526C370.481 322.339 370.331 323.107 370.191 323.83C370.061 324.201 370.061 324.606 370.191 324.977C370.246 325.072 370.322 325.152 370.412 325.213C370.502 325.273 370.604 325.311 370.711 325.325C370.874 325.341 371.038 325.341 371.201 325.325C371.813 325.294 372.418 325.18 373.001 324.987Z" fill="#263238"/>
<path d="M374.381 337.511C378.084 337.058 381.578 335.514 384.441 333.066C383.601 335.026 382.225 336.693 380.478 337.867C378.732 339.041 376.69 339.672 374.601 339.681L374.381 337.511Z" fill="#EB996E"/>
<path d="M373.891 327.609C374.06 327.309 374.299 327.058 374.588 326.879C374.876 326.7 375.204 326.599 375.541 326.585C375.785 326.569 376.029 326.604 376.259 326.687C376.489 326.769 376.701 326.898 376.881 327.066C377.055 327.23 377.176 327.444 377.228 327.68C377.28 327.916 377.26 328.163 377.171 328.387C377.028 328.615 376.82 328.794 376.576 328.9C376.332 329.006 376.062 329.034 375.801 328.981C375.256 328.88 374.735 328.667 374.271 328.356C374.139 328.282 374.018 328.189 373.911 328.08C373.864 328.022 373.833 327.953 373.822 327.879C373.812 327.804 373.822 327.728 373.851 327.66" fill="#EB996E"/>
<path d="M376.35 325.254C376.17 325.254 376.35 326.482 375.47 327.496C374.59 328.51 373.31 328.592 373.32 328.756C373.33 328.919 373.64 328.95 374.18 328.878C374.88 328.765 375.517 328.403 375.98 327.854C376.424 327.338 376.66 326.668 376.64 325.981C376.61 325.509 376.43 325.233 376.35 325.254Z" fill="#263238"/>
<path d="M374.741 313.037C374.901 313.324 375.971 313.037 377.271 312.955C378.571 312.873 379.661 313.099 379.791 312.802C379.921 312.505 379.621 312.402 379.161 312.177C378.55 311.904 377.887 311.778 377.221 311.809C376.556 311.839 375.906 312.024 375.321 312.351C374.881 312.617 374.681 312.894 374.741 313.037Z" fill="#263238"/>
<path d="M364.881 314.286C365.111 314.501 365.821 314.122 366.721 313.969C367.621 313.815 368.421 313.866 368.551 313.58C368.681 313.293 368.451 313.201 368.081 313.016C367.592 312.792 367.046 312.731 366.521 312.842C365.991 312.933 365.501 313.191 365.121 313.58C364.841 313.897 364.781 314.174 364.881 314.286Z" fill="#263238"/>
<path d="M392.491 330.752C390.391 331.551 390.021 330.456 388.161 329.165C387.234 328.514 386.468 327.65 385.925 326.642C385.381 325.634 385.075 324.51 385.031 323.359C384.971 321.311 385.701 319.14 384.741 317.369C383.461 315.034 379.941 314.819 378.661 312.484C377.911 311.122 378.121 309.361 377.311 308.05C376.868 307.475 376.317 306.998 375.69 306.646C375.063 306.294 374.373 306.075 373.661 306.002C372.234 305.86 370.837 305.49 369.521 304.907C368.271 304.2 367.321 302.633 367.851 301.271C373.862 301.045 379.877 301.55 385.771 302.777C387.165 302.932 388.476 303.53 389.521 304.487C390.399 305.711 390.878 307.187 390.891 308.706C391.684 316.017 392.471 323.332 393.251 330.65" fill="#263238"/>
<path d="M394.91 313.446C394.831 312.083 395.189 310.73 395.928 309.593C396.667 308.456 397.747 307.596 399.006 307.144C400.264 306.692 401.633 306.671 402.904 307.086C404.175 307.501 405.279 308.328 406.05 309.443C406.707 310.546 407.122 311.782 407.265 313.066C407.408 314.35 407.277 315.65 406.88 316.877C406.09 319.836 403.99 322.755 401.01 323.092C398.22 323.41 395.6 321.28 394.38 318.679C393.16 316.078 393.03 313.109 392.92 310.231" fill="#263238"/>
<path d="M398.17 324.28C398.317 324.124 398.433 323.94 398.51 323.738C398.742 323.199 398.858 322.616 398.85 322.028C398.834 321.157 398.675 320.295 398.38 319.478C398.08 318.556 397.61 317.614 397.22 316.59C396.816 315.653 396.599 314.644 396.58 313.62C396.58 312.699 396.9 311.869 396.98 311.122C397.067 310.535 396.991 309.936 396.76 309.391C396.57 309.012 396.37 308.869 396.36 308.89C396.35 308.91 396.49 309.074 396.63 309.443C396.8 309.974 396.834 310.542 396.73 311.091C396.522 311.92 396.365 312.761 396.26 313.61C396.261 314.668 396.475 315.714 396.89 316.682C397.29 317.706 397.77 318.659 398.08 319.549C398.372 320.33 398.548 321.152 398.6 321.987C398.627 322.775 398.48 323.559 398.17 324.28Z" fill="#455A64"/>
<path d="M396.791 314.542C397.168 314.992 397.645 315.343 398.181 315.566C399.445 316.209 400.869 316.445 402.266 316.244C403.663 316.043 404.969 315.414 406.011 314.44C406.464 314.071 406.83 313.602 407.081 313.068C407.031 313.068 406.661 313.58 405.851 314.245C404.805 315.113 403.552 315.679 402.221 315.884C400.886 316.066 399.528 315.875 398.291 315.331C397.331 314.921 396.821 314.491 396.791 314.542Z" fill="#455A64"/>
<path d="M397.371 315.75C397.587 316.189 397.882 316.582 398.241 316.908C399.059 317.753 400.04 318.415 401.121 318.853C402.193 319.303 403.343 319.526 404.501 319.509C404.981 319.536 405.46 319.463 405.911 319.294C405.445 319.265 404.977 319.265 404.511 319.294C402.255 319.191 400.102 318.298 398.411 316.764C398.085 316.404 397.738 316.066 397.371 315.75Z" fill="#455A64"/>
<path d="M397.1 327.219C397.1 327.219 397.1 327.219 397.18 327.107C397.241 326.991 397.294 326.871 397.34 326.748C397.532 326.274 397.637 325.767 397.65 325.253C397.673 324.435 397.502 323.623 397.15 322.888C396.691 321.893 395.9 321.098 394.92 320.645C393.743 320.255 392.638 319.667 391.65 318.905C391.413 318.667 391.226 318.381 391.102 318.065C390.979 317.75 390.92 317.411 390.93 317.072C390.971 316.323 391.092 315.581 391.29 314.86C391.482 314.041 391.505 313.19 391.358 312.362C391.212 311.534 390.899 310.745 390.44 310.047C389.956 309.302 389.3 308.69 388.53 308.265C387.72 307.871 386.837 307.655 385.94 307.63C385.06 307.569 384.19 307.63 383.36 307.477C382.545 307.396 381.762 307.111 381.08 306.647C380.463 306.15 380.029 305.454 379.85 304.671C379.655 303.89 379.408 303.124 379.11 302.377C378.535 300.981 377.594 299.776 376.39 298.896C375.328 298.14 374.064 297.736 372.77 297.738C371.695 297.721 370.643 298.058 369.77 298.701C369.12 299.178 368.597 299.816 368.25 300.554C368.03 301.017 367.891 301.517 367.84 302.029C367.816 302.206 367.816 302.385 367.84 302.561C367.884 301.884 368.061 301.222 368.36 300.616C368.781 299.805 369.413 299.129 370.186 298.665C370.959 298.2 371.844 297.964 372.74 297.984C373.978 298.001 375.182 298.405 376.19 299.141C377.342 299.999 378.242 301.164 378.79 302.51C379.069 303.25 379.306 304.006 379.5 304.773C379.7 305.626 380.176 306.384 380.85 306.924C381.573 307.43 382.409 307.743 383.28 307.835C384.15 307.958 385.02 307.927 385.89 307.989C386.736 308.012 387.568 308.218 388.33 308.593C389.055 308.98 389.674 309.547 390.13 310.241C390.564 310.903 390.86 311.649 390.999 312.433C391.138 313.217 391.118 314.023 390.94 314.798C390.744 315.541 390.626 316.303 390.59 317.072C390.579 317.453 390.647 317.832 390.788 318.185C390.929 318.538 391.141 318.856 391.41 319.12C392.428 319.906 393.572 320.506 394.79 320.891C395.72 321.294 396.481 322.019 396.94 322.939C397.293 323.646 397.478 324.429 397.48 325.223C397.483 325.907 397.354 326.586 397.1 327.219Z" fill="#455A64"/>
<path d="M393.09 304.732C393.12 304.604 393.12 304.471 393.09 304.343C393.061 303.964 392.914 303.605 392.67 303.319C392.28 302.859 391.753 302.542 391.17 302.418C390.399 302.291 389.609 302.391 388.89 302.705C388.09 303.002 387.28 303.473 386.37 303.811C385.912 304.026 385.414 304.137 384.91 304.137C384.406 304.137 383.908 304.026 383.45 303.811C382.518 303.141 381.776 302.229 381.3 301.169C380.693 300.021 379.906 298.983 378.97 298.097C377.159 296.377 374.841 295.321 372.38 295.096C371.3 295.022 370.22 295.23 369.24 295.701C368.386 296.118 367.664 296.775 367.16 297.595C366.75 298.283 366.561 299.085 366.62 299.889C366.659 300.488 366.841 301.068 367.15 301.578C367.339 301.9 367.587 302.182 367.88 302.408C367.984 302.482 368.095 302.547 368.21 302.602C367.836 302.294 367.515 301.923 367.26 301.507C366.991 301.002 366.837 300.442 366.81 299.868C366.779 299.113 366.974 298.366 367.37 297.728C367.861 296.96 368.555 296.349 369.37 295.967C370.309 295.528 371.342 295.345 372.37 295.434C374.751 295.665 376.99 296.695 378.74 298.363C379.649 299.215 380.418 300.211 381.02 301.312C381.522 302.422 382.31 303.371 383.3 304.056C383.806 304.331 384.379 304.452 384.95 304.405C385.475 304.363 385.99 304.242 386.48 304.046C387.43 303.677 388.22 303.196 388.99 302.889C389.664 302.579 390.408 302.465 391.14 302.561C391.688 302.663 392.19 302.943 392.57 303.36C392.818 303.619 392.979 303.953 393.03 304.312C393.1 304.589 393.07 304.732 393.09 304.732Z" fill="#455A64"/>
</g>
<defs>
<clipPath id="clip0_2248_1991">
<rect width="500" height="512" fill="white"/>
</clipPath>
</defs>
</svg>
