<svg xmlns="http://www.w3.org/2000/svg" width="32" height="32" viewBox="0 0 26 26"><g fill="#fde68a"><path fill-rule="evenodd" d="M13.5 26C20.404 26 26 20.404 26 13.5S20.404 1 13.5 1S1 6.596 1 13.5S6.596 26 13.5 26Zm0-2C19.299 24 24 19.299 24 13.5S19.299 3 13.5 3S3 7.701 3 13.5S7.701 24 13.5 24Z" clip-rule="evenodd" opacity=".2"/><path d="M9.5 5h6.685a1.5 1.5 0 0 1 1.106.486l4.314 4.702A1.5 1.5 0 0 1 22 11.202V21.5a1.5 1.5 0 0 1-1.5 1.5h-11A1.5 1.5 0 0 1 8 21.5v-15A1.5 1.5 0 0 1 9.5 5Z" opacity=".2"/><path d="M9.5 15a.5.5 0 0 1 0-1h7a.5.5 0 0 1 0 1h-7Zm0 3a.5.5 0 0 1 0-1h7a.5.5 0 0 1 0 1h-7Z"/><path fill-rule="evenodd" d="M14.185 4H7.5A1.5 1.5 0 0 0 6 5.5v15A1.5 1.5 0 0 0 7.5 22h11a1.5 1.5 0 0 0 1.5-1.5V10.202a1.5 1.5 0 0 0-.395-1.014l-4.314-4.702A1.5 1.5 0 0 0 14.185 4ZM7 5.5a.5.5 0 0 1 .5-.5h6.685a.5.5 0 0 1 .369.162l4.314 4.702a.5.5 0 0 1 .132.338V20.5a.5.5 0 0 1-.5.5h-11a.5.5 0 0 1-.5-.5v-15Z" clip-rule="evenodd"/><path d="M14 10h5.5a.5.5 0 0 1 0 1h-6a.5.5 0 0 1-.5-.5v-6a.5.5 0 0 1 1 0V10Z"/><path fill-rule="evenodd" d="M13 24.5c6.351 0 11.5-5.149 11.5-11.5S19.351 1.5 13 1.5S1.5 6.649 1.5 13S6.649 24.5 13 24.5Zm0 1c6.904 0 12.5-5.596 12.5-12.5S19.904.5 13 .5S.5 6.096.5 13S6.096 25.5 13 25.5Z" clip-rule="evenodd"/></g></svg>