<svg width="121" height="121" viewBox="0 0 121 121" fill="none" xmlns="http://www.w3.org/2000/svg">
<path opacity="0.2" fill-rule="evenodd" clip-rule="evenodd" d="M61.8651 121C94.5263 121 121 94.5263 121 61.8651C121 29.2039 94.5263 2.73047 61.8651 2.73047C29.2039 2.73047 2.73047 29.2039 2.73047 61.8651C2.73047 94.5263 29.2039 121 61.8651 121ZM61.8651 111.538C89.2988 111.538 111.538 89.2988 111.538 61.8651C111.538 34.4314 89.2988 12.192 61.8651 12.192C34.4314 12.192 12.192 34.4314 12.192 61.8651C12.192 89.2988 34.4314 111.538 61.8651 111.538Z" fill="#86efac"/>
<g opacity="0.2">
<path d="M29.9316 58.3172C29.9316 57.0625 30.4301 55.8592 31.3173 54.972C32.2044 54.0848 33.4077 53.5864 34.6624 53.5864H46.4893C47.744 53.5864 48.9473 54.0848 49.8345 54.972C50.7217 55.8592 51.2201 57.0625 51.2201 58.3172V84.3364C51.2201 85.5911 50.7217 86.7944 49.8345 87.6816C48.9473 88.5688 47.744 89.0672 46.4893 89.0672H34.6624C33.4077 89.0672 32.2044 88.5688 31.3173 87.6816C30.4301 86.7944 29.9316 85.5911 29.9316 84.3364V58.3172Z" fill="#86efac"/>
<path fill-rule="evenodd" clip-rule="evenodd" d="M46.4893 58.3168H34.6624V84.3361H46.4893V58.3168ZM34.6624 53.5861C33.4077 53.5861 32.2044 54.0845 31.3173 54.9717C30.4301 55.8589 29.9316 57.0622 29.9316 58.3168V84.3361C29.9316 85.5907 30.4301 86.794 31.3173 87.6812C32.2044 88.5684 33.4077 89.0668 34.6624 89.0668H46.4893C47.744 89.0668 48.9473 88.5684 49.8345 87.6812C50.7217 86.794 51.2201 85.5907 51.2201 84.3361V58.3168C51.2201 57.0622 50.7217 55.8589 49.8345 54.9717C48.9473 54.0845 47.744 53.5861 46.4893 53.5861H34.6624ZM67.2811 32.3638C68.5179 32.5701 69.6223 33.259 70.3514 34.2792C71.0806 35.2993 71.3749 36.5672 71.1698 37.8042L70.2047 43.5852C69.6559 46.8789 68.4374 50.0249 66.6245 52.8289C64.8116 55.6329 62.4428 58.0353 59.6645 59.8875L54.4181 52.0155C56.1196 50.8813 57.5704 49.4104 58.6811 47.6936C59.7918 45.9767 60.5386 44.0504 60.8756 42.0335L61.8359 36.2525C61.9381 35.6396 62.1599 35.0529 62.4889 34.5257C62.8178 33.9986 63.2473 33.5414 63.753 33.1803C64.2586 32.8192 64.8305 32.5612 65.4358 32.4211C66.0412 32.281 66.6682 32.2616 67.2811 32.3638Z" fill="#86efac"/>
<path fill-rule="evenodd" clip-rule="evenodd" d="M72.4183 37.8091C72.3193 37.7104 72.1959 37.6397 72.0606 37.6043C71.9254 37.5689 71.7831 37.57 71.6484 37.6075C71.5138 37.645 71.3914 37.7176 71.294 37.8179C71.1965 37.9181 71.1274 38.0424 71.0937 38.1781L61.916 35.879C63.8462 28.1489 73.4733 25.4808 79.1124 31.1198L79.3111 31.3185C79.7629 31.7549 80.1233 32.2769 80.3712 32.8541C80.6192 33.4313 80.7497 34.0521 80.7551 34.6802C80.7606 35.3084 80.6409 35.9313 80.403 36.5127C80.1652 37.0941 79.8139 37.6223 79.3697 38.0665C78.9255 38.5107 78.3973 38.8619 77.8159 39.0998C77.2345 39.3377 76.6116 39.4574 75.9834 39.4519C75.3553 39.4464 74.7345 39.3159 74.1573 39.068C73.5802 38.8201 73.0581 38.4597 72.6217 38.0078L72.4183 37.8091Z" fill="#86efac"/>
<path fill-rule="evenodd" clip-rule="evenodd" d="M75.999 53.4442C74.782 53.1393 73.736 52.3635 73.091 51.2873C72.446 50.2111 72.2549 48.9229 72.5598 47.7058L73.2599 44.8957C73.4728 44.0489 73.5627 43.1785 73.5343 42.308L73.4681 40.3684C73.4366 39.4264 73.0749 38.5254 72.4462 37.8232L79.4856 31.5029C81.6003 33.8589 82.8161 36.8818 82.9249 40.042L82.9911 41.9816C83.0526 43.7367 82.8634 45.4918 82.4376 47.1949L81.7375 50.005C81.4325 51.222 80.6567 52.268 79.5805 52.913C78.5044 53.558 77.2161 53.7491 75.999 53.4442Z" fill="#86efac"/>
<path fill-rule="evenodd" clip-rule="evenodd" d="M73.5957 48.8553C73.5957 47.6006 74.0941 46.3973 74.9813 45.5101C75.8685 44.6229 77.0718 44.1245 78.3265 44.1245H85.4226C86.6773 44.1245 87.8806 44.6229 88.7678 45.5101C89.655 46.3973 90.1534 47.6006 90.1534 48.8553C90.1534 50.11 89.655 51.3132 88.7678 52.2004C87.8806 53.0876 86.6773 53.5861 85.4226 53.5861H78.3265C77.0718 53.5861 75.8685 53.0876 74.9813 52.2004C74.0941 51.3132 73.5957 50.11 73.5957 48.8553Z" fill="#86efac"/>
<path fill-rule="evenodd" clip-rule="evenodd" d="M91.4642 57.3186C90.9038 56.1974 90.0422 55.2543 88.976 54.5951C87.9099 53.9358 86.6812 53.5864 85.4277 53.5861V44.1245C91.5683 44.1245 97.179 47.5922 99.9275 53.0846L101.489 56.2022C101.766 56.7582 101.932 57.3635 101.976 57.9834C102.019 58.6034 101.941 59.2259 101.744 59.8155C101.547 60.405 101.236 60.95 100.829 61.4193C100.421 61.8887 99.9253 62.2732 99.3693 62.5509C98.8133 62.8286 98.208 62.994 97.588 63.0378C96.9681 63.0816 96.3456 63.0028 95.756 62.806C95.1665 62.6092 94.6215 62.2982 94.1522 61.8908C93.6828 61.4834 93.2983 60.9875 93.0206 60.4315L91.4642 57.3186Z" fill="#86efac"/>
<path fill-rule="evenodd" clip-rule="evenodd" d="M93.2145 86.3941C92.6331 86.1741 92.1008 85.8417 91.648 85.4158C91.1952 84.99 90.8308 84.4791 90.5755 83.9124C90.3203 83.3456 90.1792 82.7341 90.1604 82.1128C90.1416 81.4915 90.2454 80.8726 90.4659 80.2914L93.0205 73.5454C94.6659 69.2015 94.6119 64.3968 92.8691 60.091L101.64 56.543C104.275 63.0563 104.357 70.3242 101.867 76.8947L99.3124 83.6455C99.0924 84.2269 98.76 84.7592 98.3341 85.212C97.9083 85.6648 97.3974 86.0292 96.8306 86.2845C96.2639 86.5397 95.6524 86.6808 95.0311 86.6996C94.4098 86.7184 93.7909 86.6146 93.2097 86.3941H93.2145Z" fill="#86efac"/>
<path fill-rule="evenodd" clip-rule="evenodd" d="M81.9837 84.5161C83.4029 84.9169 84.9142 84.8436 86.2879 84.3075C87.6617 83.7713 88.823 82.8014 89.5955 81.5452L90.8586 79.4921C91.5281 78.4497 92.5798 77.7115 93.7877 77.4362C94.9956 77.1609 96.2633 77.3704 97.3184 78.0197C98.3735 78.669 99.1319 79.7062 99.4304 80.9086C99.729 82.111 99.544 83.3825 98.9151 84.4499L97.652 86.5031C95.7999 89.5126 93.0166 91.8358 89.7243 93.1199C86.4321 94.404 82.8108 94.5789 79.4102 93.6181L81.9837 84.5161Z" fill="#86efac"/>
<path fill-rule="evenodd" clip-rule="evenodd" d="M52.4026 83.4092C52.5241 82.7997 52.7646 82.22 53.1103 81.7034C53.4559 81.1869 53.9 80.7434 54.4171 80.3986C54.9342 80.0537 55.5142 79.8141 56.124 79.6935C56.7337 79.5728 57.3612 79.5735 57.9707 79.6956L81.6246 84.4263C82.8554 84.6722 83.9381 85.397 84.6346 86.4413C85.331 87.4855 85.5841 88.7636 85.3382 89.9944C85.0923 91.2253 84.3675 92.308 83.3233 93.0045C82.2791 93.7009 81.0009 93.954 79.7701 93.7081L56.1162 88.9773C55.5067 88.8558 54.927 88.6153 54.4105 88.2697C53.8939 87.924 53.4505 87.4799 53.1056 86.9628C52.7607 86.4457 52.5211 85.8657 52.4005 85.256C52.2799 84.6462 52.2806 84.0187 52.4026 83.4092Z" fill="#86efac"/>
<path fill-rule="evenodd" clip-rule="evenodd" d="M57.0394 51.2207C58.294 51.2207 59.4973 51.7191 60.3845 52.6063C61.2717 53.4935 61.7701 54.6968 61.7701 55.9515V84.3361C61.7701 85.5908 61.2717 86.7941 60.3845 87.6813C59.4973 88.5684 58.294 89.0669 57.0394 89.0669C55.7847 89.0669 54.5814 88.5684 53.6942 87.6813C52.807 86.7941 52.3086 85.5908 52.3086 84.3361V55.9515C52.3086 54.6968 52.807 53.4935 53.6942 52.6063C54.5814 51.7191 55.7847 51.2207 57.0394 51.2207Z" fill="#86efac"/>
<path d="M55.9512 58.3169L70.1435 34.6631L81.9704 46.49L93.7973 58.3169L96.1627 70.1439L93.7973 86.7015L58.3166 84.3362L55.9512 58.3169Z" fill="#86efac"/>
</g>
<path fill-rule="evenodd" clip-rule="evenodd" d="M39.1573 52.4179H27.3304V78.4371H39.1573V52.4179ZM27.3304 47.6871C26.0757 47.6871 24.8724 48.1856 23.9852 49.0727C23.098 49.9599 22.5996 51.1632 22.5996 52.4179V78.4371C22.5996 79.6918 23.098 80.8951 23.9852 81.7823C24.8724 82.6695 26.0757 83.1679 27.3304 83.1679H39.1573C40.412 83.1679 41.6153 82.6695 42.5025 81.7823C43.3897 80.8951 43.8881 79.6918 43.8881 78.4371V52.4179C43.8881 51.1632 43.3897 49.9599 42.5025 49.0727C41.6153 48.1856 40.412 47.6871 39.1573 47.6871H27.3304ZM58.2885 25.5802C59.7078 25.8168 60.6587 27.1556 60.4221 28.5701L59.3672 34.9188C58.8225 38.1856 57.6137 41.306 55.8155 44.0872C54.0172 46.8684 51.6677 49.2513 48.9122 51.0886L46.0264 46.7646C48.191 45.3213 50.0366 43.4495 51.4491 41.2647C52.8617 39.08 53.8112 36.6287 54.239 34.0625L55.2987 27.7138C55.4134 27.035 55.7925 26.4293 56.3529 26.0294C56.9133 25.6295 57.6093 25.468 58.2885 25.5802Z" fill="#86efac"/>
<path fill-rule="evenodd" clip-rule="evenodd" d="M66.1989 27.1601C65.7652 26.7255 65.2239 26.4138 64.6303 26.2569C64.0367 26.1 63.4121 26.1035 62.8203 26.2671C62.2285 26.4307 61.6908 26.7485 61.2621 27.188C60.8333 27.6275 60.5289 28.1729 60.3801 28.7686L55.3418 27.5102C56.9739 20.9817 65.1108 18.7251 69.87 23.489L70.0923 23.7066C70.3522 23.9437 70.5613 24.231 70.707 24.5511C70.8527 24.8712 70.9319 25.2176 70.94 25.5692C70.9481 25.9209 70.8847 26.2705 70.7539 26.597C70.623 26.9235 70.4273 27.22 70.1786 27.4687C69.9299 27.7174 69.6333 27.9131 69.3069 28.044C68.9804 28.1749 68.6308 28.2382 68.2791 28.2301C67.9275 28.2221 67.5811 28.1428 67.261 27.9971C66.9409 27.8514 66.6536 27.6423 66.4165 27.3825L66.1989 27.1601Z" fill="#86efac"/>
<path fill-rule="evenodd" clip-rule="evenodd" d="M68.9242 43.6519C68.2569 43.4842 67.6832 43.0591 67.3286 42.4695C66.974 41.88 66.8673 41.1739 67.0319 40.5059L67.803 37.4167C68.0963 36.253 68.224 35.0513 68.1815 33.8545L68.1105 31.7209C68.0546 30.0761 67.4216 28.5034 66.3223 27.2787L70.1873 23.811C72.1033 25.9399 73.2055 28.679 73.3049 31.5411L73.3758 33.6747C73.4336 35.3596 73.2552 37.0443 72.846 38.6798L72.0749 41.7643C71.9073 42.4326 71.4814 43.0071 70.8908 43.3619C70.3001 43.7166 69.5929 43.8226 68.9242 43.6566V43.6519Z" fill="#86efac"/>
<path fill-rule="evenodd" clip-rule="evenodd" d="M68.252 41.1351C68.252 40.4451 68.5261 39.7832 69.014 39.2953C69.502 38.8073 70.1638 38.5332 70.8539 38.5332H78.6455C79.3157 38.5618 79.949 38.8482 80.4132 39.3326C80.8773 39.8169 81.1365 40.4619 81.1365 41.1328C81.1365 41.8036 80.8773 42.4486 80.4132 42.933C79.949 43.4173 79.3157 43.7037 78.6455 43.7323H70.8539C70.1638 43.7323 69.502 43.4582 69.014 42.9702C68.5261 42.4823 68.252 41.8205 68.252 41.1304V41.1351Z" fill="#86efac"/>
<path fill-rule="evenodd" clip-rule="evenodd" d="M87.5999 49.267C86.7681 47.604 85.4898 46.2054 83.9082 45.2278C82.3265 44.2503 80.5039 43.7323 78.6445 43.732V38.5376C84.4066 38.5376 89.6767 41.7924 92.2502 46.9442L93.9628 50.3645C94.2335 50.9764 94.2581 51.669 94.0316 52.2985C93.805 52.9281 93.3446 53.4461 92.746 53.7451C92.1475 54.0441 91.4568 54.101 90.8174 53.904C90.1779 53.707 89.639 53.2713 89.3124 52.6873L87.5999 49.267Z" fill="#86efac"/>
<path fill-rule="evenodd" clip-rule="evenodd" d="M88.1203 79.937C87.477 79.6929 86.9566 79.204 86.6729 78.5772C86.3892 77.9504 86.3653 77.2367 86.6065 76.5924L89.4165 69.1745C91.4545 63.7918 91.3869 57.8384 89.2273 52.5033L94.048 50.5542C96.6985 57.102 96.7812 64.4086 94.2798 71.0148L91.4697 78.4326C91.2247 79.0762 90.7346 79.5964 90.1068 79.8793C89.479 80.1621 88.7647 80.1799 88.1203 79.937Z" fill="#86efac"/>
<path fill-rule="evenodd" clip-rule="evenodd" d="M74.1567 82.8035C76.2599 83.3985 78.4999 83.2908 80.5363 82.4967C82.5727 81.7026 84.2943 80.2656 85.4396 78.4039L86.8257 76.1473C86.9969 75.8411 87.2283 75.5726 87.5059 75.358C87.7835 75.1435 88.1017 74.9873 88.4413 74.8989C88.7808 74.8105 89.1347 74.7917 89.4818 74.8436C89.8288 74.8955 90.1617 75.017 90.4605 75.2009C90.7594 75.3848 91.0179 75.6272 91.2206 75.9136C91.4233 76.2 91.566 76.5245 91.6401 76.8674C91.7142 77.2104 91.7182 77.5648 91.6518 77.9093C91.5854 78.2539 91.45 78.5814 91.2537 78.8723L89.8676 81.1288C88.1293 83.9545 85.5161 86.1355 82.4251 87.3403C79.334 88.5451 75.9342 88.7079 72.7422 87.8039L74.1614 82.8035H74.1567Z" fill="#86efac"/>
<path fill-rule="evenodd" clip-rule="evenodd" d="M44.92 79.5962C45.057 78.9219 45.4554 78.3294 46.0281 77.9482C46.6008 77.567 47.3012 77.4281 47.9761 77.5619L73.9622 82.7563C74.6074 82.9218 75.1647 83.3285 75.519 83.8926C75.8734 84.4567 75.9979 85.1352 75.8669 85.7883C75.7359 86.4414 75.3594 87.0195 74.8149 87.4033C74.2705 87.7871 73.5995 87.9475 72.9403 87.8514L46.959 82.657C46.2847 82.52 45.6922 82.1216 45.311 81.5489C44.9297 80.9761 44.7909 80.2758 44.9247 79.6009L44.92 79.5962Z" fill="#86efac"/>
<path fill-rule="evenodd" clip-rule="evenodd" d="M47.4839 46.3296C48.174 46.3296 48.8358 46.6037 49.3237 47.0917C49.8117 47.5796 50.0858 48.2414 50.0858 48.9315V80.1073C50.1072 80.4615 50.0559 80.8164 49.9351 81.1501C49.8142 81.4838 49.6264 81.7892 49.3831 82.0476C49.1398 82.306 48.8463 82.512 48.5205 82.6527C48.1947 82.7934 47.8435 82.866 47.4886 82.866C47.1337 82.866 46.7826 82.7934 46.4568 82.6527C46.131 82.512 45.8374 82.306 45.5942 82.0476C45.3509 81.7892 45.1631 81.4838 45.0422 81.1501C44.9214 80.8164 44.8701 80.4615 44.8914 80.1073V48.9315C44.8914 48.2423 45.1649 47.5812 45.6519 47.0933C46.1388 46.6055 46.7994 46.3308 47.4886 46.3296H47.4839Z" fill="#86efac"/>
<path d="M37.9752 71.3455C37.9752 72.6002 37.4768 73.8035 36.5896 74.6907C35.7024 75.5779 34.4991 76.0763 33.2444 76.0763C31.9898 76.0763 30.7865 75.5779 29.8993 74.6907C29.0121 73.8035 28.5137 72.6002 28.5137 71.3455C28.5137 70.0908 29.0121 68.8875 29.8993 68.0004C30.7865 67.1132 31.9898 66.6147 33.2444 66.6147C34.4991 66.6147 35.7024 67.1132 36.5896 68.0004C37.4768 68.8875 37.9752 70.0908 37.9752 71.3455Z" fill="#86efac"/>
<path fill-rule="evenodd" clip-rule="evenodd" d="M59.4998 113.904C89.545 113.904 113.904 89.545 113.904 59.4998C113.904 29.4547 89.545 5.096 59.4998 5.096C29.4547 5.096 5.096 29.4547 5.096 59.4998C5.096 89.545 29.4547 113.904 59.4998 113.904ZM59.4998 118.634C92.1611 118.634 118.634 92.1611 118.634 59.4998C118.634 26.8386 92.1611 0.365234 59.4998 0.365234C26.8386 0.365234 0.365234 26.8386 0.365234 59.4998C0.365234 92.1611 26.8386 118.634 59.4998 118.634Z" fill="#86efac"/>
</svg>
