<svg width="280" height="42" viewBox="0 0 280 42" fill="none" xmlns="http://www.w3.org/2000/svg">
<path d="M96.9534 40.2089C92.7209 40.2089 89.4584 39.0097 87.1657 36.6112C84.8731 34.1775 83.7268 30.6152 83.7268 25.9241C83.7268 21.3036 84.8379 17.7766 87.0599 15.3429C89.282 12.8739 92.4035 11.6394 96.4244 11.6394C98.2937 11.6394 100.075 11.7629 101.768 12.0098C102.438 12.1156 102.985 12.433 103.408 12.9621C103.867 13.4911 104.096 14.1084 104.096 14.8138C104.096 15.4134 103.849 15.8896 103.355 16.2423C102.897 16.595 102.368 16.7008 101.768 16.5597C100.04 16.1717 98.3995 15.9777 96.8476 15.9777C94.4139 15.9777 92.5798 16.7713 91.3454 18.3585C90.1461 19.9457 89.5465 22.4676 89.5465 25.9241C89.5465 29.4512 90.1814 31.9907 91.4512 33.5427C92.7562 35.0946 94.7314 35.8705 97.3767 35.8705C99.0344 35.8705 100.622 35.6413 102.138 35.1828C102.703 35.0064 103.214 35.0946 103.673 35.4473C104.131 35.7647 104.36 36.2056 104.36 36.77C104.36 37.4754 104.131 38.1103 103.673 38.6746C103.214 39.2389 102.65 39.5916 101.98 39.7327C100.287 40.0502 98.6112 40.2089 96.9534 40.2089Z" fill="#5282FF"/>
<path d="M130.133 25.9241C130.133 19.2227 127.7 15.8719 122.832 15.8719C117.965 15.8719 115.531 19.2227 115.531 25.9241C115.531 32.6256 117.965 35.9764 122.832 35.9764C127.7 35.9764 130.133 32.6256 130.133 25.9241ZM132.355 36.5054C130.063 38.9744 126.888 40.2089 122.832 40.2089C118.776 40.2089 115.602 38.9744 113.309 36.5054C111.016 34.0012 109.87 30.4741 109.87 25.9241C109.87 21.3742 111.016 17.8647 113.309 15.3958C115.602 12.8915 118.776 11.6394 122.832 11.6394C126.888 11.6394 130.063 12.8915 132.355 15.3958C134.648 17.8647 135.794 21.3742 135.794 25.9241C135.794 30.4741 134.648 34.0012 132.355 36.5054Z" fill="#5282FF"/>
<path d="M152.947 15.8719C148.362 15.8719 146.07 19.2227 146.07 25.9241C146.07 29.3102 146.669 31.832 147.868 33.4898C149.103 35.1475 150.796 35.9764 152.947 35.9764C154.817 35.9764 156.422 35.3591 157.762 34.1246C159.137 32.8902 159.825 31.4793 159.825 29.8921V21.9562C159.825 20.369 159.137 18.9581 157.762 17.7236C156.422 16.4892 154.817 15.8719 152.947 15.8719ZM151.625 40.2089C148.415 40.2089 145.752 38.9215 143.636 36.3467C141.555 33.7719 140.514 30.2977 140.514 25.9241C140.514 21.4095 141.52 17.9 143.53 15.3958C145.576 12.8915 148.274 11.6394 151.625 11.6394C154.764 11.6394 157.444 12.7681 159.667 15.0254C159.702 15.0607 159.737 15.0783 159.772 15.0783C159.808 15.0783 159.825 15.0607 159.825 15.0254V2.75114C159.825 1.97517 160.09 1.32266 160.619 0.793598C161.183 0.264532 161.853 0 162.629 0C163.405 0 164.058 0.264532 164.587 0.793598C165.116 1.32266 165.38 1.97517 165.38 2.75114V37.0874C165.38 37.7928 165.116 38.4101 164.587 38.9391C164.093 39.4329 163.493 39.6798 162.788 39.6798C162.083 39.6798 161.465 39.4329 160.936 38.9391C160.443 38.4101 160.178 37.7928 160.143 37.0874L160.09 36.2938C160.09 36.2585 160.072 36.2409 160.037 36.2409C160.002 36.2409 159.966 36.2585 159.931 36.2938C158.626 37.7399 157.339 38.7628 156.069 39.3624C154.799 39.9267 153.318 40.2089 151.625 40.2089Z" fill="#5282FF"/>
<path d="M186.219 25.8183C183.326 25.8183 181.14 26.3121 179.658 27.2997C178.212 28.252 177.489 29.557 177.489 31.2148C177.489 32.5198 177.877 33.5956 178.653 34.4421C179.429 35.2886 180.364 35.7118 181.457 35.7118C183.785 35.7118 185.637 34.9888 187.012 33.5427C188.423 32.0613 189.128 30.0508 189.128 27.5113V26.2416C189.128 25.9594 188.97 25.8183 188.652 25.8183H186.219ZM180.134 40.2089C177.736 40.2089 175.761 39.4329 174.209 37.881C172.692 36.3291 171.934 34.2834 171.934 31.7439C171.934 28.64 173.115 26.2416 175.479 24.5486C177.842 22.8203 181.422 21.9562 186.219 21.9562H188.652C188.97 21.9562 189.128 21.7974 189.128 21.48V20.898C189.128 19.0287 188.687 17.7236 187.806 16.983C186.924 16.2423 185.337 15.8719 183.044 15.8719C180.998 15.8719 178.565 16.2952 175.743 17.1417C175.214 17.318 174.703 17.2475 174.209 16.9301C173.75 16.5773 173.521 16.1188 173.521 15.5545C173.521 14.8491 173.733 14.2142 174.156 13.6499C174.579 13.0855 175.126 12.7328 175.796 12.5917C178.335 11.9569 180.752 11.6394 183.044 11.6394C187.488 11.6394 190.539 12.433 192.197 14.0202C193.855 15.6074 194.684 18.5172 194.684 22.7498V37.0874C194.684 37.7928 194.419 38.4101 193.89 38.9391C193.396 39.4329 192.797 39.6798 192.091 39.6798C191.386 39.6798 190.768 39.4329 190.239 38.9391C189.746 38.4101 189.481 37.7928 189.446 37.0874L189.393 35.7647C189.393 35.7295 189.375 35.7118 189.34 35.7118C189.269 35.7118 189.234 35.7295 189.234 35.7647C187.188 38.7275 184.155 40.2089 180.134 40.2089Z" fill="white"/>
<path d="M206.796 38.8862C206.267 39.4153 205.615 39.6798 204.839 39.6798C204.063 39.6798 203.393 39.4153 202.828 38.8862C202.299 38.3572 202.035 37.7046 202.035 36.9287V14.7609C202.035 14.0555 202.282 13.4559 202.775 12.9621C203.304 12.433 203.922 12.1685 204.627 12.1685C205.332 12.1685 205.932 12.433 206.426 12.9621C206.955 13.4559 207.237 14.0555 207.272 14.7609L207.325 15.5545C207.325 15.5898 207.343 15.6074 207.378 15.6074C207.413 15.6074 207.449 15.5898 207.484 15.5545C209.988 12.9444 212.845 11.6394 216.055 11.6394C219.265 11.6394 221.61 12.5565 223.091 14.3905C224.573 16.1894 225.313 19.1521 225.313 23.2788V36.9816C225.313 37.7223 225.049 38.3572 224.52 38.8862C223.991 39.4153 223.356 39.6798 222.615 39.6798C221.875 39.6798 221.222 39.4153 220.658 38.8862C220.129 38.3572 219.864 37.7223 219.864 36.9816V24.0724C219.864 20.898 219.476 18.7465 218.7 17.6178C217.924 16.4539 216.513 15.8719 214.468 15.8719C212.81 15.8719 211.24 16.6126 209.759 18.094C208.313 19.5401 207.59 21.092 207.59 22.7498V36.9287C207.59 37.7046 207.325 38.3572 206.796 38.8862Z" fill="white"/>
<path d="M232.433 17.4591C231.834 17.4591 231.322 17.2475 230.899 16.8242C230.511 16.401 230.317 15.9072 230.317 15.3429C230.317 14.7785 230.511 14.2847 230.899 13.8615C231.322 13.4382 231.834 13.2266 232.433 13.2266H235.396C235.713 13.2266 235.872 13.0679 235.872 12.7504V5.92552C235.872 5.14956 236.137 4.49705 236.666 3.96798C237.195 3.43892 237.847 3.17438 238.623 3.17438C239.399 3.17438 240.052 3.43892 240.581 3.96798C241.145 4.49705 241.427 5.14956 241.427 5.92552V12.7504C241.427 13.0679 241.586 13.2266 241.903 13.2266H248.834C249.434 13.2266 249.927 13.4382 250.315 13.8615C250.739 14.2847 250.95 14.7785 250.95 15.3429C250.95 15.9072 250.739 16.401 250.315 16.8242C249.927 17.2475 249.434 17.4591 248.834 17.4591H241.903C241.586 17.4591 241.427 17.6178 241.427 17.9353V30.1567C241.427 32.5551 241.709 34.1246 242.274 34.8653C242.838 35.606 243.967 35.9764 245.66 35.9764C246.471 35.9764 247.247 35.9235 247.988 35.8176C248.552 35.7471 249.046 35.8705 249.469 36.188C249.927 36.5054 250.157 36.9287 250.157 37.4577C250.157 38.0926 249.945 38.657 249.522 39.1507C249.099 39.6445 248.57 39.9267 247.935 39.9972C246.453 40.1383 245.342 40.2089 244.602 40.2089C241.357 40.2089 239.082 39.5211 237.777 38.1455C236.507 36.77 235.872 34.2834 235.872 30.6857V17.9353C235.872 17.6178 235.713 17.4591 235.396 17.4591H232.433Z" fill="white"/>
<path d="M268.622 15.7661C264.601 15.7661 262.344 18.1469 261.85 22.9085C261.78 23.2259 261.921 23.3846 262.274 23.3846H274.125C274.407 23.3846 274.548 23.2259 274.548 22.9085C274.336 18.1469 272.361 15.7661 268.622 15.7661ZM269.945 40.2089C265.536 40.2089 262.132 39.0097 259.734 36.6112C257.371 34.2128 256.189 30.6504 256.189 25.9241C256.189 21.1978 257.247 17.6355 259.364 15.2371C261.515 12.8386 264.601 11.6394 268.622 11.6394C275.959 11.6394 279.75 15.9425 279.997 24.5486C280.032 25.3951 279.733 26.1005 279.098 26.6648C278.463 27.2292 277.722 27.5113 276.876 27.5113H262.221C261.938 27.5113 261.797 27.6524 261.797 27.9346C262.221 33.3663 265.113 36.0822 270.474 36.0822C272.343 36.0822 274.178 35.7824 275.976 35.1828C276.505 35.0064 276.999 35.077 277.458 35.3944C277.916 35.7118 278.145 36.1527 278.145 36.7171C278.145 37.3872 277.934 37.9868 277.511 38.5159C277.087 39.0449 276.541 39.3976 275.871 39.574C273.931 39.9972 271.955 40.2089 269.945 40.2089Z" fill="white"/>
<path fill-rule="evenodd" clip-rule="evenodd" d="M12.473 10.2966L18.0846 14.7267L9.10902 26.0957L18.0846 37.4647L12.473 41.8949L0 26.0957L12.473 10.2966Z" fill="#5282FF"/>
<path fill-rule="evenodd" clip-rule="evenodd" d="M19.5452 19.4505L26.772 10.2966L32.3835 14.7267L25.1568 23.8807C24.1314 25.1794 24.1314 27.0121 25.1568 28.3108L32.3835 37.4647L26.772 41.8949L19.5452 32.741C16.4693 28.8447 16.4693 23.3467 19.5452 19.4505Z" fill="white"/>
<path fill-rule="evenodd" clip-rule="evenodd" d="M63.1265 10.2966L57.5149 14.7267L66.4905 26.0957L57.5149 37.4647L63.1265 41.8949L75.5995 26.0957L63.1265 10.2966Z" fill="#5282FF"/>
<path fill-rule="evenodd" clip-rule="evenodd" d="M56.0543 19.4505L48.8275 10.2966L43.2159 14.7267L50.4427 23.8807C51.4681 25.1794 51.4681 27.0121 50.4427 28.3108L43.2159 37.4647L48.8275 41.8949L56.0543 32.741C59.1302 28.8447 59.1302 23.3467 56.0543 19.4505Z" fill="white"/>
</svg>
