<svg width="197" height="30" viewBox="0 0 197 30" fill="none" xmlns="http://www.w3.org/2000/svg">
<path d="M68.619 28.37C65.659 28.37 63.3773 27.5313 61.774 25.854C60.1707 24.152 59.369 21.6607 59.369 18.38C59.369 15.1487 60.146 12.682 61.7 10.98C63.254 9.25333 65.437 8.39 68.249 8.39C69.5563 8.39 70.802 8.47633 71.986 8.649C72.4547 8.723 72.837 8.945 73.133 9.315C73.4537 9.685 73.614 10.1167 73.614 10.61C73.614 11.0293 73.4413 11.3623 73.096 11.609C72.7753 11.8557 72.4053 11.9297 71.986 11.831C70.7773 11.5597 69.6303 11.424 68.545 11.424C66.843 11.424 65.5603 11.979 64.697 13.089C63.8583 14.199 63.439 15.9627 63.439 18.38C63.439 20.8467 63.883 22.6227 64.771 23.708C65.6837 24.7933 67.065 25.336 68.915 25.336C70.0743 25.336 71.1843 25.1757 72.245 24.855C72.6397 24.7317 72.9973 24.7933 73.318 25.04C73.6387 25.262 73.799 25.5703 73.799 25.965C73.799 26.4583 73.6387 26.9023 73.318 27.297C72.9973 27.6917 72.6027 27.9383 72.134 28.037C70.95 28.259 69.7783 28.37 68.619 28.37Z" fill="#5282FF"/>
<path d="M91.8232 18.38C91.8232 13.6933 90.1212 11.35 86.7172 11.35C83.3132 11.35 81.6112 13.6933 81.6112 18.38C81.6112 23.0667 83.3132 25.41 86.7172 25.41C90.1212 25.41 91.8232 23.0667 91.8232 18.38ZM93.3772 25.78C91.7739 27.5067 89.5539 28.37 86.7172 28.37C83.8805 28.37 81.6605 27.5067 80.0572 25.78C78.4539 24.0287 77.6522 21.562 77.6522 18.38C77.6522 15.198 78.4539 12.7437 80.0572 11.017C81.6605 9.26567 83.8805 8.39 86.7172 8.39C89.5539 8.39 91.7739 9.26567 93.3772 11.017C94.9805 12.7437 95.7822 15.198 95.7822 18.38C95.7822 21.562 94.9805 24.0287 93.3772 25.78Z" fill="#5282FF"/>
<path d="M107.778 11.35C104.572 11.35 102.968 13.6933 102.968 18.38C102.968 20.748 103.388 22.5117 104.226 23.671C105.09 24.8303 106.274 25.41 107.778 25.41C109.086 25.41 110.208 24.9783 111.145 24.115C112.107 23.2517 112.588 22.265 112.588 21.155V15.605C112.588 14.495 112.107 13.5083 111.145 12.645C110.208 11.7817 109.086 11.35 107.778 11.35ZM106.853 28.37C104.609 28.37 102.746 27.4697 101.266 25.669C99.811 23.8683 99.0833 21.4387 99.0833 18.38C99.0833 15.2227 99.7863 12.7683 101.192 11.017C102.623 9.26567 104.51 8.39 106.853 8.39C109.049 8.39 110.923 9.17933 112.477 10.758C112.502 10.7827 112.527 10.795 112.551 10.795C112.576 10.795 112.588 10.7827 112.588 10.758V2.174C112.588 1.63133 112.773 1.175 113.143 0.805001C113.538 0.435 114.007 0.25 114.549 0.25C115.092 0.25 115.548 0.435 115.918 0.805001C116.288 1.175 116.473 1.63133 116.473 2.174V26.187C116.473 26.6803 116.288 27.112 115.918 27.482C115.573 27.8273 115.154 28 114.66 28C114.167 28 113.735 27.8273 113.365 27.482C113.02 27.112 112.835 26.6803 112.81 26.187L112.773 25.632C112.773 25.6073 112.761 25.595 112.736 25.595C112.712 25.595 112.687 25.6073 112.662 25.632C111.75 26.6433 110.849 27.3587 109.961 27.778C109.073 28.1727 108.037 28.37 106.853 28.37Z" fill="#5282FF"/>
<path d="M131.046 18.306C129.024 18.306 127.494 18.6513 126.458 19.342C125.447 20.008 124.941 20.9207 124.941 22.08C124.941 22.9927 125.213 23.745 125.755 24.337C126.298 24.929 126.952 25.225 127.716 25.225C129.344 25.225 130.639 24.7193 131.601 23.708C132.588 22.672 133.081 21.266 133.081 19.49V18.602C133.081 18.4047 132.97 18.306 132.748 18.306H131.046ZM126.791 28.37C125.114 28.37 123.733 27.8273 122.647 26.742C121.587 25.6567 121.056 24.226 121.056 22.45C121.056 20.2793 121.883 18.602 123.535 17.418C125.188 16.2093 127.692 15.605 131.046 15.605H132.748C132.97 15.605 133.081 15.494 133.081 15.272V14.865C133.081 13.5577 132.773 12.645 132.156 12.127C131.54 11.609 130.43 11.35 128.826 11.35C127.396 11.35 125.694 11.646 123.72 12.238C123.35 12.3613 122.993 12.312 122.647 12.09C122.327 11.8433 122.166 11.5227 122.166 11.128C122.166 10.6347 122.314 10.1907 122.61 9.796C122.906 9.40133 123.289 9.15467 123.757 9.056C125.533 8.612 127.223 8.39 128.826 8.39C131.934 8.39 134.068 8.945 135.227 10.055C136.387 11.165 136.966 13.2 136.966 16.16V26.187C136.966 26.6803 136.781 27.112 136.411 27.482C136.066 27.8273 135.647 28 135.153 28C134.66 28 134.228 27.8273 133.858 27.482C133.513 27.112 133.328 26.6803 133.303 26.187L133.266 25.262C133.266 25.2373 133.254 25.225 133.229 25.225C133.18 25.225 133.155 25.2373 133.155 25.262C131.725 27.334 129.603 28.37 126.791 28.37Z" fill="#333333"/>
<path d="M145.437 27.445C145.067 27.815 144.611 28 144.068 28C143.526 28 143.057 27.815 142.662 27.445C142.292 27.075 142.107 26.6187 142.107 26.076V10.573C142.107 10.0797 142.28 9.66033 142.625 9.315C142.995 8.945 143.427 8.76 143.92 8.76C144.414 8.76 144.833 8.945 145.178 9.315C145.548 9.66033 145.746 10.0797 145.77 10.573L145.807 11.128C145.807 11.1527 145.82 11.165 145.844 11.165C145.869 11.165 145.894 11.1527 145.918 11.128C147.67 9.30267 149.668 8.39 151.912 8.39C154.157 8.39 155.797 9.03133 156.833 10.314C157.869 11.572 158.387 13.644 158.387 16.53V26.113C158.387 26.631 158.202 27.075 157.832 27.445C157.462 27.815 157.018 28 156.5 28C155.982 28 155.526 27.815 155.131 27.445C154.761 27.075 154.576 26.631 154.576 26.113V17.085C154.576 14.865 154.305 13.3603 153.762 12.571C153.22 11.757 152.233 11.35 150.802 11.35C149.643 11.35 148.545 11.868 147.509 12.904C146.498 13.9153 145.992 15.0007 145.992 16.16V26.076C145.992 26.6187 145.807 27.075 145.437 27.445Z" fill="#333333"/>
<path d="M163.366 12.46C162.947 12.46 162.589 12.312 162.293 12.016C162.022 11.72 161.886 11.3747 161.886 10.98C161.886 10.5853 162.022 10.24 162.293 9.944C162.589 9.648 162.947 9.5 163.366 9.5H165.438C165.66 9.5 165.771 9.389 165.771 9.167V4.394C165.771 3.85133 165.956 3.395 166.326 3.025C166.696 2.655 167.153 2.47 167.695 2.47C168.238 2.47 168.694 2.655 169.064 3.025C169.459 3.395 169.656 3.85133 169.656 4.394V9.167C169.656 9.389 169.767 9.5 169.989 9.5H174.836C175.256 9.5 175.601 9.648 175.872 9.944C176.168 10.24 176.316 10.5853 176.316 10.98C176.316 11.3747 176.168 11.72 175.872 12.016C175.601 12.312 175.256 12.46 174.836 12.46H169.989C169.767 12.46 169.656 12.571 169.656 12.793V21.34C169.656 23.0173 169.854 24.115 170.248 24.633C170.643 25.151 171.432 25.41 172.616 25.41C173.184 25.41 173.726 25.373 174.244 25.299C174.639 25.2497 174.984 25.336 175.28 25.558C175.601 25.78 175.761 26.076 175.761 26.446C175.761 26.89 175.613 27.2847 175.317 27.63C175.021 27.9753 174.651 28.1727 174.207 28.222C173.171 28.3207 172.394 28.37 171.876 28.37C169.607 28.37 168.016 27.889 167.103 26.927C166.215 25.965 165.771 24.226 165.771 21.71V12.793C165.771 12.571 165.66 12.46 165.438 12.46H163.366Z" fill="#333333"/>
<path d="M188.675 11.276C185.863 11.276 184.285 12.941 183.939 16.271C183.89 16.493 183.989 16.604 184.235 16.604H192.523C192.721 16.604 192.819 16.493 192.819 16.271C192.671 12.941 191.29 11.276 188.675 11.276ZM189.6 28.37C186.517 28.37 184.137 27.5313 182.459 25.854C180.807 24.1767 179.98 21.6853 179.98 18.38C179.98 15.0747 180.72 12.5833 182.2 10.906C183.705 9.22867 185.863 8.39 188.675 8.39C193.806 8.39 196.458 11.3993 196.63 17.418C196.655 18.01 196.445 18.5033 196.001 18.898C195.557 19.2927 195.039 19.49 194.447 19.49H184.198C184.001 19.49 183.902 19.5887 183.902 19.786C184.198 23.5847 186.221 25.484 189.97 25.484C191.278 25.484 192.56 25.2743 193.818 24.855C194.188 24.7317 194.534 24.781 194.854 25.003C195.175 25.225 195.335 25.5333 195.335 25.928C195.335 26.3967 195.187 26.816 194.891 27.186C194.595 27.556 194.213 27.8027 193.744 27.926C192.388 28.222 191.006 28.37 189.6 28.37Z" fill="#333333"/>
<path fill-rule="evenodd" clip-rule="evenodd" d="M9.53779 7.4509L13.4622 10.5491L7.18519 18.5L13.4622 26.4509L9.53779 29.5491L0.814812 18.5L9.53779 7.4509Z" fill="#5282FF"/>
<path fill-rule="evenodd" clip-rule="evenodd" d="M14.4838 13.8527L19.5378 7.4509L23.4622 10.5491L18.4082 16.9509C17.6911 17.8592 17.6911 19.1408 18.4082 20.0491L23.4622 26.4509L19.5378 29.5491L14.4838 23.1473C12.3326 20.4225 12.3326 16.5775 14.4838 13.8527Z" fill="#333333"/>
<path fill-rule="evenodd" clip-rule="evenodd" d="M44.9622 7.4509L41.0378 10.5491L47.3148 18.5L41.0378 26.4509L44.9622 29.5491L53.6852 18.5L44.9622 7.4509Z" fill="#5282FF"/>
<path fill-rule="evenodd" clip-rule="evenodd" d="M40.0162 13.8527L34.9622 7.4509L31.0378 10.5491L36.0918 16.9509C36.8089 17.8592 36.8089 19.1408 36.0918 20.0491L31.0378 26.4509L34.9622 29.5491L40.0162 23.1473C42.1674 20.4225 42.1674 16.5775 40.0162 13.8527Z" fill="#333333"/>
</svg>
