<svg width="16" height="16" viewBox="0 0 16 16" fill="none" xmlns="http://www.w3.org/2000/svg">
<path fillRule="evenodd" clipRule="evenodd" d="M3.0679 3.73328L4.44813 4.92967L2.24048 7.99994L4.44813 11.0702L3.0679 12.2666L0 7.99994L3.0679 3.73328Z" fill="black"/>
<path fillRule="evenodd" clipRule="evenodd" d="M4.80742 6.20535L6.58494 3.73328L7.96517 4.92967L6.18765 7.40175C5.93546 7.75248 5.93546 8.2474 6.18765 8.59814L7.96517 11.0702L6.58494 12.2666L4.80742 9.79453C4.05085 8.74233 4.05085 7.25755 4.80742 6.20535Z" fill="black"/>
<path fillRule="evenodd" clipRule="evenodd" d="M12.8972 3.73328L11.517 4.92967L13.7246 7.99994L11.517 11.0702L12.8972 12.2666L15.9651 7.99994L12.8972 3.73328Z" fill="black"/>
<path fillRule="evenodd" clipRule="evenodd" d="M11.1577 6.20535L9.38014 3.73328L7.99991 4.92967L9.77744 7.40175C10.0296 7.75248 10.0296 8.2474 9.77744 8.59814L7.99991 11.0702L9.38014 12.2666L11.1577 9.79453C11.9142 8.74233 11.9142 7.25755 11.1577 6.20535Z" fill="black"/>
</svg>
