<svg width="21" height="21" viewBox="0 0 21 21" fill="none" xmlns="http://www.w3.org/2000/svg">
<path d="M10.4918 1.56476C5.42022 1.56271 1.3125 5.66837 1.3125 10.7359C1.3125 14.7431 3.88213 18.1494 7.46074 19.4004C7.94268 19.5214 7.86885 19.1789 7.86885 18.9451V17.3558C5.08594 17.6818 4.97314 15.8402 4.78652 15.5326C4.40918 14.8887 3.51709 14.7246 3.78369 14.417C4.41738 14.0909 5.06338 14.499 5.81191 15.6044C6.35332 16.4063 7.40947 16.2709 7.94473 16.1376C8.06162 15.6557 8.31182 15.225 8.65635 14.8907C5.77295 14.3739 4.57119 12.6144 4.57119 10.5226C4.57119 9.50743 4.90547 8.57433 5.56172 7.82169C5.14336 6.58097 5.60068 5.51867 5.66221 5.36075C6.85371 5.25411 8.09238 6.21388 8.18877 6.28976C8.86553 6.10724 9.63867 6.01085 10.5041 6.01085C11.3736 6.01085 12.1488 6.11134 12.8317 6.29591C13.0635 6.11954 14.2119 5.29513 15.3193 5.39562C15.3788 5.55353 15.8259 6.59122 15.4321 7.81554C16.0966 8.57023 16.435 9.51154 16.435 10.5287C16.435 12.6246 15.225 14.3862 12.3334 14.8948C12.5811 15.1384 12.7777 15.4289 12.9119 15.7493C13.046 16.0697 13.115 16.4137 13.1147 16.761V19.0682C13.1312 19.2527 13.1147 19.4353 13.4224 19.4353C17.0543 18.211 19.669 14.78 19.669 10.7379C19.669 5.66837 15.5593 1.56476 10.4918 1.56476Z" fill="white"/>
</svg>
