<svg width="587" height="42" viewBox="0 0 587 42" fill="none" xmlns="http://www.w3.org/2000/svg">
<path d="M285.595 0.916412C249.065 -1.16159 177.905 2.87941 110.436 10.8624L94.5098 12.7494C49.7419 18.0624 25.5584 21.7664 8.43146 25.9344C1.74696 27.5614 1.16277 27.7784 1.22737 28.6104C1.32567 29.8244 2.39014 29.7314 14.7017 27.4344C27.4416 25.0574 38.7855 23.5144 69.8151 19.9384C173.523 7.98641 221.696 4.49241 275.163 5.04641C285.64 5.15441 302.195 6.74241 302.083 7.62841C301.933 8.81141 291.026 11.9384 265.922 17.9944C235.039 25.4444 216.168 30.5284 214.383 31.8784C211.331 34.1864 214.099 36.2854 220.621 36.6124C224.348 36.7994 225.203 36.7694 242.518 35.8324C292.232 33.1464 323.889 32.3444 366.61 32.6894C431.667 33.2154 472.945 34.9194 550.276 40.2734C578.063 42.1974 579.505 42.2534 584.762 41.6054L584.854 41.5944C586.541 41.3914 587.003 39.7694 585.415 39.2594C581.327 37.9494 578.543 37.6554 554.452 35.9984C473.692 30.4424 431.055 28.6384 369.001 28.1564C336.366 27.9024 321.793 28.0404 297.905 28.8304C281.575 29.3704 238.403 31.3244 232.33 31.7974C229.017 32.0564 243.751 28.1724 269.55 21.9874C302.184 14.1624 308.777 11.8384 309.297 7.98241C309.883 3.63441 304.341 1.98241 285.595 0.916412Z" fill="#D0DDFF"/>
</svg>
