<svg width="322" height="47" viewBox="0 0 322 47" fill="none" xmlns="http://www.w3.org/2000/svg">
<path d="M205.313 0.825214C182.384 1.55953 159.475 2.79116 136.595 4.5201L74.3141 5.66236C51.5356 6.08197 28.7571 6.49769 5.98229 6.9173C3.77877 6.95616 0.366494 8.6307 0.0286451 11.16C-0.342989 13.9496 2.99045 14.4159 4.86739 14.3848C19.6689 14.1128 34.4705 13.8408 49.272 13.5689C43.1119 14.3809 36.9593 15.224 30.8067 16.1059C28.6745 16.4129 25.6976 17.4464 25.0182 19.8591C24.4101 22.0115 26.3095 23.5384 28.3254 23.5773C62.5082 24.1834 96.6947 24.7934 130.878 25.3995C138.153 25.5277 145.428 25.6598 152.703 25.788C142.237 26.973 131.786 28.3367 121.365 29.8792C105.025 32.3036 88.7515 35.1787 72.5498 38.454C70.8005 38.8075 68.3192 40.3927 68.0526 42.4247C67.7936 44.3673 69.862 45.6378 71.5212 45.6534C110.396 46.003 149.271 46.3566 188.147 46.7063C199.108 46.8034 210.066 46.9044 221.027 47.0015C223.538 47.0248 226.759 46.2828 228.024 43.7301C229.154 41.4456 227.037 39.5457 224.878 39.5263L112.611 38.5122C113.655 38.3491 114.695 38.182 115.738 38.0227C129.879 35.8547 144.069 34.017 158.288 32.5134C186.743 29.5062 215.325 27.8317 243.925 27.5014C245.191 27.4859 246.471 27.4781 247.747 27.4703C262.244 27.7268 276.738 27.9871 291.236 28.2435C293.743 28.2862 296.975 27.5092 298.233 24.9721C299.389 22.641 297.227 20.8576 295.087 20.7683C280.293 20.1544 265.484 19.8902 250.679 19.9795C231.297 19.6338 211.916 19.2919 192.535 18.9461C158.352 18.34 124.166 17.73 89.9828 17.1239C87.2274 17.0734 84.4683 17.0268 81.713 16.9762C99.6115 15.0064 117.54 13.3396 135.491 11.9837C172.913 11.296 210.34 10.6122 247.762 9.92449C270.54 9.50489 293.319 9.08916 316.094 8.66955C318.185 8.6307 321.255 7.14653 321.882 4.91639C322.498 2.73676 320.583 1.2759 318.575 1.1982C280.841 -0.262659 243.055 -0.386988 205.313 0.821329V0.825214Z" fill="#293649"/>
</svg>
