<svg width="1712" height="385" viewBox="0 0 1712 385" fill="none" xmlns="http://www.w3.org/2000/svg">
<path d="M0 192.5L57.8333 171.044C115.667 150.391 231.333 106.276 347 128.333C462.667 150.391 578.333 234.609 694 235.211C809.667 234.609 925.333 150.391 1041 117.706C1156.67 86.224 1272.33 106.276 1388 160.417C1503.67 214.557 1619.33 298.776 1677.17 342.289L1735 385V0H1677.17C1619.33 0 1503.67 0 1388 0C1272.33 0 1156.67 0 1041 0C925.333 0 809.667 0 694 0C578.333 0 462.667 0 347 0C231.333 0 115.667 0 57.8333 0H0V192.5Z" fill="#1E293B"/>
</svg>
