<svg width="1726" height="110" viewBox="0 0 1726 110" fill="none" xmlns="http://www.w3.org/2000/svg">
<g clip-path="url(#clip0_236_494)">
<path d="M0 28.0754L57.8333 21.7285C115.667 14.9027 231.333 2.92741 347 8.91502C462.667 14.9027 578.333 41.2482 694 66.3962C809.667 91.5442 925.333 117.89 1041 98.3701C1156.67 79.5689 1272.33 14.9027 1388 2.56814C1503.67 -10.2453 1619.33 28.0754 1677.17 47.2358L1735 66.3962V258H1677.17C1619.33 258 1503.67 258 1388 258C1272.33 258 1156.67 258 1041 258C925.333 258 809.667 258 694 258C578.333 258 462.667 258 347 258C231.333 258 115.667 258 57.8333 258H0V28.0754Z" fill="#F1F5F9"/>
</g>
<defs>
<clipPath id="clip0_236_494">
<rect width="1726" height="258" fill="white"/>
</clipPath>
</defs>
</svg>
