<svg width="71" height="68" viewBox="0 0 71 68" fill="none" xmlns="http://www.w3.org/2000/svg">
<path fill-rule="evenodd" clip-rule="evenodd" d="M23.3301 65.8629C19.342 64.949 23.2809 57.9005 27.4096 52.5926C29.9129 49.374 31.6542 46.049 31.6542 46.049L30.0449 44.8936C30.0449 44.8936 26.6862 50.4454 24.6885 52.5758C22.6913 54.7062 19.7087 59.5453 19.5693 61.4216C19.4298 63.2986 19.5475 65.8629 23.3301 65.8629Z" fill="#4A5662"/>
<path fill-rule="evenodd" clip-rule="evenodd" d="M54.5057 62.8667C45.5933 62.4733 24.2137 35.1303 24.2137 35.1303C26.1349 34.2575 28.4365 30.5738 28.4365 30.5738L27.5064 29.5908C27.5064 29.5908 24.2753 33.92 21.7403 34.3745C21.7403 34.3745 21.0605 34.3459 22.1412 35.4179C23.222 36.4912 32.2359 46.3175 34.0382 48.5948C35.8398 50.872 46.8913 62.2448 49.9748 63.1649C52.8815 64.0315 52.8815 64.0315 53.7238 63.4189L54.5057 62.8667Z" fill="#4A5662"/>
<path fill-rule="evenodd" clip-rule="evenodd" d="M19.2856 34.5454C17.5101 34.8803 15.6792 34.7932 13.9553 34.3512L13.0178 34.0859C12.7034 34.0031 12.4102 33.86 12.1082 33.7435C11.0443 33.3196 10.0756 32.7064 9.1449 32.0589C8.70849 31.6966 8.25216 31.3567 7.8419 30.967C7.44845 30.5598 7.01205 30.195 6.66529 29.7462C6.3453 29.3596 5.99667 28.9954 5.71839 28.5764C5.42579 28.1692 5.11638 27.7733 4.87981 27.3344L4.388 26.5095C4.24295 26.2244 4.11097 25.9312 3.97587 25.6411C3.83953 25.3503 3.70257 25.0602 3.63658 24.7427C3.55067 24.4339 3.47472 24.122 3.41931 23.807C3.35021 23.4142 3.45418 23.4441 3.7088 23.7093C3.98148 23.9708 4.36621 24.4651 4.69492 25.0777C5.74578 27.3058 7.19072 29.3533 9.0951 30.9894C10.2275 31.9736 11.6202 32.7387 13.0614 33.2592C14.647 33.8263 16.3546 34.0959 18.0374 33.9291C18.5504 33.8631 19.0658 33.7797 19.5707 33.6626C20.0632 33.4958 20.5743 33.3918 21.0512 33.1702C22.5166 32.5707 23.885 31.696 25.0099 30.5978C25.8703 29.7325 26.5669 28.7401 27.0513 27.6569C27.1609 27.4197 27.2549 27.1825 27.342 26.9353C27.6807 26.0264 27.7691 25.7382 28.0797 25.5869C28.1482 25.5527 28.2198 25.501 28.2827 25.4836C28.4794 25.4201 28.5933 25.8801 28.3954 26.6409C27.8301 28.9113 26.214 30.9558 24.2405 32.3721C22.7706 33.4416 21.086 34.1874 19.2918 34.5647L19.2856 34.5454Z" fill="#4A5662"/>
<path fill-rule="evenodd" clip-rule="evenodd" d="M16.2901 24.0794C16.3909 23.9548 16.7925 23.4636 17.2171 22.9961C17.6398 22.5267 18.1017 22.0978 18.1901 22.0243C18.3152 21.9035 18.9272 21.4416 18.992 21.3918C18.9982 21.3881 19.0636 21.342 19.1619 21.2723C19.2105 21.2393 19.2671 21.2007 19.3288 21.1596L19.3761 21.1372C19.4016 21.1341 19.3817 21.098 19.386 21.078L19.3835 21.0413C19.3779 21.0058 19.3736 20.971 19.3692 20.9373C19.3487 20.7929 19.3319 20.6759 19.3244 20.6198C19.3188 20.5657 19.2385 19.7987 19.1557 19.0037C19.0685 18.2187 18.86 17.4293 18.7934 17.2705C18.751 17.156 18.634 16.7806 18.4914 16.4089C18.3451 16.0379 18.182 15.6675 18.116 15.5467C18.0749 15.4639 18.286 15.3556 18.3271 15.4209C18.5008 15.6967 18.6751 15.9769 18.8015 16.2807C18.8986 16.5129 19.1127 17.024 19.2565 17.5034C19.4053 17.9815 19.495 18.4185 19.5056 18.4534C19.5915 18.7815 19.6631 19.1127 19.7291 19.4426L19.8168 19.9039L19.9357 20.5389L20.003 20.8502L20.1138 21.3183C20.1125 21.3551 20.158 21.408 20.1175 21.431L20.0192 21.5088L19.8193 21.667L19.5585 21.8836L19.1046 22.2733C18.6639 22.6494 18.253 23.0478 17.867 23.4836C17.6473 23.7326 17.4406 23.9941 17.2264 24.2524C17.1019 24.4056 16.9525 24.5394 16.8218 24.6894C16.7253 24.799 16.5584 24.7791 16.3791 24.7212C16.1749 24.6577 16.2185 24.1684 16.2901 24.0794Z" fill="#4A5662"/>
<path fill-rule="evenodd" clip-rule="evenodd" d="M51.7312 28.7589C48.5363 28.0143 42.9894 24.1844 40.8273 24.1844C39.9389 24.1844 40.737 27.5549 41.151 27.723C41.5656 27.8911 39.9071 27.8705 39.6301 26.052C39.3524 24.2336 39.9513 21.7446 39.9513 21.7446C39.9513 21.7446 43.6518 24.2498 45.3003 24.6918C46.9488 25.1338 52.6762 27.9645 52.6762 27.9645C52.6762 27.9645 52.1365 28.8529 51.7312 28.7589Z" fill="#4A5662"/>
<path fill-rule="evenodd" clip-rule="evenodd" d="M39.5556 28.3979C39.5556 28.3979 40.1552 28.5592 39.9503 29.5908C39.7449 30.6229 36.4031 37.8482 36.4031 37.8482L35.2949 36.3062L39.5556 28.3979Z" fill="#4A5662"/>
<path fill-rule="evenodd" clip-rule="evenodd" d="M36.0264 11.1115C35.7195 12.6841 34.5192 13.9292 34.0386 13.9622C33.7927 13.9783 33.3663 14.0667 33.4373 13.8308C33.2038 14.6052 33.7211 16.1485 34.5105 15.3872C34.9743 14.9402 35.3597 14.373 35.7251 13.847C36.3707 12.9163 38.4836 11.505 37.9246 10.2125C37.9246 10.2125 37.152 8.48995 35.1362 9.94858C35.1362 9.94858 36.253 9.94858 36.0264 11.1115Z" fill="#4A5662"/>
<path fill-rule="evenodd" clip-rule="evenodd" d="M56.0038 20.4989C55.3289 19.6665 54.5134 18.9089 53.6462 18.2104C53.3287 17.957 52.9919 17.7273 52.6632 17.4857C51.5021 16.6341 50.2788 15.8516 49.0269 15.1157C48.4722 14.787 47.9032 14.4763 47.341 14.1688C46.6213 13.7679 45.8786 13.4043 45.2125 12.8832C45.0083 12.7046 45.0924 12.6784 45.3065 12.7463C45.5244 12.811 45.9017 12.938 46.3206 13.1522C47.8067 13.9129 49.3369 14.6332 50.7806 15.5384C51.6453 16.0775 52.5717 16.5986 53.4383 17.1907C54.3814 17.8499 55.3071 18.5559 56.1146 19.4038C56.612 19.9237 57.0708 20.4914 57.4338 21.132C57.5664 21.3767 57.6977 21.6263 57.7855 21.8959C57.8932 22.1406 57.9399 22.4823 58.0065 22.6809C58.0918 23.0731 58.5587 23.3309 59.0101 23.5544C59.7297 23.903 60.544 24.1894 61.212 24.7814C61.3639 24.9028 61.5021 25.0367 61.6316 25.1879C61.8713 25.4656 61.9809 25.6903 62.0002 25.8678C62.0257 26.0433 62.0052 26.1579 61.9516 26.2631C61.9273 26.3116 61.9093 26.367 61.8813 26.3994C61.7854 26.5115 61.5613 26.3079 61.2245 26.0072C60.8024 25.5048 60.2757 25.1313 59.6463 24.8244C59.3319 24.665 59.0001 24.5262 58.6378 24.3525C58.2854 24.1676 57.8808 23.9771 57.5085 23.5525C57.2246 23.2611 57.1032 22.6654 57.0777 22.5296C57.0241 22.2968 56.9444 22.0615 56.8336 21.8336C56.6226 21.3736 56.33 20.9291 55.9895 20.5132L56.0038 20.4989Z" fill="#4A5662"/>
<path fill-rule="evenodd" clip-rule="evenodd" d="M28.6043 27.3693C28.1286 28.8945 27.2745 30.2865 26.2124 31.4526C25.1435 32.6217 23.8443 33.5412 22.4566 34.2397C21.9455 34.4869 21.4331 34.7241 20.9021 34.9239C20.3549 35.087 19.8176 35.2962 19.2573 35.4089C17.2832 35.8359 15.2195 35.7438 13.2958 35.2178C11.3684 34.6892 9.58227 33.7336 8.04769 32.4922C6.69053 31.3841 5.4859 30.0799 4.52779 28.6268C3.3188 26.761 2.41175 24.6164 2.3084 22.3851C2.25922 21.6947 2.39992 21.7782 2.72053 22.2999C2.87804 22.5613 3.10776 22.9237 3.3076 23.365C3.51428 23.807 3.85544 24.2796 4.01606 24.8536C4.75378 26.8389 5.89989 28.6443 7.32366 30.1938C8.74556 31.7477 10.5111 33.009 12.4995 33.794C12.8009 33.9011 13.1034 34.0094 13.4066 34.1177C13.711 34.2298 14.0347 34.2677 14.3504 34.3449C14.9823 34.5174 15.6403 34.5217 16.2934 34.5871C16.6202 34.594 16.9483 34.5635 17.2764 34.5541L17.7688 34.533C17.9307 34.5112 18.0919 34.4782 18.2544 34.4514L19.2237 34.2833L20.1625 33.9976C22.9092 33.1191 25.4529 31.3299 26.8244 28.7719C27.2459 27.9906 27.5578 27.1501 27.7539 26.2811C27.9107 25.4008 28.0546 24.5099 28.0328 23.6103L28.0409 23.1005L27.9923 22.5912C27.9556 22.2525 27.9369 21.9108 27.8877 21.5733C27.7389 20.9066 27.6437 20.2261 27.4046 19.5818C27.0186 18.267 26.3948 17.0306 25.6615 15.887C24.501 14.1164 22.9914 12.6286 21.2781 11.4992C20.8834 11.2826 20.5111 11.0411 20.1065 10.8506C18.6086 10.1166 18.1205 10.063 17.8205 9.62226C17.7501 9.52826 17.6493 9.42865 17.6082 9.34149C17.5391 9.19395 17.6848 9.09808 18.0377 9.05886C18.2133 9.03831 18.4411 9.0352 18.7107 9.05699C18.9684 9.10741 19.2679 9.18088 19.6028 9.27799C21.5576 9.92731 23.2522 11.2073 24.6947 12.7064C26.1303 14.2229 27.3013 16.0271 28.0975 18.003C29.2916 20.929 29.563 24.2908 28.6323 27.3743L28.6043 27.3693Z" fill="#4A5662"/>
<path fill-rule="evenodd" clip-rule="evenodd" d="M18.5694 20.9791C18.5769 20.9667 18.5837 20.9493 18.5875 20.9212L18.4791 20.3989C18.4007 20.0354 18.3135 19.6699 18.2214 19.3064C18.1554 19.0405 18.0483 18.7871 17.9861 18.5195C17.757 17.5775 17.5241 16.6325 17.2515 15.6993C17.1301 15.2853 16.9744 14.8806 16.8126 14.4853C16.5928 13.9817 16.3562 13.4843 16.2809 12.9252C16.2572 12.7515 16.4888 12.683 16.7727 12.7266C17.0541 12.7708 17.4046 12.9246 17.5515 13.2122C18.0166 14.2519 18.3565 15.337 18.5937 16.4619C18.7313 17.1361 19.0089 17.7929 19.2019 18.4665L19.4958 19.5853L19.7728 20.7681L19.8873 21.2948C19.8979 21.3782 19.9427 21.4747 19.9247 21.5457L19.69 21.6826L19.2299 21.9541L18.9112 22.1489C18.321 22.5156 17.752 22.914 17.2571 23.3946C16.8723 23.7688 16.5667 24.2083 16.246 24.6372C16.1757 24.7319 16.1122 24.8296 16.0356 24.9211C15.7499 25.2554 15.5961 25.3084 15.2923 25.1689C15.2232 25.1378 15.1497 25.1122 15.0869 25.0736C14.8739 24.9448 14.8409 24.6734 15.0003 24.3714C15.471 23.4787 16.195 22.6831 17.0423 21.9821C17.3567 21.7231 17.6891 21.4853 18.0272 21.2674L18.2818 21.1055L18.5003 20.9723C18.5115 20.9704 18.5233 20.971 18.5352 20.9661L18.5694 20.9791Z" fill="#4A5662"/>
<path fill-rule="evenodd" clip-rule="evenodd" d="M11.168 24.9224C10.6936 24.6845 10.2192 24.4461 9.74611 24.2089C9.5718 24.1243 9.38503 24.0726 9.21196 23.9829C8.59875 23.6773 8.01604 23.2938 7.41155 22.9707C7.14697 22.8181 6.86371 22.7048 6.5985 22.5598C6.25112 22.3905 5.9 22.2193 5.59682 21.9609C5.50219 21.8806 5.57565 21.7735 5.73067 21.6895C5.88506 21.6079 6.12847 21.5301 6.34263 21.5867C6.71865 21.6969 7.10214 21.7822 7.45886 21.9329C7.81434 22.0854 8.16795 22.2491 8.5091 22.4465C8.92123 22.6781 9.39997 22.7976 9.83887 22.9956L11.295 23.6474L12.1946 24.0514C12.6515 24.25 13.1029 24.4698 13.5679 24.6503C13.9284 24.7929 14.3125 24.8701 14.6885 25.0002C14.7713 25.0288 14.8579 25.0463 14.9388 25.0817C15.2376 25.2212 15.2874 25.355 15.171 25.6794C15.1442 25.7528 15.1224 25.8288 15.0895 25.8998C14.9774 26.1382 14.7576 26.2627 14.5366 26.2272C13.8761 26.1195 13.2336 25.8979 12.593 25.6103C12.1162 25.3918 11.6362 25.1708 11.1574 24.951L11.168 24.9224Z" fill="#4A5662"/>
<path fill-rule="evenodd" clip-rule="evenodd" d="M52.8586 53.7597C53.6131 54.6699 54.3745 55.608 55.0051 56.667C55.6184 57.726 56.2085 58.8851 56.2857 60.2834C56.3237 60.9713 56.1842 61.7246 55.8213 62.359C55.4658 62.9996 54.9255 63.4727 54.3745 63.8307C54.1193 64.0087 53.76 64.1718 53.4127 64.2932L52.8779 64.4047C52.7011 64.4308 52.5274 64.4221 52.3525 64.429C51.6614 64.4146 51.0158 64.2658 50.4294 64.0448C48.7056 63.4055 47.2469 62.4268 45.8717 61.3772C43.4506 59.5208 41.2692 57.4265 39.1849 55.2526C37.1012 53.0786 35.1103 50.8269 33.1667 48.5384C31.4416 46.5033 29.7427 44.4476 27.9952 42.4785C26.8784 41.2085 25.736 39.9559 24.5899 38.7133C23.4394 37.4844 22.3101 36.1994 21.1434 35.0683C21.0588 34.978 20.9878 34.8965 20.9287 34.8249C20.8708 34.7551 20.8346 34.7246 20.8004 34.6779C20.7357 34.5933 20.707 34.5285 20.7269 34.4918C20.7494 34.4221 21.0395 34.4109 21.4995 34.5852C22.4203 34.9207 23.8366 35.8981 25.19 37.3238C27.5588 39.8825 29.8124 42.5127 32.0275 45.1947C34.2207 47.8635 36.4538 50.5025 38.7803 53.078C40.1698 54.6194 41.6639 56.121 43.2197 57.5629C44.7804 58.9953 46.4071 60.3867 48.1571 61.5135C49.114 62.1292 50.1175 62.6871 51.1528 63.0046C51.6695 63.1484 52.1881 63.2274 52.6724 63.1888C52.9028 63.1421 53.1369 63.1054 53.338 62.9971C53.5446 62.9137 53.793 62.7468 53.9873 62.5968C54.8277 61.9879 55.2162 61.0298 55.0051 59.992C54.824 58.9599 54.2662 57.9501 53.6411 57.0119C52.8629 55.8484 51.9347 54.7583 50.9866 53.6744C50.0472 52.6086 49.038 51.5671 48.0438 50.528C45.0089 47.3867 41.9254 44.254 38.8332 41.2085C36.4295 38.8391 34.0097 36.5823 31.5911 34.2832C31.0569 33.7784 30.5346 33.2847 29.9961 32.776C28.0176 30.8717 27.4897 30.162 27.3204 29.4933C27.2811 29.3396 27.2096 29.1559 27.2139 29.0513C27.2257 28.8764 27.4505 28.9293 27.8825 29.1945C28.3183 29.4622 28.9371 29.9491 29.6929 30.6146C34.1223 34.6194 38.6396 39.0003 43.097 43.4808C44.7524 45.1455 46.4046 46.8201 48.0432 48.5147C49.6718 50.2118 51.3377 51.9033 52.881 53.7329L52.8586 53.7597Z" fill="#4A5662"/>
<path fill-rule="evenodd" clip-rule="evenodd" d="M50.2249 27.3101C48.4394 26.5232 46.649 25.7425 44.8635 24.9282C44.2117 24.6288 43.5468 24.3611 42.9006 24.033C42.3366 23.7454 41.7533 23.436 41.2073 23.0762C40.6682 22.7244 40.139 22.3471 39.6354 21.9288C38.6349 21.0996 37.7092 20.0618 37.2304 18.7718C37.0219 18.2035 36.9011 17.5996 36.8781 16.9951C36.8669 16.3881 36.9397 15.7892 37.0748 15.2295C37.2348 14.5018 37.4882 13.8014 37.8225 13.1359C38.163 12.4797 38.5677 11.8261 39.1622 11.343C39.5463 11.0491 39.6067 11.2452 39.527 11.6673C39.4592 12.1068 39.3141 12.7636 39.0078 13.4466C38.7264 14.0542 38.5459 14.7078 38.3535 15.341C38.1705 15.9878 38.0771 16.6041 38.1176 17.2074C38.1742 18.4232 38.8397 19.5712 39.8028 20.5474C40.3718 21.1375 41.071 21.6474 41.8137 22.1068C42.5315 22.5613 43.3451 22.9255 44.142 23.309C45.9044 24.1401 47.7086 24.9251 49.509 25.7108L52.839 27.1613C54.5211 27.8922 56.2008 28.6542 57.8648 29.4037C59.1566 29.9939 60.4478 30.52 61.7091 31.188C61.988 31.333 62.2625 31.4775 62.5371 31.6449C63.5444 32.2824 63.8096 32.6784 63.7386 33.0905C63.7243 33.1826 63.7199 33.2822 63.6869 33.3476C63.5556 33.553 63.169 33.3731 62.5041 32.966C61.4887 32.364 60.342 31.8267 59.1815 31.2851C58.0174 30.7453 56.8233 30.2087 55.6206 29.6789C53.8233 28.9007 52.0172 28.1188 50.2156 27.3387L50.2249 27.3101Z" fill="#4A5662"/>
<path fill-rule="evenodd" clip-rule="evenodd" d="M57.2845 21.2493C56.6284 19.8647 55.4088 18.6906 54.0597 17.707C53.5679 17.3409 53.0232 17.044 52.4996 16.7146C50.632 15.5729 48.6311 14.5762 46.5991 13.6361C45.697 13.219 44.77 12.8386 43.8555 12.452C42.6808 11.9608 41.4749 11.4746 40.4271 10.679C40.0997 10.4325 40.2914 10.2451 40.7135 10.1841C41.1312 10.1312 41.7911 10.1555 42.4436 10.4362C44.7551 11.4659 47.1793 12.4134 49.5188 13.6411C50.9183 14.3707 52.4243 15.0524 53.8151 15.9252C55.326 16.897 56.7977 18.04 57.8822 19.5734C58.2146 20.0428 58.4966 20.5545 58.7164 21.0936C58.834 21.3595 58.9056 21.6452 58.9972 21.9204L59.088 22.3487L59.1329 22.5622C59.1453 22.6295 59.1447 22.6687 59.1515 22.7235L59.1659 22.8741L59.1802 23.0285C59.2188 23.0615 59.2692 23.0783 59.314 23.1032L59.7486 23.3199C60.1109 23.5066 60.4651 23.7108 60.8082 23.9337C61.4936 24.377 62.1329 24.8924 62.7113 25.4664C63.6482 26.3928 64.4488 27.4636 64.9749 28.6944C65.0932 28.9639 65.194 29.2335 65.2774 29.518C65.3472 29.7832 65.3926 30.0067 65.4181 30.1953C65.4312 30.3864 65.4131 30.5446 65.3945 30.6741C65.3465 30.9337 65.2482 31.0893 65.1081 31.2175C65.0434 31.2754 64.9842 31.3489 64.9213 31.3838C64.7084 31.5027 64.4737 31.1024 64.1643 30.4481C63.797 29.4607 63.3618 28.5144 62.758 27.6634C62.1603 26.8105 61.4014 26.0572 60.5305 25.4297C60.1638 25.1682 59.7791 24.9279 59.3788 24.71L59.0744 24.5507L58.6678 24.3539C58.5738 24.3085 58.4474 24.2525 58.3478 24.1946C58.2563 24.1217 58.1741 24.0439 58.1312 23.9424L58.0913 23.8746L58.0714 23.8397L58.0615 23.8217C58.1299 23.7725 57.9668 23.8876 57.9836 23.8758L57.983 23.874L57.9824 23.8715L57.9805 23.8665L57.9768 23.8565L57.9214 23.6978L57.8112 23.3796C57.7514 22.7017 57.6948 22.5336 57.6089 22.1862C57.556 22.0318 57.5136 21.8737 57.4545 21.7206L57.2546 21.2667L57.2845 21.2493Z" fill="#4A5662"/>
<path fill-rule="evenodd" clip-rule="evenodd" d="M39.8768 20.8308C40.0088 21.0325 40.1458 21.8244 40.167 22.5559C40.2 23.2917 40.208 23.9853 40.213 24.1148C40.2149 24.3084 40.2012 25.1525 40.2224 25.2391C40.2273 25.2528 40.218 25.5939 40.2423 25.9363C40.2641 26.2794 40.3344 26.6056 40.373 26.6523C40.3768 26.6597 40.3929 26.6921 40.411 26.7519C40.4452 26.7681 40.3954 26.7917 40.5511 26.8876C40.7932 27.0519 41.2004 27.2512 41.615 27.4498C42.4579 27.8687 43.3252 28.3002 43.5094 28.3923C43.6458 28.4465 44.0585 28.6855 44.4532 28.9601C44.8467 29.2371 45.2077 29.5627 45.3347 29.666C45.42 29.7382 45.1903 30.0003 45.1175 29.9568C44.8112 29.76 44.4893 29.5913 44.1743 29.4108C43.9352 29.2682 43.3911 28.9794 42.8732 28.7615C42.3583 28.5398 41.8846 28.3643 41.8447 28.3506C41.4762 28.2348 41.1064 28.1196 40.7322 27.9833C40.5567 27.9198 40.3817 27.8507 40.2012 27.766C40.1389 27.7405 40.0736 27.7038 40.0095 27.6689L39.9123 27.616L39.7928 27.5164C39.6141 27.3738 39.5332 27.2225 39.451 27.0712C39.3053 26.7737 39.2406 26.4966 39.1815 26.2252C39.0856 25.7222 39.019 25.236 38.9935 24.7554C38.9748 24.0662 38.9561 23.3795 38.9368 22.691C38.9237 22.3081 38.8633 21.9346 38.8503 21.5766C38.8359 21.3625 38.8316 21.1664 38.8689 20.9485C38.8752 20.809 39.0215 20.6552 39.1354 20.509C39.1989 20.428 39.324 20.4641 39.4971 20.5451C39.6764 20.6279 39.842 20.7642 39.8768 20.8308Z" fill="#4A5662"/>
<path fill-rule="evenodd" clip-rule="evenodd" d="M23.5867 66.8795C22.8807 67.0146 22.1075 66.9175 21.465 66.6399C20.8686 66.3591 20.2554 66.0366 19.7848 65.4919C19.3004 64.982 18.9605 64.2991 18.8622 63.6174C18.7501 62.9382 18.7781 62.2602 18.9176 61.6383C19.1 60.7207 19.4137 59.8659 19.8115 59.069C20.1558 58.3737 20.563 57.6913 20.9919 57.0539C21.4159 56.4145 21.8541 55.7957 22.2912 55.1744L24.9457 51.4858C25.732 50.3976 26.4965 49.2857 27.2442 48.1844C28.2048 46.7681 29.0981 45.2995 30.2585 44.0239C30.6153 43.623 30.7236 43.783 30.6588 44.2866C30.5941 44.7903 30.4005 45.6674 29.8676 46.4998C27.901 49.3934 25.8328 52.2098 23.7149 55.0175C22.4661 56.7146 21.198 58.4975 20.4353 60.4144C20.2231 60.9379 20.0506 61.474 19.9647 62.0112C19.8769 62.5447 19.8452 63.0895 19.9759 63.5794C20.1882 64.5742 21.0411 65.3257 22.0695 65.6706C22.6647 65.8791 23.3109 65.8505 23.9222 65.6152C24.5355 65.3817 25.1032 64.9708 25.6162 64.4989C27.1676 63.0372 28.3498 61.1353 29.3969 59.2384C30.2094 57.7505 30.8674 56.2184 31.5752 54.6844C31.7296 54.3458 31.8853 54.0158 32.059 53.6803C32.7014 52.437 33.0625 52.0952 33.5101 52.0286C33.6035 52.0068 33.7006 51.9645 33.7623 51.9595C33.8687 51.9521 33.87 52.0878 33.8488 52.3629C33.8388 52.645 33.7075 53.0085 33.5076 53.4667C32.3603 56.2115 30.9807 59.1132 29.2208 61.8668C28.5646 62.8884 27.8244 63.8764 26.9628 64.799C26.5214 65.2547 26.0507 65.6948 25.5029 66.0765C24.9501 66.4481 24.3163 66.7694 23.596 66.9069L23.5867 66.8795Z" fill="#4A5662"/>
<path fill-rule="evenodd" clip-rule="evenodd" d="M34.8855 35.6184C34.9316 35.4914 35.2217 35.0531 35.4975 34.6167C35.7695 34.1784 36.0366 33.7476 36.0852 33.6686C36.158 33.5509 36.4985 33.0273 36.5272 32.9638C36.5334 32.9545 36.6778 32.7453 36.8341 32.5187C36.9916 32.2933 37.1491 32.0449 37.1964 31.9659C37.2506 31.8918 38.6108 29.7957 38.703 29.5143C38.7851 29.3306 39.3703 28.3327 39.4625 28.1764C39.4917 28.1322 39.8167 28.1347 39.8192 28.2331C39.8136 28.5873 39.7233 28.8276 39.5963 29.0804C39.4102 29.4595 38.7814 30.737 38.7534 30.7936L38.4228 31.5762L38.2597 31.9372C38.1047 32.2709 37.9503 32.6034 37.7947 32.9383C37.6521 33.2521 37.5326 33.5789 37.3769 33.8858C37.1485 34.3378 36.9219 34.7873 36.6934 35.2386C36.5639 35.4957 36.4506 35.7628 36.3142 36.0168C36.2414 36.1712 36.0883 36.2777 35.9874 36.414C35.9532 36.4669 35.8579 36.4682 35.7427 36.447C35.6226 36.4233 35.4663 36.3673 35.358 36.3356C35.2989 36.3187 35.2553 36.2814 35.2005 36.2198C35.1513 36.1619 35.0567 36.0585 35.0137 35.9807C34.9036 35.8107 34.8668 35.662 34.8855 35.6184Z" fill="#4A5662"/>
<path fill-rule="evenodd" clip-rule="evenodd" d="M43.5718 34.955C44.1782 34.1426 44.8294 33.3544 45.5161 32.5943C45.7663 32.3172 45.9992 32.0228 46.2756 31.765C47.2218 30.8474 48.3406 30.0288 49.5377 29.4865C50.0569 29.235 50.5755 28.9847 51.0897 28.7363C51.416 28.5795 51.7285 28.3989 52.0497 28.2476C52.3685 28.1069 52.6804 27.97 53.0147 27.8231C53.2145 27.7378 53.3035 27.8947 53.2525 28.1692C53.2039 28.4425 52.9997 28.8447 52.6343 29.0943C51.2914 29.87 49.925 30.3176 48.7172 31.0404C47.9938 31.4824 47.3632 32.1336 46.7618 32.7835C46.0988 33.5026 45.4743 34.2696 44.8798 35.0664C44.5169 35.5589 44.1595 36.0575 43.8171 36.568C43.3029 37.3443 42.7681 38.1175 42.2863 38.9132C41.9121 39.5345 41.5928 40.1738 41.1887 40.7783C41.1047 40.914 41.0206 41.0491 40.9198 41.1767C40.7411 41.4183 40.5917 41.5577 40.4485 41.625C40.3134 41.6966 40.2057 41.7121 40.0874 41.696C40.0339 41.6885 39.9766 41.6891 39.9337 41.6748C39.7942 41.6287 39.8334 41.3479 39.986 40.9476C40.2443 40.3656 40.5344 39.7953 40.8258 39.1989C41.1476 38.6262 41.4907 38.0459 41.843 37.4688C42.3591 36.6029 42.9555 35.7736 43.5476 34.94L43.5718 34.955Z" fill="#4A5662"/>
<path fill-rule="evenodd" clip-rule="evenodd" d="M35.5221 14.6814C35.8365 14.8439 36.1484 14.9976 36.4715 15.1464C36.6333 15.2205 36.7964 15.2921 36.9695 15.3612C37.0548 15.3948 37.1451 15.4278 37.2416 15.4596C37.2963 15.4751 37.3374 15.4907 37.404 15.505C37.4675 15.5169 37.5267 15.538 37.6773 15.5293C37.7159 15.5299 37.6923 15.3008 37.65 15.0748C37.6313 14.9709 37.612 14.8675 37.612 14.8675C37.6051 14.8121 37.6064 14.7567 37.6145 14.7026C37.6188 14.6752 37.6251 14.6484 37.6331 14.6222C37.6406 14.6185 37.6313 14.6185 37.6313 14.6185L37.6051 14.6135C37.5871 14.611 37.5466 14.5961 37.5186 14.5893L37.3051 14.5108C37.1569 14.4523 37.0044 14.3851 36.8525 14.3153C36.5493 14.1759 36.2424 14.024 35.9442 13.8702C35.9404 13.8677 35.9112 13.9163 35.8695 13.9922C35.829 14.0676 35.7748 14.1684 35.7207 14.2693C35.6142 14.4722 35.5127 14.6777 35.5221 14.6814Z" fill="#4A5662"/>
<path fill-rule="evenodd" clip-rule="evenodd" d="M36.3737 13.0736L38.1043 13.7578C38.1224 13.7715 38.4629 12.9093 38.4405 12.9074L36.7098 12.2232C36.6949 12.2151 36.3568 13.0692 36.3737 13.0736Z" fill="#4A5662"/>
<path fill-rule="evenodd" clip-rule="evenodd" d="M37.3073 10.8806C37.1616 11.007 37.0844 11.1695 36.9966 11.3195L36.7414 11.7715L36.2409 12.6642C35.9053 13.2526 35.5617 13.834 35.1819 14.3682C34.992 14.6327 34.7909 14.888 34.5793 15.0947C34.4753 15.1906 34.3632 15.287 34.2748 15.3288C34.1771 15.3755 34.1584 15.3655 34.1584 15.3655C34.1485 15.3692 34.075 15.2945 34.0246 15.1924C34.0084 15.1383 33.9891 15.0866 33.9667 15.0343C33.9505 14.9752 33.9468 14.9023 33.9356 14.8363C33.9019 14.5618 33.9281 14.2437 33.9766 13.9299C34.1983 12.6717 34.6976 11.3656 35.3724 10.2942C35.4602 10.1759 35.5554 10.0371 35.6457 9.95989L35.7117 9.89204C35.7285 9.88332 35.7409 9.87958 35.7534 9.86962C35.7602 9.84783 35.8393 9.83352 35.8897 9.81484C36.1151 9.75134 36.3809 9.76628 36.6287 9.85468C36.874 9.94059 37.118 10.072 37.2749 10.2463C37.4181 10.4312 37.5003 10.5644 37.4436 10.7312C37.4237 10.8016 37.9977 11.3332 38.1577 11.0705C38.4372 10.6142 38.2716 9.97297 37.9728 9.65733C37.6796 9.31431 37.316 9.07899 36.9113 8.95634C36.5092 8.8337 36.0591 8.81378 35.6289 8.95074C35.5206 8.9937 35.4247 9.00988 35.2983 9.1014C35.2404 9.14 35.18 9.18171 35.1277 9.22342L35.0163 9.34046C34.8557 9.49921 34.7679 9.65422 34.6534 9.81048C34.2499 10.4324 33.958 11.0749 33.7027 11.7366C33.4531 12.3997 33.2476 13.0795 33.1325 13.8004C33.0789 14.1621 33.0428 14.5331 33.0908 14.939C33.1076 15.0418 33.115 15.1414 33.1418 15.2472C33.1773 15.3562 33.2165 15.4657 33.2582 15.5728C33.3622 15.7695 33.4911 15.9961 33.7942 16.1487C34.1111 16.3018 34.4616 16.214 34.6639 16.1076C34.8849 15.9992 35.0325 15.8648 35.1819 15.7328C35.4652 15.4645 35.6905 15.1806 35.9041 14.893C36.3261 14.3171 36.6878 13.7213 37.0396 13.1256C37.3745 12.5267 37.758 11.939 38.035 11.3575C38.0494 11.2125 37.4592 10.7767 37.3073 10.8806Z" fill="#4A5662"/>
<path fill-rule="evenodd" clip-rule="evenodd" d="M66.2967 19.2838C66.2363 19.3591 66.1547 19.252 66.0613 19.0348C66.0315 18.9657 65.9947 18.7453 66.0091 18.7098C66.0377 18.6419 66.067 18.576 66.0999 18.5268C66.1199 18.4981 66.4878 18.3163 66.6111 18.2435C66.73 18.1744 66.8563 18.1395 66.9846 18.1122L67.7659 17.9285C67.8238 17.9154 67.8842 17.9136 67.9471 17.9223C68.1612 17.9534 68.3629 17.9173 68.5615 17.8575C68.5945 17.8476 68.6306 17.8476 68.6568 17.8046C68.6978 17.7324 69.2525 17.6291 69.3297 17.6459C69.5202 17.6882 69.7064 17.7038 69.8938 17.7343C69.9205 17.7386 69.9461 17.7199 69.9759 17.7617C70.0444 17.8588 70.0967 17.8332 70.1534 17.8339C70.2312 17.8332 70.3109 17.8413 70.3912 17.8669C70.4316 17.8793 70.4758 17.9353 70.5182 17.9789C70.5568 18.0188 70.5555 18.18 70.5462 18.1981C70.5176 18.2522 70.5537 18.3232 70.5636 18.3892C70.5674 18.4116 70.5717 18.4402 70.5723 18.4583C70.5717 18.4988 70.1795 18.8194 70.1347 18.8243C70.1297 18.8256 69.9778 18.8667 69.8135 18.9115C69.6522 18.9588 69.4847 19.0092 69.4505 19.0248C69.4163 19.041 69.3752 19.0223 69.336 19.0136C69.3173 19.0086 68.8373 19.1767 68.8168 19.178C68.7122 19.1842 68.6163 19.2415 68.4968 19.1705C68.4737 19.1568 68.4532 19.1655 68.4333 19.1705C68.2583 19.2184 68.0741 19.2166 67.8923 19.2278C67.7989 19.2334 67.7099 19.2632 67.6183 19.2794C67.6022 19.2825 67.5829 19.272 67.5654 19.2701C67.543 19.2664 67.52 19.2576 67.4994 19.2632C67.2847 19.3143 67.0593 19.3068 66.8489 19.3878C66.8003 19.4064 66.5413 19.3467 66.4859 19.3716C66.4548 19.3846 66.321 19.2533 66.2967 19.2838Z" fill="#4A5662"/>
<path fill-rule="evenodd" clip-rule="evenodd" d="M60.3567 9.59868C60.2764 9.55884 60.3698 9.47106 60.5647 9.34593C60.6269 9.30546 60.833 9.23075 60.8685 9.23947C60.9382 9.25441 61.0061 9.27309 61.059 9.29737C61.0945 9.31293 61.3136 9.64724 61.3945 9.75992C61.4723 9.86887 61.5172 9.98777 61.5514 10.1079C61.6242 10.352 61.6971 10.5985 61.7693 10.8425C61.7842 10.8973 61.7874 10.9546 61.7811 11.0137C61.7587 11.2186 61.7986 11.4072 61.8596 11.5927C61.8695 11.6245 61.8702 11.6581 61.9119 11.6817C61.9828 11.7178 62.088 12.242 62.0694 12.3167C62.0302 12.4985 62.0158 12.6747 61.9816 12.8571C61.9772 12.8826 61.994 12.9075 61.9542 12.9349C61.8614 12.9978 61.8826 13.0495 61.8801 13.1049C61.8758 13.1815 61.8677 13.2574 61.8353 13.3371C61.8204 13.3757 61.7643 13.4143 61.7195 13.451C61.6797 13.484 61.5271 13.4666 61.5109 13.4554C61.4624 13.4249 61.392 13.451 61.3292 13.4535C61.308 13.4541 61.28 13.4548 61.2632 13.4548C61.2277 13.4473 60.9488 13.0987 60.9413 13.0594C60.9401 13.0532 60.9083 12.9181 60.8635 12.7724C60.8218 12.628 60.7707 12.4755 60.7558 12.4456C60.7402 12.4145 60.7583 12.3771 60.7664 12.341C60.7707 12.3236 60.6033 11.8903 60.6002 11.8716C60.5927 11.7764 60.5342 11.6911 60.5995 11.5796C60.6126 11.5572 60.6033 11.5398 60.5977 11.5217C60.5466 11.3642 60.5429 11.1961 60.5236 11.0312C60.5149 10.9459 60.4825 10.8668 60.4613 10.7853C60.4582 10.7709 60.4669 10.7529 60.4688 10.7367C60.4707 10.7162 60.4775 10.695 60.4719 10.6763C60.4109 10.4864 60.4034 10.281 60.3094 10.1023C60.2876 10.0619 60.3237 9.82218 60.2926 9.7786C60.2764 9.7537 60.3891 9.61487 60.3567 9.59868Z" fill="#4A5662"/>
<path fill-rule="evenodd" clip-rule="evenodd" d="M13.8611 4.81593C13.9066 4.89811 13.7877 4.94231 13.5748 4.97779C13.5069 4.98837 13.3089 4.96472 13.2834 4.93795C13.2342 4.88628 13.1863 4.83274 13.1533 4.7792C13.1296 4.74683 13.0917 4.26809 13.0761 4.10871C13.0574 3.94996 13.0755 3.80553 13.0991 3.65985L13.2236 2.80198C13.2317 2.74035 13.2535 2.67996 13.2828 2.62455C13.3824 2.43094 13.4316 2.22737 13.4378 2.02566C13.4384 1.99204 13.4503 1.95905 13.4154 1.92294C13.3724 1.85446 13.3942 1.35455 13.4179 1.29417C13.4982 1.13542 13.5461 0.971064 13.5766 0.802975C13.5816 0.778073 13.5673 0.756284 13.6015 0.727024C13.6856 0.653564 13.6625 0.605627 13.6607 0.552088C13.6588 0.494191 13.6569 0.431936 13.6532 0.321745C13.6538 0.281279 13.6831 0.225872 13.7005 0.172955C13.7167 0.125019 13.8225 0.085176 13.8406 0.0914015C13.8891 0.107588 13.9253 0.0540485 13.9651 0.0266564C13.9788 0.0173181 13.9969 0.00548967 14.0093 0.00113183C14.0298 -0.0237701 14.5198 0.369681 14.5472 0.448122C14.5702 0.453103 14.8616 1.26677 14.8354 1.36078C14.8473 1.40934 14.823 1.45852 14.8087 1.50708C14.8124 1.53198 14.8597 2.16885 14.8473 2.19126C14.8242 2.31951 14.8423 2.44775 14.7302 2.5567C14.7078 2.57786 14.7097 2.60339 14.7078 2.62891C14.6773 2.83809 14.5876 3.03419 14.5105 3.22531C14.4719 3.3243 14.4563 3.42515 14.427 3.52476C14.4221 3.54282 14.4034 3.55776 14.3928 3.57394C14.3791 3.59449 14.3604 3.61379 14.3548 3.6362C14.2994 3.87028 14.1861 4.08879 14.1662 4.32162C14.1587 4.37516 14.0012 4.60115 14.0037 4.66278C14.0031 4.6964 13.8412 4.78231 13.8611 4.81593Z" fill="#4A5662"/>
<path fill-rule="evenodd" clip-rule="evenodd" d="M4.83193 10.6937C4.92718 10.6508 4.95457 10.7908 4.9527 11.0436C4.95146 11.1239 4.88983 11.353 4.85745 11.3785C4.79395 11.429 4.72983 11.4763 4.66944 11.5062C4.63334 11.5273 4.12969 11.4981 3.95849 11.485C3.78978 11.4788 3.63788 11.4302 3.48722 11.3754C3.18653 11.2615 2.88397 11.1538 2.59449 11.0324C2.52974 11.0062 2.4706 10.9676 2.41706 10.9191C2.23216 10.7522 2.01738 10.6557 1.79762 10.5773C1.76089 10.5636 1.72852 10.54 1.67809 10.5599C1.59405 10.5898 1.03375 10.3233 0.973367 10.2654C0.82271 10.1141 0.658357 9.99398 0.497117 9.86573C0.474083 9.84706 0.440465 9.85079 0.434239 9.79601C0.416185 9.67274 0.354553 9.6634 0.301636 9.62854C0.228176 9.57998 0.154092 9.53516 0.0862343 9.46917C0.0544843 9.43057 0.0333176 9.36022 0.00654797 9.30606C-0.018354 9.25563 0.0345627 9.1554 0.0519941 9.14607C0.101175 9.12116 0.0881019 9.05642 0.0993078 9.00911C0.103043 8.99292 0.108024 8.97113 0.113626 8.95868C0.127323 8.91697 0.72248 8.79495 0.782867 8.80927C0.803411 8.79744 1.5486 8.9979 1.63514 9.01222C1.68121 9.01907 1.71358 9.05891 1.74906 9.09004C1.76774 9.10311 2.35854 9.2519 2.37908 9.26311C2.48927 9.31976 2.61441 9.33906 2.68476 9.47788C2.69845 9.50528 2.72335 9.51088 2.74577 9.5196C2.94187 9.59306 3.11431 9.7157 3.29112 9.82278C3.38201 9.87818 3.48286 9.9062 3.57811 9.9504C3.59555 9.95787 3.60675 9.97966 3.62169 9.99273C3.63975 10.0095 3.65656 10.0313 3.67834 10.0394C3.90869 10.1253 4.116 10.2679 4.35755 10.3096C4.41171 10.3214 4.62524 10.5138 4.69185 10.5175C4.72734 10.5219 4.79271 10.7124 4.83193 10.6937Z" fill="#4A5662"/>
<path fill-rule="evenodd" clip-rule="evenodd" d="M12.5175 62.9453C12.4808 62.8338 12.6071 62.7722 12.8269 62.7567C12.8966 62.7517 13.094 62.8089 13.117 62.8401C13.1618 62.9023 13.2054 62.9615 13.2334 63.0163C13.2421 63.0524 13.2689 63.5155 13.3249 63.6618C13.3592 63.8069 13.3772 63.9463 13.3947 64.0883C13.4339 64.3747 13.5105 64.6561 13.6287 64.9181C13.6543 64.9767 13.6636 65.0414 13.6792 65.1055C13.7159 65.3309 13.8292 65.5332 13.9817 65.6976C14.0073 65.7243 14.0259 65.7586 14.0745 65.7654C14.1467 65.7854 14.557 66.1994 14.6024 66.2685C14.7089 66.4446 14.8514 66.5891 15.0033 66.7347C15.0251 66.7547 15.0587 66.7565 15.0662 66.8014C15.0855 66.9053 15.1503 66.9209 15.2063 66.9545C15.2816 67.0062 15.3657 67.0398 15.4422 67.0989C15.4802 67.1269 15.5095 67.1861 15.5425 67.2371C15.573 67.2826 15.5207 67.3922 15.502 67.3996C15.4491 67.4227 15.4678 67.4899 15.459 67.5397C15.4559 67.5559 15.4516 67.5783 15.446 67.5907C15.441 67.6275 14.7805 67.6393 14.7114 67.5945C14.7008 67.597 14.4804 67.5117 14.2494 67.4065C14.0253 67.2932 13.7894 67.1618 13.7458 67.1301C13.6954 67.102 13.6649 67.0491 13.63 67.0037C13.5908 67.0099 13.0236 66.487 13.018 66.4477C12.9259 66.3183 12.8126 66.1981 12.8001 66.0207C12.7976 65.9864 12.7771 65.9615 12.759 65.936C12.6159 65.705 12.5312 65.4442 12.4627 65.1852C12.4198 65.042 12.3849 64.9231 12.3457 64.7918C12.3401 64.7681 12.3438 64.742 12.345 64.7164C12.3457 64.6841 12.3513 64.6511 12.345 64.6212C12.2735 64.3068 12.2791 63.9831 12.2554 63.6631C12.2386 63.5859 12.3693 63.2447 12.3687 63.1626C12.3631 63.1128 12.5306 62.9876 12.5175 62.9453Z" fill="#4A5662"/>
</svg>
