<svg xmlns="http://www.w3.org/2000/svg" xmlns:xlink="http://www.w3.org/1999/xlink" width="1157" zoomAndPan="magnify" viewBox="0 0 867.75 246.749995" height="329" preserveAspectRatio="xMidYMid meet" version="1.0"><defs><g/></defs><g fill="#ff00ff" fill-opacity="1"><g transform="translate(177.93646, 72.829137)"><g><path d="M 0 -41.96875 L 12 -41.96875 L 12 0 L 0 0 Z M 0 -41.96875 "/></g></g></g><g fill="#ff00ff" fill-opacity="1"><g transform="translate(200.102282, 72.829137)"><g><path d="M 41.96875 -41.96875 L 41.96875 0 L 29.96875 0 L 29.96875 -12 L 23.96875 -12 L 23.96875 -17.96875 L 17.96875 -17.96875 L 17.96875 -23.96875 L 12 -23.96875 L 12 0 L 0 0 L 0 -41.96875 L 12 -41.96875 L 12 -35.96875 L 17.96875 -35.96875 L 17.96875 -29.96875 L 23.96875 -29.96875 L 23.96875 -23.96875 L 29.96875 -23.96875 L 29.96875 -41.96875 Z M 41.96875 -41.96875 "/></g></g></g><g fill="#ff00ff" fill-opacity="1"><g transform="translate(252.237736, 72.829137)"><g><path d="M 0 -41.96875 L 12 -41.96875 L 12 0 L 0 0 Z M 0 -41.96875 "/></g></g></g><g fill="#ff00ff" fill-opacity="1"><g transform="translate(274.403563, 72.829137)"><g><path d="M 17.96875 -35.96875 L 17.96875 -30.03125 L 12 -30.03125 L 12 -11.9375 L 17.96875 -11.9375 L 17.96875 -6 L 29.96875 -6 L 29.96875 -12 L 41.96875 -12 L 41.96875 -6 L 35.96875 -6 L 35.96875 0 L 12 0 L 12 -6 L 6 -6 L 6 -12 L 0 -12 L 0 -29.96875 L 6 -29.96875 L 6 -35.96875 L 12 -35.96875 L 12 -41.96875 L 35.96875 -41.96875 L 35.96875 -35.96875 L 41.96875 -35.96875 L 41.96875 -29.96875 L 29.96875 -29.96875 L 29.96875 -35.96875 Z M 17.96875 -35.96875 "/></g></g></g><g fill="#ff00ff" fill-opacity="1"><g transform="translate(326.539012, 72.829137)"><g><path d="M 0 -41.96875 L 12 -41.96875 L 12 0 L 0 0 Z M 0 -41.96875 "/></g></g></g><g fill="#ff00ff" fill-opacity="1"><g transform="translate(348.704838, 72.829137)"><g><path d="M 17.96875 -17.96875 L 23.96875 -17.96875 L 23.96875 -29.96875 L 17.96875 -29.96875 Z M 12 -41.96875 L 29.96875 -41.96875 L 29.96875 -29.96875 L 35.96875 -29.96875 L 35.96875 -12 L 41.96875 -12 L 41.96875 0 L 29.96875 0 L 29.96875 -12 L 12 -12 L 12 0 L 0 0 L 0 -12 L 6 -12 L 6 -29.96875 L 12 -29.96875 Z M 12 -41.96875 "/></g></g></g><g fill="#ff00ff" fill-opacity="1"><g transform="translate(400.840299, 72.829137)"><g><path d="M 41.96875 -41.96875 L 41.96875 0 L 29.96875 0 L 29.96875 -12 L 23.96875 -12 L 23.96875 -17.96875 L 17.96875 -17.96875 L 17.96875 -23.96875 L 12 -23.96875 L 12 0 L 0 0 L 0 -41.96875 L 12 -41.96875 L 12 -35.96875 L 17.96875 -35.96875 L 17.96875 -29.96875 L 23.96875 -29.96875 L 23.96875 -23.96875 L 29.96875 -23.96875 L 29.96875 -41.96875 Z M 41.96875 -41.96875 "/></g></g></g><g fill="#ff00ff" fill-opacity="1"><g transform="translate(452.975759, 72.829137)"><g><path d="M 29.96875 -29.96875 L 23.96875 -29.96875 L 23.96875 -35.96875 L 12 -35.96875 L 12 -6 L 23.96875 -6 L 23.96875 -12 L 29.96875 -12 Z M 35.96875 -35.96875 L 35.96875 -29.96875 L 41.96875 -29.96875 L 41.96875 -12 L 35.96875 -12 L 35.96875 -6 L 29.96875 -6 L 29.96875 0 L 0 0 L 0 -41.96875 L 29.96875 -41.96875 L 29.96875 -35.96875 Z M 35.96875 -35.96875 "/></g></g></g><g fill="#ff00ff" fill-opacity="1"><g transform="translate(505.111219, 72.829137)"><g><path d="M 6 -29.96875 L 6 -35.96875 L 12 -35.96875 L 12 -41.96875 L 35.96875 -41.96875 L 35.96875 -35.96875 L 41.96875 -35.96875 L 41.96875 -29.96875 L 47.9375 -29.96875 L 47.9375 -12 L 41.96875 -12 L 41.96875 -6 L 35.96875 -6 L 35.96875 0 L 12 0 L 12 -6 L 6 -6 L 6 -12 L 0 -12 L 0 -29.96875 Z M 29.96875 -29.96875 L 29.96875 -35.96875 L 17.96875 -35.96875 L 17.96875 -30.03125 L 12 -30.03125 L 12 -11.9375 L 17.96875 -11.9375 L 17.96875 -6 L 29.96875 -6 L 29.96875 -12 L 35.96875 -12 L 35.96875 -29.96875 Z M 29.96875 -29.96875 "/></g></g></g><g fill="#ff00ff" fill-opacity="1"><g transform="translate(563.24646, 72.829137)"><g/></g></g><g fill="#ff00ff" fill-opacity="1"><g transform="translate(585.412264, 72.829137)"><g><path d="M 41.96875 -41.96875 L 41.96875 0 L 29.96875 0 L 29.96875 -12 L 23.96875 -12 L 23.96875 -17.96875 L 17.96875 -17.96875 L 17.96875 -23.96875 L 12 -23.96875 L 12 0 L 0 0 L 0 -41.96875 L 12 -41.96875 L 12 -35.96875 L 17.96875 -35.96875 L 17.96875 -29.96875 L 23.96875 -29.96875 L 23.96875 -23.96875 L 29.96875 -23.96875 L 29.96875 -41.96875 Z M 41.96875 -41.96875 "/></g></g></g><g fill="#ff00ff" fill-opacity="1"><g transform="translate(637.547702, 72.829137)"><g><path d="M 6 -29.96875 L 6 -35.96875 L 12 -35.96875 L 12 -41.96875 L 35.96875 -41.96875 L 35.96875 -35.96875 L 41.96875 -35.96875 L 41.96875 -29.96875 L 47.9375 -29.96875 L 47.9375 -12 L 41.96875 -12 L 41.96875 -6 L 35.96875 -6 L 35.96875 0 L 12 0 L 12 -6 L 6 -6 L 6 -12 L 0 -12 L 0 -29.96875 Z M 29.96875 -29.96875 L 29.96875 -35.96875 L 17.96875 -35.96875 L 17.96875 -30.03125 L 12 -30.03125 L 12 -11.9375 L 17.96875 -11.9375 L 17.96875 -6 L 29.96875 -6 L 29.96875 -12 L 35.96875 -12 L 35.96875 -29.96875 Z M 29.96875 -29.96875 "/></g></g></g><g fill="#00ffff" fill-opacity="1"><g transform="translate(175.688737, 72.829137)"><g><path d="M 0 -41.96875 L 12 -41.96875 L 12 0 L 0 0 Z M 0 -41.96875 "/></g></g></g><g fill="#00ffff" fill-opacity="1"><g transform="translate(197.854559, 72.829137)"><g><path d="M 41.96875 -41.96875 L 41.96875 0 L 29.96875 0 L 29.96875 -12 L 23.96875 -12 L 23.96875 -17.96875 L 17.96875 -17.96875 L 17.96875 -23.96875 L 12 -23.96875 L 12 0 L 0 0 L 0 -41.96875 L 12 -41.96875 L 12 -35.96875 L 17.96875 -35.96875 L 17.96875 -29.96875 L 23.96875 -29.96875 L 23.96875 -23.96875 L 29.96875 -23.96875 L 29.96875 -41.96875 Z M 41.96875 -41.96875 "/></g></g></g><g fill="#00ffff" fill-opacity="1"><g transform="translate(249.990014, 72.829137)"><g><path d="M 0 -41.96875 L 12 -41.96875 L 12 0 L 0 0 Z M 0 -41.96875 "/></g></g></g><g fill="#00ffff" fill-opacity="1"><g transform="translate(272.15584, 72.829137)"><g><path d="M 17.96875 -35.96875 L 17.96875 -30.03125 L 12 -30.03125 L 12 -11.9375 L 17.96875 -11.9375 L 17.96875 -6 L 29.96875 -6 L 29.96875 -12 L 41.96875 -12 L 41.96875 -6 L 35.96875 -6 L 35.96875 0 L 12 0 L 12 -6 L 6 -6 L 6 -12 L 0 -12 L 0 -29.96875 L 6 -29.96875 L 6 -35.96875 L 12 -35.96875 L 12 -41.96875 L 35.96875 -41.96875 L 35.96875 -35.96875 L 41.96875 -35.96875 L 41.96875 -29.96875 L 29.96875 -29.96875 L 29.96875 -35.96875 Z M 17.96875 -35.96875 "/></g></g></g><g fill="#00ffff" fill-opacity="1"><g transform="translate(324.291289, 72.829137)"><g><path d="M 0 -41.96875 L 12 -41.96875 L 12 0 L 0 0 Z M 0 -41.96875 "/></g></g></g><g fill="#00ffff" fill-opacity="1"><g transform="translate(346.457116, 72.829137)"><g><path d="M 17.96875 -17.96875 L 23.96875 -17.96875 L 23.96875 -29.96875 L 17.96875 -29.96875 Z M 12 -41.96875 L 29.96875 -41.96875 L 29.96875 -29.96875 L 35.96875 -29.96875 L 35.96875 -12 L 41.96875 -12 L 41.96875 0 L 29.96875 0 L 29.96875 -12 L 12 -12 L 12 0 L 0 0 L 0 -12 L 6 -12 L 6 -29.96875 L 12 -29.96875 Z M 12 -41.96875 "/></g></g></g><g fill="#00ffff" fill-opacity="1"><g transform="translate(398.592576, 72.829137)"><g><path d="M 41.96875 -41.96875 L 41.96875 0 L 29.96875 0 L 29.96875 -12 L 23.96875 -12 L 23.96875 -17.96875 L 17.96875 -17.96875 L 17.96875 -23.96875 L 12 -23.96875 L 12 0 L 0 0 L 0 -41.96875 L 12 -41.96875 L 12 -35.96875 L 17.96875 -35.96875 L 17.96875 -29.96875 L 23.96875 -29.96875 L 23.96875 -23.96875 L 29.96875 -23.96875 L 29.96875 -41.96875 Z M 41.96875 -41.96875 "/></g></g></g><g fill="#00ffff" fill-opacity="1"><g transform="translate(450.728037, 72.829137)"><g><path d="M 29.96875 -29.96875 L 23.96875 -29.96875 L 23.96875 -35.96875 L 12 -35.96875 L 12 -6 L 23.96875 -6 L 23.96875 -12 L 29.96875 -12 Z M 35.96875 -35.96875 L 35.96875 -29.96875 L 41.96875 -29.96875 L 41.96875 -12 L 35.96875 -12 L 35.96875 -6 L 29.96875 -6 L 29.96875 0 L 0 0 L 0 -41.96875 L 29.96875 -41.96875 L 29.96875 -35.96875 Z M 35.96875 -35.96875 "/></g></g></g><g fill="#00ffff" fill-opacity="1"><g transform="translate(502.863497, 72.829137)"><g><path d="M 6 -29.96875 L 6 -35.96875 L 12 -35.96875 L 12 -41.96875 L 35.96875 -41.96875 L 35.96875 -35.96875 L 41.96875 -35.96875 L 41.96875 -29.96875 L 47.9375 -29.96875 L 47.9375 -12 L 41.96875 -12 L 41.96875 -6 L 35.96875 -6 L 35.96875 0 L 12 0 L 12 -6 L 6 -6 L 6 -12 L 0 -12 L 0 -29.96875 Z M 29.96875 -29.96875 L 29.96875 -35.96875 L 17.96875 -35.96875 L 17.96875 -30.03125 L 12 -30.03125 L 12 -11.9375 L 17.96875 -11.9375 L 17.96875 -6 L 29.96875 -6 L 29.96875 -12 L 35.96875 -12 L 35.96875 -29.96875 Z M 29.96875 -29.96875 "/></g></g></g><g fill="#00ffff" fill-opacity="1"><g transform="translate(583.164542, 72.829137)"><g><path d="M 41.96875 -41.96875 L 41.96875 0 L 29.96875 0 L 29.96875 -12 L 23.96875 -12 L 23.96875 -17.96875 L 17.96875 -17.96875 L 17.96875 -23.96875 L 12 -23.96875 L 12 0 L 0 0 L 0 -41.96875 L 12 -41.96875 L 12 -35.96875 L 17.96875 -35.96875 L 17.96875 -29.96875 L 23.96875 -29.96875 L 23.96875 -23.96875 L 29.96875 -23.96875 L 29.96875 -41.96875 Z M 41.96875 -41.96875 "/></g></g></g><g fill="#00ffff" fill-opacity="1"><g transform="translate(635.29998, 72.829137)"><g><path d="M 6 -29.96875 L 6 -35.96875 L 12 -35.96875 L 12 -41.96875 L 35.96875 -41.96875 L 35.96875 -35.96875 L 41.96875 -35.96875 L 41.96875 -29.96875 L 47.9375 -29.96875 L 47.9375 -12 L 41.96875 -12 L 41.96875 -6 L 35.96875 -6 L 35.96875 0 L 12 0 L 12 -6 L 6 -6 L 6 -12 L 0 -12 L 0 -29.96875 Z M 29.96875 -29.96875 L 29.96875 -35.96875 L 17.96875 -35.96875 L 17.96875 -30.03125 L 12 -30.03125 L 12 -11.9375 L 17.96875 -11.9375 L 17.96875 -6 L 29.96875 -6 L 29.96875 -12 L 35.96875 -12 L 35.96875 -29.96875 Z M 29.96875 -29.96875 "/></g></g></g><g fill="#0e073f" fill-opacity="1"><g transform="translate(176.812599, 72.829137)"><g><path d="M 0 -41.96875 L 12 -41.96875 L 12 0 L 0 0 Z M 0 -41.96875 "/></g></g></g><g fill="#0e073f" fill-opacity="1"><g transform="translate(198.978421, 72.829137)"><g><path d="M 41.96875 -41.96875 L 41.96875 0 L 29.96875 0 L 29.96875 -12 L 23.96875 -12 L 23.96875 -17.96875 L 17.96875 -17.96875 L 17.96875 -23.96875 L 12 -23.96875 L 12 0 L 0 0 L 0 -41.96875 L 12 -41.96875 L 12 -35.96875 L 17.96875 -35.96875 L 17.96875 -29.96875 L 23.96875 -29.96875 L 23.96875 -23.96875 L 29.96875 -23.96875 L 29.96875 -41.96875 Z M 41.96875 -41.96875 "/></g></g></g><g fill="#0e073f" fill-opacity="1"><g transform="translate(251.113875, 72.829137)"><g><path d="M 0 -41.96875 L 12 -41.96875 L 12 0 L 0 0 Z M 0 -41.96875 "/></g></g></g><g fill="#0e073f" fill-opacity="1"><g transform="translate(273.279702, 72.829137)"><g><path d="M 17.96875 -35.96875 L 17.96875 -30.03125 L 12 -30.03125 L 12 -11.9375 L 17.96875 -11.9375 L 17.96875 -6 L 29.96875 -6 L 29.96875 -12 L 41.96875 -12 L 41.96875 -6 L 35.96875 -6 L 35.96875 0 L 12 0 L 12 -6 L 6 -6 L 6 -12 L 0 -12 L 0 -29.96875 L 6 -29.96875 L 6 -35.96875 L 12 -35.96875 L 12 -41.96875 L 35.96875 -41.96875 L 35.96875 -35.96875 L 41.96875 -35.96875 L 41.96875 -29.96875 L 29.96875 -29.96875 L 29.96875 -35.96875 Z M 17.96875 -35.96875 "/></g></g></g><g fill="#0e073f" fill-opacity="1"><g transform="translate(325.415151, 72.829137)"><g><path d="M 0 -41.96875 L 12 -41.96875 L 12 0 L 0 0 Z M 0 -41.96875 "/></g></g></g><g fill="#0e073f" fill-opacity="1"><g transform="translate(347.580977, 72.829137)"><g><path d="M 17.96875 -17.96875 L 23.96875 -17.96875 L 23.96875 -29.96875 L 17.96875 -29.96875 Z M 12 -41.96875 L 29.96875 -41.96875 L 29.96875 -29.96875 L 35.96875 -29.96875 L 35.96875 -12 L 41.96875 -12 L 41.96875 0 L 29.96875 0 L 29.96875 -12 L 12 -12 L 12 0 L 0 0 L 0 -12 L 6 -12 L 6 -29.96875 L 12 -29.96875 Z M 12 -41.96875 "/></g></g></g><g fill="#0e073f" fill-opacity="1"><g transform="translate(399.716437, 72.829137)"><g><path d="M 41.96875 -41.96875 L 41.96875 0 L 29.96875 0 L 29.96875 -12 L 23.96875 -12 L 23.96875 -17.96875 L 17.96875 -17.96875 L 17.96875 -23.96875 L 12 -23.96875 L 12 0 L 0 0 L 0 -41.96875 L 12 -41.96875 L 12 -35.96875 L 17.96875 -35.96875 L 17.96875 -29.96875 L 23.96875 -29.96875 L 23.96875 -23.96875 L 29.96875 -23.96875 L 29.96875 -41.96875 Z M 41.96875 -41.96875 "/></g></g></g><g fill="#0e073f" fill-opacity="1"><g transform="translate(451.851898, 72.829137)"><g><path d="M 29.96875 -29.96875 L 23.96875 -29.96875 L 23.96875 -35.96875 L 12 -35.96875 L 12 -6 L 23.96875 -6 L 23.96875 -12 L 29.96875 -12 Z M 35.96875 -35.96875 L 35.96875 -29.96875 L 41.96875 -29.96875 L 41.96875 -12 L 35.96875 -12 L 35.96875 -6 L 29.96875 -6 L 29.96875 0 L 0 0 L 0 -41.96875 L 29.96875 -41.96875 L 29.96875 -35.96875 Z M 35.96875 -35.96875 "/></g></g></g><g fill="#0e073f" fill-opacity="1"><g transform="translate(503.987358, 72.829137)"><g><path d="M 6 -29.96875 L 6 -35.96875 L 12 -35.96875 L 12 -41.96875 L 35.96875 -41.96875 L 35.96875 -35.96875 L 41.96875 -35.96875 L 41.96875 -29.96875 L 47.9375 -29.96875 L 47.9375 -12 L 41.96875 -12 L 41.96875 -6 L 35.96875 -6 L 35.96875 0 L 12 0 L 12 -6 L 6 -6 L 6 -12 L 0 -12 L 0 -29.96875 Z M 29.96875 -29.96875 L 29.96875 -35.96875 L 17.96875 -35.96875 L 17.96875 -30.03125 L 12 -30.03125 L 12 -11.9375 L 17.96875 -11.9375 L 17.96875 -6 L 29.96875 -6 L 29.96875 -12 L 35.96875 -12 L 35.96875 -29.96875 Z M 29.96875 -29.96875 "/></g></g></g><g fill="#0e073f" fill-opacity="1"><g transform="translate(562.122599, 72.829137)"><g/></g></g><g fill="#0e073f" fill-opacity="1"><g transform="translate(584.288403, 72.829137)"><g><path d="M 41.96875 -41.96875 L 41.96875 0 L 29.96875 0 L 29.96875 -12 L 23.96875 -12 L 23.96875 -17.96875 L 17.96875 -17.96875 L 17.96875 -23.96875 L 12 -23.96875 L 12 0 L 0 0 L 0 -41.96875 L 12 -41.96875 L 12 -35.96875 L 17.96875 -35.96875 L 17.96875 -29.96875 L 23.96875 -29.96875 L 23.96875 -23.96875 L 29.96875 -23.96875 L 29.96875 -41.96875 Z M 41.96875 -41.96875 "/></g></g></g><g fill="#0e073f" fill-opacity="1"><g transform="translate(636.423841, 72.829137)"><g><path d="M 6 -29.96875 L 6 -35.96875 L 12 -35.96875 L 12 -41.96875 L 35.96875 -41.96875 L 35.96875 -35.96875 L 41.96875 -35.96875 L 41.96875 -29.96875 L 47.9375 -29.96875 L 47.9375 -12 L 41.96875 -12 L 41.96875 -6 L 35.96875 -6 L 35.96875 0 L 12 0 L 12 -6 L 6 -6 L 6 -12 L 0 -12 L 0 -29.96875 Z M 29.96875 -29.96875 L 29.96875 -35.96875 L 17.96875 -35.96875 L 17.96875 -30.03125 L 12 -30.03125 L 12 -11.9375 L 17.96875 -11.9375 L 17.96875 -6 L 29.96875 -6 L 29.96875 -12 L 35.96875 -12 L 35.96875 -29.96875 Z M 29.96875 -29.96875 "/></g></g></g><g fill="#ff00ff" fill-opacity="1"><g transform="translate(102.061772, 159.733758)"><g><path d="M 23.96875 -6 L 23.96875 0 L 0 0 L 0 -41.96875 L 23.96875 -41.96875 L 23.96875 -35.96875 L 29.96875 -35.96875 L 29.96875 -29.96875 L 35.96875 -29.96875 L 35.96875 -12 L 29.96875 -12 L 29.96875 -6 Z M 23.90625 -35.96875 L 6 -35.96875 L 6 -6 L 23.90625 -6 L 23.90625 -12 L 29.90625 -12 L 29.90625 -29.96875 L 23.90625 -29.96875 Z M 23.90625 -35.96875 "/></g></g><g transform="translate(150.00148, 159.733758)"><g><path d="M 6 -6 L 29.96875 -6 L 29.96875 0 L 0 0 L 0 -41.96875 L 29.96875 -41.96875 L 29.96875 -35.96875 L 6 -35.96875 L 6 -23.96875 L 23.96875 -23.96875 L 23.96875 -17.96875 L 6 -17.96875 Z M 6 -6 "/></g></g><g transform="translate(191.970674, 159.733758)"><g><path d="M 6 -23.96875 L 23.96875 -23.96875 L 23.96875 -17.96875 L 29.96875 -17.96875 L 29.96875 -6 L 23.96875 -6 L 23.96875 -17.96875 L 6 -17.96875 Z M 6 -41.96875 L 23.96875 -41.96875 L 23.96875 -35.96875 L 29.96875 -35.96875 L 29.96875 -29.96875 L 23.96875 -29.96875 L 23.96875 -35.96875 L 6 -35.96875 Z M 6 -6 L 23.96875 -6 L 23.96875 0 L 6 0 Z M 6 -23.96875 L 0 -23.96875 L 0 -35.96875 L 6 -35.96875 Z M 6 -6 L 0 -6 L 0 -12 L 6 -12 Z M 6 -6 "/></g></g><g transform="translate(233.939868, 159.733758)"><g><path d="M 6 -6 L 29.96875 -6 L 29.96875 0 L 0 0 L 0 -41.96875 L 29.96875 -41.96875 L 29.96875 -35.96875 L 6 -35.96875 L 6 -23.96875 L 23.96875 -23.96875 L 23.96875 -17.96875 L 6 -17.96875 Z M 6 -6 "/></g></g><g transform="translate(275.909062, 159.733758)"><g><path d="M 29.96875 -18 L 29.96875 -41.96875 L 35.96875 -41.96875 L 35.96875 0 L 29.96875 0 L 29.96875 -12 L 23.96875 -12 L 23.96875 -18 L 18 -18 L 18 -23.96875 L 12 -23.96875 L 12 -29.96875 L 6 -29.96875 L 6 0 L 0 0 L 0 -41.96875 L 6 -41.96875 L 6 -35.96875 L 12 -35.96875 L 12 -29.96875 L 18 -29.96875 L 18 -23.96875 L 23.96875 -23.96875 L 23.96875 -18 Z M 29.96875 -18 "/></g></g><g transform="translate(323.848769, 159.733758)"><g><path d="M 12 -29.96875 L 12 -12 L 24 -12 L 24 0 L 12 0 L 12 -12 L 6 -12 L 6 -29.96875 L 0 -29.96875 L 0 -41.96875 L 6 -41.96875 L 6 -29.96875 Z M 23.96875 -12 L 23.96875 -29.96875 L 29.96875 -29.96875 L 29.96875 -12 Z M 29.96875 -41.96875 L 35.96875 -41.96875 L 35.96875 -29.96875 L 29.96875 -29.96875 Z M 29.96875 -41.96875 "/></g></g><g transform="translate(371.788476, 159.733758)"><g><path d="M 6 -12 L 0 -12 L 0 -29.96875 L 6 -29.96875 L 6 -35.96875 L 12 -35.96875 L 12 -41.96875 L 29.96875 -41.96875 L 29.96875 -35.96875 L 35.96875 -35.96875 L 35.96875 -29.96875 L 41.96875 -29.96875 L 41.96875 -12 L 35.96875 -12 L 35.96875 -6 L 29.96875 -6 L 29.96875 0 L 12 0 L 12 -6 L 6 -6 Z M 12 -6.0625 L 29.96875 -6.0625 L 29.96875 -12 L 35.90625 -12 L 35.90625 -29.96875 L 29.96875 -29.96875 L 29.96875 -35.90625 L 12 -35.90625 L 12 -29.96875 L 6.0625 -29.96875 L 6.0625 -12 L 12 -12 Z M 12 -6.0625 "/></g></g><g transform="translate(425.727963, 159.733758)"><g><path d="M 23.96875 -6 L 23.96875 0 L 0 0 L 0 -41.96875 L 5.9375 -41.96875 L 5.9375 -6 Z M 23.96875 -6 "/></g></g><g transform="translate(461.697377, 159.733758)"><g><path d="M 12 -29.96875 L 12 -12 L 24 -12 L 24 0 L 12 0 L 12 -12 L 6 -12 L 6 -29.96875 L 0 -29.96875 L 0 -41.96875 L 6 -41.96875 L 6 -29.96875 Z M 23.96875 -12 L 23.96875 -29.96875 L 29.96875 -29.96875 L 29.96875 -12 Z M 29.96875 -41.96875 L 35.96875 -41.96875 L 35.96875 -29.96875 L 29.96875 -29.96875 Z M 29.96875 -41.96875 "/></g></g><g transform="translate(509.637084, 159.733758)"><g><path d="M 0 -41.96875 L 6 -41.96875 L 6 0 L 0 0 Z M 0 -41.96875 "/></g></g><g transform="translate(527.607158, 159.733758)"><g><path d="M 17.96875 -29.96875 L 17.96875 -12 L 23.96875 -12 L 23.96875 0 L 17.96875 0 L 17.96875 -12 L 12 -12 L 12 -29.96875 L 6 -29.96875 L 6 0 L 0 0 L 0 -41.96875 L 12 -41.96875 L 12 -29.96875 Z M 29.96875 -41.96875 L 41.96875 -41.96875 L 41.96875 0 L 35.96875 0 L 35.96875 -29.96875 L 29.96875 -29.96875 Z M 23.96875 -12 L 23.96875 -29.96875 L 29.96875 -29.96875 L 29.96875 -12 Z M 23.96875 -12 "/></g></g><g transform="translate(581.546645, 159.733758)"><g><path d="M 6 -6 L 29.96875 -6 L 29.96875 0 L 0 0 L 0 -41.96875 L 29.96875 -41.96875 L 29.96875 -35.96875 L 6 -35.96875 L 6 -23.96875 L 23.96875 -23.96875 L 23.96875 -17.96875 L 6 -17.96875 Z M 6 -6 "/></g></g><g transform="translate(623.515839, 159.733758)"><g><path d="M 29.96875 -18 L 29.96875 -41.96875 L 35.96875 -41.96875 L 35.96875 0 L 29.96875 0 L 29.96875 -12 L 23.96875 -12 L 23.96875 -18 L 18 -18 L 18 -23.96875 L 12 -23.96875 L 12 -29.96875 L 6 -29.96875 L 6 0 L 0 0 L 0 -41.96875 L 6 -41.96875 L 6 -35.96875 L 12 -35.96875 L 12 -29.96875 L 18 -29.96875 L 18 -23.96875 L 23.96875 -23.96875 L 23.96875 -18 Z M 29.96875 -18 "/></g></g><g transform="translate(671.455546, 159.733758)"><g><path d="M 0 -41.96875 L 29.96875 -41.96875 L 29.96875 -35.96875 L 18 -35.96875 L 18 0 L 12 0 L 12 -35.96875 L 0 -35.96875 Z M 0 -41.96875 "/></g></g><g transform="translate(713.42474, 159.733758)"><g><path d="M 6 -12 L 0 -12 L 0 -29.96875 L 6 -29.96875 L 6 -35.96875 L 12 -35.96875 L 12 -41.96875 L 29.96875 -41.96875 L 29.96875 -35.96875 L 35.96875 -35.96875 L 35.96875 -29.96875 L 41.96875 -29.96875 L 41.96875 -12 L 35.96875 -12 L 35.96875 -6 L 29.96875 -6 L 29.96875 0 L 12 0 L 12 -6 L 6 -6 Z M 12 -6.0625 L 29.96875 -6.0625 L 29.96875 -12 L 35.90625 -12 L 35.90625 -29.96875 L 29.96875 -29.96875 L 29.96875 -35.90625 L 12 -35.90625 L 12 -29.96875 L 6.0625 -29.96875 L 6.0625 -12 L 12 -12 Z M 12 -6.0625 "/></g></g></g><g fill="#00ffff" fill-opacity="1"><g transform="translate(99.81405, 159.733758)"><g><path d="M 23.96875 -6 L 23.96875 0 L 0 0 L 0 -41.96875 L 23.96875 -41.96875 L 23.96875 -35.96875 L 29.96875 -35.96875 L 29.96875 -29.96875 L 35.96875 -29.96875 L 35.96875 -12 L 29.96875 -12 L 29.96875 -6 Z M 23.90625 -35.96875 L 6 -35.96875 L 6 -6 L 23.90625 -6 L 23.90625 -12 L 29.90625 -12 L 29.90625 -29.96875 L 23.90625 -29.96875 Z M 23.90625 -35.96875 "/></g></g><g transform="translate(147.753757, 159.733758)"><g><path d="M 6 -6 L 29.96875 -6 L 29.96875 0 L 0 0 L 0 -41.96875 L 29.96875 -41.96875 L 29.96875 -35.96875 L 6 -35.96875 L 6 -23.96875 L 23.96875 -23.96875 L 23.96875 -17.96875 L 6 -17.96875 Z M 6 -6 "/></g></g><g transform="translate(189.722951, 159.733758)"><g><path d="M 6 -23.96875 L 23.96875 -23.96875 L 23.96875 -17.96875 L 29.96875 -17.96875 L 29.96875 -6 L 23.96875 -6 L 23.96875 -17.96875 L 6 -17.96875 Z M 6 -41.96875 L 23.96875 -41.96875 L 23.96875 -35.96875 L 29.96875 -35.96875 L 29.96875 -29.96875 L 23.96875 -29.96875 L 23.96875 -35.96875 L 6 -35.96875 Z M 6 -6 L 23.96875 -6 L 23.96875 0 L 6 0 Z M 6 -23.96875 L 0 -23.96875 L 0 -35.96875 L 6 -35.96875 Z M 6 -6 L 0 -6 L 0 -12 L 6 -12 Z M 6 -6 "/></g></g><g transform="translate(231.692145, 159.733758)"><g><path d="M 6 -6 L 29.96875 -6 L 29.96875 0 L 0 0 L 0 -41.96875 L 29.96875 -41.96875 L 29.96875 -35.96875 L 6 -35.96875 L 6 -23.96875 L 23.96875 -23.96875 L 23.96875 -17.96875 L 6 -17.96875 Z M 6 -6 "/></g></g><g transform="translate(273.661339, 159.733758)"><g><path d="M 29.96875 -18 L 29.96875 -41.96875 L 35.96875 -41.96875 L 35.96875 0 L 29.96875 0 L 29.96875 -12 L 23.96875 -12 L 23.96875 -18 L 18 -18 L 18 -23.96875 L 12 -23.96875 L 12 -29.96875 L 6 -29.96875 L 6 0 L 0 0 L 0 -41.96875 L 6 -41.96875 L 6 -35.96875 L 12 -35.96875 L 12 -29.96875 L 18 -29.96875 L 18 -23.96875 L 23.96875 -23.96875 L 23.96875 -18 Z M 29.96875 -18 "/></g></g><g transform="translate(321.601046, 159.733758)"><g><path d="M 12 -29.96875 L 12 -12 L 24 -12 L 24 0 L 12 0 L 12 -12 L 6 -12 L 6 -29.96875 L 0 -29.96875 L 0 -41.96875 L 6 -41.96875 L 6 -29.96875 Z M 23.96875 -12 L 23.96875 -29.96875 L 29.96875 -29.96875 L 29.96875 -12 Z M 29.96875 -41.96875 L 35.96875 -41.96875 L 35.96875 -29.96875 L 29.96875 -29.96875 Z M 29.96875 -41.96875 "/></g></g><g transform="translate(369.540754, 159.733758)"><g><path d="M 6 -12 L 0 -12 L 0 -29.96875 L 6 -29.96875 L 6 -35.96875 L 12 -35.96875 L 12 -41.96875 L 29.96875 -41.96875 L 29.96875 -35.96875 L 35.96875 -35.96875 L 35.96875 -29.96875 L 41.96875 -29.96875 L 41.96875 -12 L 35.96875 -12 L 35.96875 -6 L 29.96875 -6 L 29.96875 0 L 12 0 L 12 -6 L 6 -6 Z M 12 -6.0625 L 29.96875 -6.0625 L 29.96875 -12 L 35.90625 -12 L 35.90625 -29.96875 L 29.96875 -29.96875 L 29.96875 -35.90625 L 12 -35.90625 L 12 -29.96875 L 6.0625 -29.96875 L 6.0625 -12 L 12 -12 Z M 12 -6.0625 "/></g></g><g transform="translate(423.480241, 159.733758)"><g><path d="M 23.96875 -6 L 23.96875 0 L 0 0 L 0 -41.96875 L 5.9375 -41.96875 L 5.9375 -6 Z M 23.96875 -6 "/></g></g><g transform="translate(459.449655, 159.733758)"><g><path d="M 12 -29.96875 L 12 -12 L 24 -12 L 24 0 L 12 0 L 12 -12 L 6 -12 L 6 -29.96875 L 0 -29.96875 L 0 -41.96875 L 6 -41.96875 L 6 -29.96875 Z M 23.96875 -12 L 23.96875 -29.96875 L 29.96875 -29.96875 L 29.96875 -12 Z M 29.96875 -41.96875 L 35.96875 -41.96875 L 35.96875 -29.96875 L 29.96875 -29.96875 Z M 29.96875 -41.96875 "/></g></g><g transform="translate(507.389362, 159.733758)"><g><path d="M 0 -41.96875 L 6 -41.96875 L 6 0 L 0 0 Z M 0 -41.96875 "/></g></g><g transform="translate(525.359435, 159.733758)"><g><path d="M 17.96875 -29.96875 L 17.96875 -12 L 23.96875 -12 L 23.96875 0 L 17.96875 0 L 17.96875 -12 L 12 -12 L 12 -29.96875 L 6 -29.96875 L 6 0 L 0 0 L 0 -41.96875 L 12 -41.96875 L 12 -29.96875 Z M 29.96875 -41.96875 L 41.96875 -41.96875 L 41.96875 0 L 35.96875 0 L 35.96875 -29.96875 L 29.96875 -29.96875 Z M 23.96875 -12 L 23.96875 -29.96875 L 29.96875 -29.96875 L 29.96875 -12 Z M 23.96875 -12 "/></g></g><g transform="translate(579.298923, 159.733758)"><g><path d="M 6 -6 L 29.96875 -6 L 29.96875 0 L 0 0 L 0 -41.96875 L 29.96875 -41.96875 L 29.96875 -35.96875 L 6 -35.96875 L 6 -23.96875 L 23.96875 -23.96875 L 23.96875 -17.96875 L 6 -17.96875 Z M 6 -6 "/></g></g><g transform="translate(621.268116, 159.733758)"><g><path d="M 29.96875 -18 L 29.96875 -41.96875 L 35.96875 -41.96875 L 35.96875 0 L 29.96875 0 L 29.96875 -12 L 23.96875 -12 L 23.96875 -18 L 18 -18 L 18 -23.96875 L 12 -23.96875 L 12 -29.96875 L 6 -29.96875 L 6 0 L 0 0 L 0 -41.96875 L 6 -41.96875 L 6 -35.96875 L 12 -35.96875 L 12 -29.96875 L 18 -29.96875 L 18 -23.96875 L 23.96875 -23.96875 L 23.96875 -18 Z M 29.96875 -18 "/></g></g><g transform="translate(669.207824, 159.733758)"><g><path d="M 0 -41.96875 L 29.96875 -41.96875 L 29.96875 -35.96875 L 18 -35.96875 L 18 0 L 12 0 L 12 -35.96875 L 0 -35.96875 Z M 0 -41.96875 "/></g></g><g transform="translate(711.177018, 159.733758)"><g><path d="M 6 -12 L 0 -12 L 0 -29.96875 L 6 -29.96875 L 6 -35.96875 L 12 -35.96875 L 12 -41.96875 L 29.96875 -41.96875 L 29.96875 -35.96875 L 35.96875 -35.96875 L 35.96875 -29.96875 L 41.96875 -29.96875 L 41.96875 -12 L 35.96875 -12 L 35.96875 -6 L 29.96875 -6 L 29.96875 0 L 12 0 L 12 -6 L 6 -6 Z M 12 -6.0625 L 29.96875 -6.0625 L 29.96875 -12 L 35.90625 -12 L 35.90625 -29.96875 L 29.96875 -29.96875 L 29.96875 -35.90625 L 12 -35.90625 L 12 -29.96875 L 6.0625 -29.96875 L 6.0625 -12 L 12 -12 Z M 12 -6.0625 "/></g></g></g><g fill="#05f1c7" fill-opacity="1"><g transform="translate(100.937911, 159.733758)"><g><path d="M 23.96875 -6 L 23.96875 0 L 0 0 L 0 -41.96875 L 23.96875 -41.96875 L 23.96875 -35.96875 L 29.96875 -35.96875 L 29.96875 -29.96875 L 35.96875 -29.96875 L 35.96875 -12 L 29.96875 -12 L 29.96875 -6 Z M 23.90625 -35.96875 L 6 -35.96875 L 6 -6 L 23.90625 -6 L 23.90625 -12 L 29.90625 -12 L 29.90625 -29.96875 L 23.90625 -29.96875 Z M 23.90625 -35.96875 "/></g></g><g transform="translate(148.877618, 159.733758)"><g><path d="M 6 -6 L 29.96875 -6 L 29.96875 0 L 0 0 L 0 -41.96875 L 29.96875 -41.96875 L 29.96875 -35.96875 L 6 -35.96875 L 6 -23.96875 L 23.96875 -23.96875 L 23.96875 -17.96875 L 6 -17.96875 Z M 6 -6 "/></g></g><g transform="translate(190.846812, 159.733758)"><g><path d="M 6 -23.96875 L 23.96875 -23.96875 L 23.96875 -17.96875 L 29.96875 -17.96875 L 29.96875 -6 L 23.96875 -6 L 23.96875 -17.96875 L 6 -17.96875 Z M 6 -41.96875 L 23.96875 -41.96875 L 23.96875 -35.96875 L 29.96875 -35.96875 L 29.96875 -29.96875 L 23.96875 -29.96875 L 23.96875 -35.96875 L 6 -35.96875 Z M 6 -6 L 23.96875 -6 L 23.96875 0 L 6 0 Z M 6 -23.96875 L 0 -23.96875 L 0 -35.96875 L 6 -35.96875 Z M 6 -6 L 0 -6 L 0 -12 L 6 -12 Z M 6 -6 "/></g></g><g transform="translate(232.816006, 159.733758)"><g><path d="M 6 -6 L 29.96875 -6 L 29.96875 0 L 0 0 L 0 -41.96875 L 29.96875 -41.96875 L 29.96875 -35.96875 L 6 -35.96875 L 6 -23.96875 L 23.96875 -23.96875 L 23.96875 -17.96875 L 6 -17.96875 Z M 6 -6 "/></g></g><g transform="translate(274.7852, 159.733758)"><g><path d="M 29.96875 -18 L 29.96875 -41.96875 L 35.96875 -41.96875 L 35.96875 0 L 29.96875 0 L 29.96875 -12 L 23.96875 -12 L 23.96875 -18 L 18 -18 L 18 -23.96875 L 12 -23.96875 L 12 -29.96875 L 6 -29.96875 L 6 0 L 0 0 L 0 -41.96875 L 6 -41.96875 L 6 -35.96875 L 12 -35.96875 L 12 -29.96875 L 18 -29.96875 L 18 -23.96875 L 23.96875 -23.96875 L 23.96875 -18 Z M 29.96875 -18 "/></g></g><g transform="translate(322.724908, 159.733758)"><g><path d="M 12 -29.96875 L 12 -12 L 24 -12 L 24 0 L 12 0 L 12 -12 L 6 -12 L 6 -29.96875 L 0 -29.96875 L 0 -41.96875 L 6 -41.96875 L 6 -29.96875 Z M 23.96875 -12 L 23.96875 -29.96875 L 29.96875 -29.96875 L 29.96875 -12 Z M 29.96875 -41.96875 L 35.96875 -41.96875 L 35.96875 -29.96875 L 29.96875 -29.96875 Z M 29.96875 -41.96875 "/></g></g><g transform="translate(370.664615, 159.733758)"><g><path d="M 6 -12 L 0 -12 L 0 -29.96875 L 6 -29.96875 L 6 -35.96875 L 12 -35.96875 L 12 -41.96875 L 29.96875 -41.96875 L 29.96875 -35.96875 L 35.96875 -35.96875 L 35.96875 -29.96875 L 41.96875 -29.96875 L 41.96875 -12 L 35.96875 -12 L 35.96875 -6 L 29.96875 -6 L 29.96875 0 L 12 0 L 12 -6 L 6 -6 Z M 12 -6.0625 L 29.96875 -6.0625 L 29.96875 -12 L 35.90625 -12 L 35.90625 -29.96875 L 29.96875 -29.96875 L 29.96875 -35.90625 L 12 -35.90625 L 12 -29.96875 L 6.0625 -29.96875 L 6.0625 -12 L 12 -12 Z M 12 -6.0625 "/></g></g><g transform="translate(424.604102, 159.733758)"><g><path d="M 23.96875 -6 L 23.96875 0 L 0 0 L 0 -41.96875 L 5.9375 -41.96875 L 5.9375 -6 Z M 23.96875 -6 "/></g></g><g transform="translate(460.573516, 159.733758)"><g><path d="M 12 -29.96875 L 12 -12 L 24 -12 L 24 0 L 12 0 L 12 -12 L 6 -12 L 6 -29.96875 L 0 -29.96875 L 0 -41.96875 L 6 -41.96875 L 6 -29.96875 Z M 23.96875 -12 L 23.96875 -29.96875 L 29.96875 -29.96875 L 29.96875 -12 Z M 29.96875 -41.96875 L 35.96875 -41.96875 L 35.96875 -29.96875 L 29.96875 -29.96875 Z M 29.96875 -41.96875 "/></g></g><g transform="translate(508.513223, 159.733758)"><g><path d="M 0 -41.96875 L 6 -41.96875 L 6 0 L 0 0 Z M 0 -41.96875 "/></g></g><g transform="translate(526.483297, 159.733758)"><g><path d="M 17.96875 -29.96875 L 17.96875 -12 L 23.96875 -12 L 23.96875 0 L 17.96875 0 L 17.96875 -12 L 12 -12 L 12 -29.96875 L 6 -29.96875 L 6 0 L 0 0 L 0 -41.96875 L 12 -41.96875 L 12 -29.96875 Z M 29.96875 -41.96875 L 41.96875 -41.96875 L 41.96875 0 L 35.96875 0 L 35.96875 -29.96875 L 29.96875 -29.96875 Z M 23.96875 -12 L 23.96875 -29.96875 L 29.96875 -29.96875 L 29.96875 -12 Z M 23.96875 -12 "/></g></g><g transform="translate(580.422784, 159.733758)"><g><path d="M 6 -6 L 29.96875 -6 L 29.96875 0 L 0 0 L 0 -41.96875 L 29.96875 -41.96875 L 29.96875 -35.96875 L 6 -35.96875 L 6 -23.96875 L 23.96875 -23.96875 L 23.96875 -17.96875 L 6 -17.96875 Z M 6 -6 "/></g></g><g transform="translate(622.391978, 159.733758)"><g><path d="M 29.96875 -18 L 29.96875 -41.96875 L 35.96875 -41.96875 L 35.96875 0 L 29.96875 0 L 29.96875 -12 L 23.96875 -12 L 23.96875 -18 L 18 -18 L 18 -23.96875 L 12 -23.96875 L 12 -29.96875 L 6 -29.96875 L 6 0 L 0 0 L 0 -41.96875 L 6 -41.96875 L 6 -35.96875 L 12 -35.96875 L 12 -29.96875 L 18 -29.96875 L 18 -23.96875 L 23.96875 -23.96875 L 23.96875 -18 Z M 29.96875 -18 "/></g></g><g transform="translate(670.331685, 159.733758)"><g><path d="M 0 -41.96875 L 29.96875 -41.96875 L 29.96875 -35.96875 L 18 -35.96875 L 18 0 L 12 0 L 12 -35.96875 L 0 -35.96875 Z M 0 -41.96875 "/></g></g><g transform="translate(712.300879, 159.733758)"><g><path d="M 6 -12 L 0 -12 L 0 -29.96875 L 6 -29.96875 L 6 -35.96875 L 12 -35.96875 L 12 -41.96875 L 29.96875 -41.96875 L 29.96875 -35.96875 L 35.96875 -35.96875 L 35.96875 -29.96875 L 41.96875 -29.96875 L 41.96875 -12 L 35.96875 -12 L 35.96875 -6 L 29.96875 -6 L 29.96875 0 L 12 0 L 12 -6 L 6 -6 Z M 12 -6.0625 L 29.96875 -6.0625 L 29.96875 -12 L 35.90625 -12 L 35.90625 -29.96875 L 29.96875 -29.96875 L 29.96875 -35.90625 L 12 -35.90625 L 12 -29.96875 L 6.0625 -29.96875 L 6.0625 -12 L 12 -12 Z M 12 -6.0625 "/></g></g></g><g fill="#ff00ff" fill-opacity="1"><g transform="translate(359.777213, 214.428339)"><g><path d="M 23.96875 -29.96875 L 23.96875 -41.96875 L 29.96875 -41.96875 L 29.96875 -29.96875 L 35.96875 -29.96875 L 35.96875 -12 L 41.96875 -12 L 41.96875 0 L 35.96875 0 L 35.96875 -12 L 29.96875 -12 L 29.96875 -29.96875 Z M 0 -29.96875 L 0 -41.96875 L 6 -41.96875 L 6 -29.96875 L 12 -29.96875 L 12 -12 L 18 -12 L 18 0 L 12 0 L 12 -12 L 6 -12 L 6 -29.96875 Z M 41.9375 -12 L 41.9375 -29.96875 L 47.9375 -29.96875 L 47.9375 -12 Z M 17.96875 -12 L 17.96875 -29.96875 L 23.96875 -29.96875 L 23.96875 -12 Z M 47.9375 -41.96875 L 53.9375 -41.96875 L 53.9375 -29.96875 L 47.9375 -29.96875 Z M 47.9375 -41.96875 "/></g></g><g transform="translate(425.71626, 214.428339)"><g><path d="M 6 -6 L 29.96875 -6 L 29.96875 0 L 0 0 L 0 -41.96875 L 29.96875 -41.96875 L 29.96875 -35.96875 L 6 -35.96875 L 6 -23.96875 L 23.96875 -23.96875 L 23.96875 -17.96875 L 6 -17.96875 Z M 6 -6 "/></g></g><g transform="translate(467.685454, 214.428339)"><g><path d="M 23.96875 -23.96875 L 23.96875 -17.96875 L 29.96875 -17.96875 L 29.96875 -6 L 23.96875 -6 L 23.96875 0 L 0 0 L 0 -41.96875 L 23.96875 -41.96875 L 23.96875 -35.96875 L 29.96875 -35.96875 L 29.96875 -23.96875 Z M 6 -6 L 23.90625 -6 L 23.90625 -17.96875 L 6 -17.96875 Z M 23.90625 -23.96875 L 23.90625 -35.96875 L 6 -35.96875 L 6 -23.96875 Z M 23.90625 -23.96875 "/></g></g></g><g fill="#00ffff" fill-opacity="1"><g transform="translate(357.52949, 214.428339)"><g><path d="M 23.96875 -29.96875 L 23.96875 -41.96875 L 29.96875 -41.96875 L 29.96875 -29.96875 L 35.96875 -29.96875 L 35.96875 -12 L 41.96875 -12 L 41.96875 0 L 35.96875 0 L 35.96875 -12 L 29.96875 -12 L 29.96875 -29.96875 Z M 0 -29.96875 L 0 -41.96875 L 6 -41.96875 L 6 -29.96875 L 12 -29.96875 L 12 -12 L 18 -12 L 18 0 L 12 0 L 12 -12 L 6 -12 L 6 -29.96875 Z M 41.9375 -12 L 41.9375 -29.96875 L 47.9375 -29.96875 L 47.9375 -12 Z M 17.96875 -12 L 17.96875 -29.96875 L 23.96875 -29.96875 L 23.96875 -12 Z M 47.9375 -41.96875 L 53.9375 -41.96875 L 53.9375 -29.96875 L 47.9375 -29.96875 Z M 47.9375 -41.96875 "/></g></g><g transform="translate(423.468538, 214.428339)"><g><path d="M 6 -6 L 29.96875 -6 L 29.96875 0 L 0 0 L 0 -41.96875 L 29.96875 -41.96875 L 29.96875 -35.96875 L 6 -35.96875 L 6 -23.96875 L 23.96875 -23.96875 L 23.96875 -17.96875 L 6 -17.96875 Z M 6 -6 "/></g></g><g transform="translate(465.437732, 214.428339)"><g><path d="M 23.96875 -23.96875 L 23.96875 -17.96875 L 29.96875 -17.96875 L 29.96875 -6 L 23.96875 -6 L 23.96875 0 L 0 0 L 0 -41.96875 L 23.96875 -41.96875 L 23.96875 -35.96875 L 29.96875 -35.96875 L 29.96875 -23.96875 Z M 6 -6 L 23.90625 -6 L 23.90625 -17.96875 L 6 -17.96875 Z M 23.90625 -23.96875 L 23.90625 -35.96875 L 6 -35.96875 L 6 -23.96875 Z M 23.90625 -23.96875 "/></g></g></g><g fill="#05f1c7" fill-opacity="1"><g transform="translate(358.653351, 214.428339)"><g><path d="M 23.96875 -29.96875 L 23.96875 -41.96875 L 29.96875 -41.96875 L 29.96875 -29.96875 L 35.96875 -29.96875 L 35.96875 -12 L 41.96875 -12 L 41.96875 0 L 35.96875 0 L 35.96875 -12 L 29.96875 -12 L 29.96875 -29.96875 Z M 0 -29.96875 L 0 -41.96875 L 6 -41.96875 L 6 -29.96875 L 12 -29.96875 L 12 -12 L 18 -12 L 18 0 L 12 0 L 12 -12 L 6 -12 L 6 -29.96875 Z M 41.9375 -12 L 41.9375 -29.96875 L 47.9375 -29.96875 L 47.9375 -12 Z M 17.96875 -12 L 17.96875 -29.96875 L 23.96875 -29.96875 L 23.96875 -12 Z M 47.9375 -41.96875 L 53.9375 -41.96875 L 53.9375 -29.96875 L 47.9375 -29.96875 Z M 47.9375 -41.96875 "/></g></g><g transform="translate(424.592399, 214.428339)"><g><path d="M 6 -6 L 29.96875 -6 L 29.96875 0 L 0 0 L 0 -41.96875 L 29.96875 -41.96875 L 29.96875 -35.96875 L 6 -35.96875 L 6 -23.96875 L 23.96875 -23.96875 L 23.96875 -17.96875 L 6 -17.96875 Z M 6 -6 "/></g></g><g transform="translate(466.561593, 214.428339)"><g><path d="M 23.96875 -23.96875 L 23.96875 -17.96875 L 29.96875 -17.96875 L 29.96875 -6 L 23.96875 -6 L 23.96875 0 L 0 0 L 0 -41.96875 L 23.96875 -41.96875 L 23.96875 -35.96875 L 29.96875 -35.96875 L 29.96875 -23.96875 Z M 6 -6 L 23.90625 -6 L 23.90625 -17.96875 L 6 -17.96875 Z M 23.90625 -23.96875 L 23.90625 -35.96875 L 6 -35.96875 L 6 -23.96875 Z M 23.90625 -23.96875 "/></g></g></g></svg>